<svg width="1440" height="1146" viewBox="0 0 1440 1146" fill="none" xmlns="http://www.w3.org/2000/svg">
<path d="M-54.3333 -136.535H-160V-18.2793M-54.3333 -136.535V-18.2793M-54.3333 -136.535H51.3333M-54.3333 -18.2793H-160M-54.3333 -18.2793H51.3333M-54.3333 -18.2793V99.9766M-160 -18.2793V99.9766M51.3333 -136.535V-18.2793M51.3333 -136.535H157M51.3333 -18.2793H157M51.3333 -18.2793V99.9766M157 -136.535V-18.2793M157 -136.535H262.667M157 -18.2793H262.667M157 -18.2793V99.9766M262.667 -136.535V-18.2793M262.667 -136.535H368.333M262.667 -18.2793H368.333M262.667 -18.2793V99.9766M368.333 -136.535V-18.2793M368.333 -136.535H474M368.333 -18.2793H474M368.333 -18.2793V99.9766M474 -136.535V-18.2793M474 -136.535H579.667M474 -18.2793H579.667M474 -18.2793V99.9766M579.667 -136.535V-18.2793M579.667 -136.535H685.333M579.667 -18.2793H685.333M579.667 -18.2793V99.9766M685.333 -136.535V-18.2793M685.333 -136.535H791M685.333 -18.2793H791M685.333 -18.2793V99.9766M791 -136.535V-18.2793M791 -136.535H896.667M791 -18.2793H896.667M791 -18.2793V99.9766M896.667 -136.535V-18.2793M896.667 -136.535H1002.33M896.667 -18.2793H1002.33M896.667 -18.2793V99.9766M1002.33 -136.535V-18.2793M1002.33 -136.535H1108M1002.33 -18.2793H1108M1002.33 -18.2793V99.9766M1108 -136.535V-18.2793M1108 -136.535H1213.67M1108 -18.2793H1213.67M1108 -18.2793V99.9766M1213.67 -136.535V-18.2793M1213.67 -136.535H1319.33M1213.67 -18.2793H1319.33M1213.67 -18.2793V99.9766M1319.33 -136.535V-18.2793M1319.33 -136.535H1425M1319.33 -18.2793H1425M1319.33 -18.2793V99.9766M1425 -136.535V-18.2793M1425 -136.535H1530.67M1425 -18.2793H1530.67M1425 -18.2793V99.9766M1530.67 -136.535V-18.2793M1530.67 -136.535H1636.33V-18.2793M1530.67 -18.2793H1636.33M1530.67 -18.2793V99.9766M1636.33 -18.2793V99.9766M-54.3333 99.9766H-160M-54.3333 99.9766H51.3333M-54.3333 99.9766V218.232M-160 99.9766V218.232M51.3333 99.9766H157M51.3333 99.9766V218.232M157 99.9766H262.667M157 99.9766V218.232M262.667 99.9766H368.333M262.667 99.9766V218.232M368.333 99.9766H474M368.333 99.9766V218.232M474 99.9766H579.667M474 99.9766V218.232M579.667 99.9766H685.333M579.667 99.9766V218.232M685.333 99.9766H791M685.333 99.9766V218.232M791 99.9766H896.667M791 99.9766V218.232M896.667 99.9766H1002.33M896.667 99.9766V218.232M1002.33 99.9766H1108M1002.33 99.9766V218.232M1108 99.9766H1213.67M1108 99.9766V218.232M1213.67 99.9766H1319.33M1213.67 99.9766V218.232M1319.33 99.9766H1425M1319.33 99.9766V218.232M1425 99.9766H1530.67M1425 99.9766V218.232M1530.67 99.9766H1636.33M1530.67 99.9766V218.232M1636.33 99.9766V218.232M-54.3333 218.232H-160M-54.3333 218.232H51.3333M-54.3333 218.232V336.488M-160 218.232V336.488M51.3333 218.232H157M51.3333 218.232V336.488M157 218.232H262.667M157 218.232V336.488M262.667 218.232H368.333M262.667 218.232V336.488M368.333 218.232H474M368.333 218.232V336.488M474 218.232H579.667M474 218.232V336.488M579.667 218.232H685.333M579.667 218.232V336.488M685.333 218.232H791M685.333 218.232V336.488M791 218.232H896.667M791 218.232V336.488M896.667 218.232H1002.33M896.667 218.232V336.488M1002.33 218.232H1108M1002.33 218.232V336.488M1108 218.232H1213.67M1108 218.232V336.488M1213.67 218.232H1319.33M1213.67 218.232V336.488M1319.33 218.232H1425M1319.33 218.232V336.488M1425 218.232H1530.67M1425 218.232V336.488M1530.67 218.232H1636.33M1530.67 218.232V336.488M1636.33 218.232V336.488M-54.3333 336.488H-160M-54.3333 336.488H51.3333M-54.3333 336.488V454.744M-160 336.488V454.744M51.3333 336.488H157M51.3333 336.488V454.744M157 336.488H262.667M157 336.488V454.744M262.667 336.488H368.333M262.667 336.488V454.744M368.333 336.488H474M368.333 336.488V454.744M474 336.488H579.667M474 336.488V454.744M579.667 336.488H685.333M579.667 336.488V454.744M685.333 336.488H791M685.333 336.488V454.744M791 336.488H896.667M791 336.488V454.744M896.667 336.488H1002.33M896.667 336.488V454.744M1002.33 336.488H1108M1002.33 336.488V454.744M1108 336.488H1213.67M1108 336.488V454.744M1213.67 336.488H1319.33M1213.67 336.488V454.744M1319.33 336.488H1425M1319.33 336.488V454.744M1425 336.488H1530.67M1425 336.488V454.744M1530.67 336.488H1636.33M1530.67 336.488V454.744M1636.33 336.488V454.744M-54.3333 454.744H-160M-54.3333 454.744H51.3333M-54.3333 454.744V573M-160 454.744V573M51.3333 454.744H157M51.3333 454.744V573M157 454.744H262.667M157 454.744V573M262.667 454.744H368.333M262.667 454.744V573M368.333 454.744H474M368.333 454.744V573M474 454.744H579.667M474 454.744V573M579.667 454.744H685.333M579.667 454.744V573M685.333 454.744H791M685.333 454.744V573M791 454.744H896.667M791 454.744V573M896.667 454.744H1002.33M896.667 454.744V573M1002.33 454.744H1108M1002.33 454.744V573M1108 454.744H1213.67M1108 454.744V573M1213.67 454.744H1319.33M1213.67 454.744V573M1319.33 454.744H1425M1319.33 454.744V573M1425 454.744H1530.67M1425 454.744V573M1530.67 454.744H1636.33M1530.67 454.744V573M1636.33 454.744V573M-54.3333 573H-160M-54.3333 573H51.3333M-54.3333 573V691.256M-160 573V691.256M51.3333 573H157M51.3333 573V691.256M157 573H262.667M157 573V691.256M262.667 573H368.333M262.667 573V691.256M368.333 573H474M368.333 573V691.256M474 573H579.667M474 573V691.256M579.667 573H685.333M579.667 573V691.256M685.333 573H791M685.333 573V691.256M791 573H896.667M791 573V691.256M896.667 573H1002.33M896.667 573V691.256M1002.33 573H1108M1002.33 573V691.256M1108 573H1213.67M1108 573V691.256M1213.67 573H1319.33M1213.67 573V691.256M1319.33 573H1425M1319.33 573V691.256M1425 573H1530.67M1425 573V691.256M1530.67 573H1636.33M1530.67 573V691.256M1636.33 573V691.256M-54.3333 691.256H-160M-54.3333 691.256H51.3333M-54.3333 691.256V809.512M-160 691.256V809.512M51.3333 691.256H157M51.3333 691.256V809.512M157 691.256H262.667M157 691.256V809.512M262.667 691.256H368.333M262.667 691.256V809.512M368.333 691.256H474M368.333 691.256V809.512M474 691.256H579.667M474 691.256V809.512M579.667 691.256H685.333M579.667 691.256V809.512M685.333 691.256H791M685.333 691.256V809.512M791 691.256H896.667M791 691.256V809.512M896.667 691.256H1002.33M896.667 691.256V809.512M1002.33 691.256H1108M1002.33 691.256V809.512M1108 691.256H1213.67M1108 691.256V809.512M1213.67 691.256H1319.33M1213.67 691.256V809.512M1319.33 691.256H1425M1319.33 691.256V809.512M1425 691.256H1530.67M1425 691.256V809.512M1530.67 691.256H1636.33M1530.67 691.256V809.512M1636.33 691.256V809.512M-54.3333 809.512H-160M-54.3333 809.512H51.3333M-54.3333 809.512V927.768M-160 809.512V927.768M51.3333 809.512H157M51.3333 809.512V927.768M157 809.512H262.667M157 809.512V927.768M262.667 809.512H368.333M262.667 809.512V927.768M368.333 809.512H474M368.333 809.512V927.768M474 809.512H579.667M474 809.512V927.768M579.667 809.512H685.333M579.667 809.512V927.768M685.333 809.512H791M685.333 809.512V927.768M791 809.512H896.667M791 809.512V927.768M896.667 809.512H1002.33M896.667 809.512V927.768M1002.33 809.512H1108M1002.33 809.512V927.768M1108 809.512H1213.67M1108 809.512V927.768M1213.67 809.512H1319.33M1213.67 809.512V927.768M1319.33 809.512H1425M1319.33 809.512V927.768M1425 809.512H1530.67M1425 809.512V927.768M1530.67 809.512H1636.33M1530.67 809.512V927.768M1636.33 809.512V927.768M-54.3333 927.768H-160M-54.3333 927.768H51.3333M-54.3333 927.768V1046.02M-160 927.768V1046.02M51.3333 927.768H157M51.3333 927.768V1046.02M157 927.768H262.667M157 927.768V1046.02M262.667 927.768H368.333M262.667 927.768V1046.02M368.333 927.768H474M368.333 927.768V1046.02M474 927.768H579.667M474 927.768V1046.02M579.667 927.768H685.333M579.667 927.768V1046.02M685.333 927.768H791M685.333 927.768V1046.02M791 927.768H896.667M791 927.768V1046.02M896.667 927.768H1002.33M896.667 927.768V1046.02M1002.33 927.768H1108M1002.33 927.768V1046.02M1108 927.768H1213.67M1108 927.768V1046.02M1213.67 927.768H1319.33M1213.67 927.768V1046.02M1319.33 927.768H1425M1319.33 927.768V1046.02M1425 927.768H1530.67M1425 927.768V1046.02M1530.67 927.768H1636.33M1530.67 927.768V1046.02M1636.33 927.768V1046.02M-54.3333 1046.02H-160M-54.3333 1046.02H51.3333M-54.3333 1046.02V1164.28M-160 1046.02V1164.28M51.3333 1046.02H157M51.3333 1046.02V1164.28M157 1046.02H262.667M157 1046.02V1164.28M262.667 1046.02H368.333M262.667 1046.02V1164.28M368.333 1046.02H474M368.333 1046.02V1164.28M474 1046.02H579.667M474 1046.02V1164.28M579.667 1046.02H685.333M579.667 1046.02V1164.28M685.333 1046.02H791M685.333 1046.02V1164.28M791 1046.02H896.667M791 1046.02V1164.28M896.667 1046.02H1002.33M896.667 1046.02V1164.28M1002.33 1046.02H1108M1002.33 1046.02V1164.28M1108 1046.02H1213.67M1108 1046.02V1164.28M1213.67 1046.02H1319.33M1213.67 1046.02V1164.28M1319.33 1046.02H1425M1319.33 1046.02V1164.28M1425 1046.02H1530.67M1425 1046.02V1164.28M1530.67 1046.02H1636.33M1530.67 1046.02V1164.28M1636.33 1046.02V1164.28M-54.3333 1164.28H-160M-54.3333 1164.28H51.3333M-54.3333 1164.28V1282.54M-160 1164.28V1282.54H-54.3333M51.3333 1164.28H157M51.3333 1164.28V1282.54M157 1164.28H262.667M157 1164.28V1282.54M262.667 1164.28H368.333M262.667 1164.28V1282.54M368.333 1164.28H474M368.333 1164.28V1282.54M474 1164.28H579.667M474 1164.28V1282.54M579.667 1164.28H685.333M579.667 1164.28V1282.54M685.333 1164.28H791M685.333 1164.28V1282.54M791 1164.28H896.667M791 1164.28V1282.54M896.667 1164.28H1002.33M896.667 1164.28V1282.54M1002.33 1164.28H1108M1002.33 1164.28V1282.54M1108 1164.28H1213.67M1108 1164.28V1282.54M1213.67 1164.28H1319.33M1213.67 1164.28V1282.54M1319.33 1164.28H1425M1319.33 1164.28V1282.54M1425 1164.28H1530.67M1425 1164.28V1282.54M1530.67 1164.28H1636.33M1530.67 1164.28V1282.54M1636.33 1164.28V1282.54H1530.67M-54.3333 1282.54H51.3333M51.3333 1282.54H157M157 1282.54H262.667M262.667 1282.54H368.333M368.333 1282.54H474M474 1282.54H579.667M579.667 1282.54H685.333M685.333 1282.54H791M791 1282.54H896.667M896.667 1282.54H1002.33M1002.33 1282.54H1108M1108 1282.54H1213.67M1213.67 1282.54H1319.33M1319.33 1282.54H1425M1425 1282.54H1530.67" stroke="url(#paint0_radial_797_271)" stroke-opacity="0.11" stroke-width="3"/>
<defs>
<radialGradient id="paint0_radial_797_271" cx="0" cy="0" r="1" gradientUnits="userSpaceOnUse" gradientTransform="translate(738.167 610.903) rotate(90) scale(670.117 899.522)">
<stop stop-color="#888888"/>
<stop offset="1" stop-color="#212121" stop-opacity="0"/>
</radialGradient>
</defs>
</svg>
