<svg width="1440" height="434" viewBox="0 0 1440 434" fill="none" xmlns="http://www.w3.org/2000/svg">
<g clip-path="url(#clip0_3043_594)">
<rect width="343" height="317" fill="white"/>
<rect y="-27.3333" width="41.6667" height="41.6667" rx="4.5977" stroke="#F0F0F0" stroke-width="0.431035"/>
<rect x="41.6665" y="-27.3333" width="41.6667" height="41.6667" rx="4.5977" stroke="#F0F0F0" stroke-width="0.431035"/>
<rect x="83.3335" y="-27.3333" width="41.6667" height="41.6667" rx="4.5977" stroke="#F0F0F0" stroke-width="0.431035"/>
<rect x="125" y="-27.3333" width="41.6667" height="41.6667" rx="4.5977" stroke="#F0F0F0" stroke-width="0.431035"/>
<rect x="166.667" y="-27.3333" width="41.6667" height="41.6667" rx="4.5977" stroke="#F0F0F0" stroke-width="0.431035"/>
<rect x="208.333" y="-27.3333" width="41.6667" height="41.6667" rx="4.5977" stroke="#F0F0F0" stroke-width="0.431035"/>
<rect y="14.3333" width="41.6667" height="41.6667" rx="4.5977" stroke="#F0F0F0" stroke-width="0.431035"/>
<rect x="41.6665" y="14.3333" width="41.6667" height="41.6667" rx="4.5977" stroke="#F0F0F0" stroke-width="0.431035"/>
<rect x="83.3335" y="14.3333" width="41.6667" height="41.6667" rx="4.5977" stroke="#F0F0F0" stroke-width="0.431035"/>
<rect x="125" y="14.3333" width="41.6667" height="41.6667" rx="4.5977" stroke="#F0F0F0" stroke-width="0.431035"/>
<rect x="166.667" y="14.3333" width="41.6667" height="41.6667" rx="4.5977" stroke="#F0F0F0" stroke-width="0.431035"/>
<rect x="208.333" y="14.3333" width="41.6667" height="41.6667" rx="4.5977" stroke="#F0F0F0" stroke-width="0.431035"/>
<rect y="56" width="41.6667" height="41.6667" rx="4.5977" stroke="#F0F0F0" stroke-width="0.431035"/>
<rect x="41.6665" y="56" width="41.6667" height="41.6667" rx="4.5977" stroke="#F0F0F0" stroke-width="0.431035"/>
<rect x="83.3335" y="56" width="41.6667" height="41.6667" rx="4.5977" stroke="#F0F0F0" stroke-width="0.431035"/>
<rect x="125" y="56" width="41.6667" height="41.6667" rx="4.5977" stroke="#F0F0F0" stroke-width="0.431035"/>
<rect x="166.667" y="56" width="41.6667" height="41.6667" rx="4.5977" stroke="#F0F0F0" stroke-width="0.431035"/>
<rect x="208.333" y="56" width="41.6667" height="41.6667" rx="4.5977" stroke="#F0F0F0" stroke-width="0.431035"/>
<rect y="97.6667" width="41.6667" height="41.6667" rx="4.5977" stroke="#F0F0F0" stroke-width="0.431035"/>
<rect x="41.6665" y="97.6668" width="41.6667" height="41.6667" rx="4.5977" stroke="#F0F0F0" stroke-width="0.431035"/>
<rect x="83.3335" y="97.6668" width="41.6667" height="41.6667" rx="4.5977" stroke="#F0F0F0" stroke-width="0.431035"/>
<rect x="125" y="97.6668" width="41.6667" height="41.6667" rx="4.5977" stroke="#F0F0F0" stroke-width="0.431035"/>
<rect x="166.667" y="97.6668" width="41.6667" height="41.6667" rx="4.5977" stroke="#F0F0F0" stroke-width="0.431035"/>
<rect x="208.333" y="97.6668" width="41.6667" height="41.6667" rx="4.5977" stroke="#F0F0F0" stroke-width="0.431035"/>
<rect y="139.333" width="41.6667" height="41.6667" rx="4.5977" stroke="#F0F0F0" stroke-width="0.431035"/>
<rect x="41.6665" y="139.333" width="41.6667" height="41.6667" rx="4.5977" stroke="#F0F0F0" stroke-width="0.431035"/>
<rect x="83.3335" y="139.333" width="41.6667" height="41.6667" rx="4.5977" stroke="#F0F0F0" stroke-width="0.431035"/>
<rect x="125" y="139.333" width="41.6667" height="41.6667" rx="4.5977" stroke="#F0F0F0" stroke-width="0.431035"/>
<rect x="166.667" y="139.333" width="41.6667" height="41.6667" rx="4.5977" stroke="#F0F0F0" stroke-width="0.431035"/>
<rect x="208.333" y="139.333" width="41.6667" height="41.6667" rx="4.5977" stroke="#F0F0F0" stroke-width="0.431035"/>
<rect y="181" width="41.6667" height="41.6667" rx="4.5977" stroke="#F0F0F0" stroke-width="0.431035"/>
<rect x="41.6665" y="181" width="41.6667" height="41.6667" rx="4.5977" stroke="#F0F0F0" stroke-width="0.431035"/>
<rect x="83.3335" y="181" width="41.6667" height="41.6667" rx="4.5977" stroke="#F0F0F0" stroke-width="0.431035"/>
<rect x="125" y="181" width="41.6667" height="41.6667" rx="4.5977" stroke="#F0F0F0" stroke-width="0.431035"/>
<rect x="166.667" y="181" width="41.6667" height="41.6667" rx="4.5977" stroke="#F0F0F0" stroke-width="0.431035"/>
<rect x="208.333" y="181" width="41.6667" height="41.6667" rx="4.5977" stroke="#F0F0F0" stroke-width="0.431035"/>
<path d="M166.667 -23.885V9.73568C166.667 12.2749 168.725 14.3334 171.264 14.3334H203.736C206.275 14.3334 208.333 16.3918 208.333 18.9311V51.4023C208.333 53.9416 210.392 56 212.931 56H245.402C247.942 56 250 58.0585 250 60.5977V93.069C250 95.6082 252.058 97.6667 254.598 97.6667H287.069C289.608 97.6667 291.667 99.7252 291.667 102.264V134.736C291.667 137.275 293.725 139.333 296.264 139.333H329.885M125 -23.885V9.73568C125 12.2749 127.058 14.3334 129.598 14.3334H162.069C164.608 14.3334 166.667 16.3918 166.667 18.9311V51.4023C166.667 53.9416 168.725 56 171.264 56H203.736C206.275 56 208.333 58.0585 208.333 60.5977V93.069C208.333 95.6082 206.275 97.6667 203.736 97.6667H171.264C168.725 97.6667 166.667 95.6082 166.667 93.069V60.023L166.626 59.7515C166.318 57.669 164.55 56.1141 162.446 56.0736L158.621 56H129.598C127.058 56 125 58.0585 125 60.5977V93.069C125 95.6082 127.058 97.6667 129.598 97.6667H162.356L163.448 97.7395C165.259 97.8602 166.667 99.3647 166.667 101.18V104.707M166.667 101.115V134.736C166.667 137.275 168.725 139.333 171.264 139.333H203.736C206.275 139.333 208.333 141.392 208.333 143.931V176.402C208.333 178.942 210.392 181 212.931 181H245.402C247.942 181 250 183.059 250 185.598V218.069C250 220.608 252.058 222.667 254.598 222.667H287.069C289.608 222.667 291.667 224.725 291.667 227.264V259.736C291.667 262.275 293.725 264.333 296.264 264.333H329.885" stroke="url(#paint0_linear_3043_594)" stroke-opacity="0.8" stroke-width="0.431035"/>
<rect y="233.621" width="233.621" height="125" transform="rotate(-90 0 233.621)" fill="url(#paint1_linear_3043_594)"/>
<rect x="233.621" y="264.368" width="233.621" height="125" transform="rotate(-180 233.621 264.368)" fill="url(#paint2_linear_3043_594)"/>
<ellipse cx="163.218" cy="-28.1609" rx="155.46" ry="132.471" fill="url(#paint3_radial_3043_594)"/>
</g>
<g clip-path="url(#clip1_3043_594)">
<rect width="343" height="317" transform="matrix(-1 0 0 1 1440 0)" fill="white"/>
<rect width="41.6667" height="41.6667" rx="4.5977" transform="matrix(-1 0 0 1 1440 -27.3333)" stroke="#F0F0F0" stroke-width="0.431035"/>
<rect width="41.6667" height="41.6667" rx="4.5977" transform="matrix(-1 0 0 1 1398.33 -27.3333)" stroke="#F0F0F0" stroke-width="0.431035"/>
<rect width="41.6667" height="41.6667" rx="4.5977" transform="matrix(-1 0 0 1 1356.67 -27.3333)" stroke="#F0F0F0" stroke-width="0.431035"/>
<rect width="41.6667" height="41.6667" rx="4.5977" transform="matrix(-1 0 0 1 1315 -27.3333)" stroke="#F0F0F0" stroke-width="0.431035"/>
<rect width="41.6667" height="41.6667" rx="4.5977" transform="matrix(-1 0 0 1 1273.33 -27.3333)" stroke="#F0F0F0" stroke-width="0.431035"/>
<rect width="41.6667" height="41.6667" rx="4.5977" transform="matrix(-1 0 0 1 1231.67 -27.3333)" stroke="#F0F0F0" stroke-width="0.431035"/>
<rect width="41.6667" height="41.6667" rx="4.5977" transform="matrix(-1 0 0 1 1440 14.3333)" stroke="#F0F0F0" stroke-width="0.431035"/>
<rect width="41.6667" height="41.6667" rx="4.5977" transform="matrix(-1 0 0 1 1398.33 14.3333)" stroke="#F0F0F0" stroke-width="0.431035"/>
<rect width="41.6667" height="41.6667" rx="4.5977" transform="matrix(-1 0 0 1 1356.67 14.3333)" stroke="#F0F0F0" stroke-width="0.431035"/>
<rect width="41.6667" height="41.6667" rx="4.5977" transform="matrix(-1 0 0 1 1315 14.3333)" stroke="#F0F0F0" stroke-width="0.431035"/>
<rect width="41.6667" height="41.6667" rx="4.5977" transform="matrix(-1 0 0 1 1273.33 14.3333)" stroke="#F0F0F0" stroke-width="0.431035"/>
<rect width="41.6667" height="41.6667" rx="4.5977" transform="matrix(-1 0 0 1 1231.67 14.3333)" stroke="#F0F0F0" stroke-width="0.431035"/>
<rect width="41.6667" height="41.6667" rx="4.5977" transform="matrix(-1 0 0 1 1440 56)" stroke="#F0F0F0" stroke-width="0.431035"/>
<rect width="41.6667" height="41.6667" rx="4.5977" transform="matrix(-1 0 0 1 1398.33 56)" stroke="#F0F0F0" stroke-width="0.431035"/>
<rect width="41.6667" height="41.6667" rx="4.5977" transform="matrix(-1 0 0 1 1356.67 56)" stroke="#F0F0F0" stroke-width="0.431035"/>
<rect width="41.6667" height="41.6667" rx="4.5977" transform="matrix(-1 0 0 1 1315 56)" stroke="#F0F0F0" stroke-width="0.431035"/>
<rect width="41.6667" height="41.6667" rx="4.5977" transform="matrix(-1 0 0 1 1273.33 56)" stroke="#F0F0F0" stroke-width="0.431035"/>
<rect width="41.6667" height="41.6667" rx="4.5977" transform="matrix(-1 0 0 1 1231.67 56)" stroke="#F0F0F0" stroke-width="0.431035"/>
<rect width="41.6667" height="41.6667" rx="4.5977" transform="matrix(-1 0 0 1 1440 97.6667)" stroke="#F0F0F0" stroke-width="0.431035"/>
<rect width="41.6667" height="41.6667" rx="4.5977" transform="matrix(-1 0 0 1 1398.33 97.6668)" stroke="#F0F0F0" stroke-width="0.431035"/>
<rect width="41.6667" height="41.6667" rx="4.5977" transform="matrix(-1 0 0 1 1356.67 97.6668)" stroke="#F0F0F0" stroke-width="0.431035"/>
<rect width="41.6667" height="41.6667" rx="4.5977" transform="matrix(-1 0 0 1 1315 97.6668)" stroke="#F0F0F0" stroke-width="0.431035"/>
<rect width="41.6667" height="41.6667" rx="4.5977" transform="matrix(-1 0 0 1 1273.33 97.6668)" stroke="#F0F0F0" stroke-width="0.431035"/>
<rect width="41.6667" height="41.6667" rx="4.5977" transform="matrix(-1 0 0 1 1231.67 97.6668)" stroke="#F0F0F0" stroke-width="0.431035"/>
<rect width="41.6667" height="41.6667" rx="4.5977" transform="matrix(-1 0 0 1 1440 139.333)" stroke="#F0F0F0" stroke-width="0.431035"/>
<rect width="41.6667" height="41.6667" rx="4.5977" transform="matrix(-1 0 0 1 1398.33 139.333)" stroke="#F0F0F0" stroke-width="0.431035"/>
<rect width="41.6667" height="41.6667" rx="4.5977" transform="matrix(-1 0 0 1 1356.67 139.333)" stroke="#F0F0F0" stroke-width="0.431035"/>
<rect width="41.6667" height="41.6667" rx="4.5977" transform="matrix(-1 0 0 1 1315 139.333)" stroke="#F0F0F0" stroke-width="0.431035"/>
<rect width="41.6667" height="41.6667" rx="4.5977" transform="matrix(-1 0 0 1 1273.33 139.333)" stroke="#F0F0F0" stroke-width="0.431035"/>
<rect width="41.6667" height="41.6667" rx="4.5977" transform="matrix(-1 0 0 1 1231.67 139.333)" stroke="#F0F0F0" stroke-width="0.431035"/>
<rect width="41.6667" height="41.6667" rx="4.5977" transform="matrix(-1 0 0 1 1440 181)" stroke="#F0F0F0" stroke-width="0.431035"/>
<rect width="41.6667" height="41.6667" rx="4.5977" transform="matrix(-1 0 0 1 1398.33 181)" stroke="#F0F0F0" stroke-width="0.431035"/>
<rect width="41.6667" height="41.6667" rx="4.5977" transform="matrix(-1 0 0 1 1356.67 181)" stroke="#F0F0F0" stroke-width="0.431035"/>
<rect width="41.6667" height="41.6667" rx="4.5977" transform="matrix(-1 0 0 1 1315 181)" stroke="#F0F0F0" stroke-width="0.431035"/>
<rect width="41.6667" height="41.6667" rx="4.5977" transform="matrix(-1 0 0 1 1273.33 181)" stroke="#F0F0F0" stroke-width="0.431035"/>
<rect width="41.6667" height="41.6667" rx="4.5977" transform="matrix(-1 0 0 1 1231.67 181)" stroke="#F0F0F0" stroke-width="0.431035"/>
<path d="M1273.33 -23.885V9.73568C1273.33 12.2749 1271.27 14.3334 1268.74 14.3334H1236.26C1233.73 14.3334 1231.67 16.3918 1231.67 18.9311V51.4023C1231.67 53.9416 1229.61 56 1227.07 56H1194.6C1192.06 56 1190 58.0585 1190 60.5977V93.069C1190 95.6082 1187.94 97.6667 1185.4 97.6667H1152.93C1150.39 97.6667 1148.33 99.7252 1148.33 102.264V134.736C1148.33 137.275 1146.27 139.333 1143.74 139.333H1110.11M1315 -23.885V9.73568C1315 12.2749 1312.94 14.3334 1310.4 14.3334H1277.93C1275.39 14.3334 1273.33 16.3918 1273.33 18.9311V51.4023C1273.33 53.9416 1271.27 56 1268.74 56H1236.26C1233.73 56 1231.67 58.0585 1231.67 60.5977V93.069C1231.67 95.6082 1233.73 97.6667 1236.26 97.6667H1268.74C1271.27 97.6667 1273.33 95.6082 1273.33 93.069V60.023L1273.37 59.7515C1273.68 57.669 1275.45 56.1141 1277.55 56.0736L1281.38 56H1310.4C1312.94 56 1315 58.0585 1315 60.5977V93.069C1315 95.6082 1312.94 97.6667 1310.4 97.6667H1277.64L1276.55 97.7395C1274.74 97.8602 1273.33 99.3647 1273.33 101.18V104.707M1273.33 101.115V134.736C1273.33 137.275 1271.27 139.333 1268.74 139.333H1236.26C1233.73 139.333 1231.67 141.392 1231.67 143.931V176.402C1231.67 178.942 1229.61 181 1227.07 181H1194.6C1192.06 181 1190 183.059 1190 185.598V218.069C1190 220.608 1187.94 222.667 1185.4 222.667H1152.93C1150.39 222.667 1148.33 224.725 1148.33 227.264V259.736C1148.33 262.275 1146.27 264.333 1143.74 264.333H1110.11" stroke="url(#paint4_linear_3043_594)" stroke-opacity="0.8" stroke-width="0.431035"/>
<rect width="233.621" height="125" transform="matrix(0 -1 -1 0 1440 233.621)" fill="url(#paint5_linear_3043_594)"/>
<rect width="233.621" height="125" transform="matrix(1 0 0 -1 1206.38 264.368)" fill="url(#paint6_linear_3043_594)"/>
<ellipse cx="155.46" cy="132.471" rx="155.46" ry="132.471" transform="matrix(-1 0 0 1 1432.24 -160.632)" fill="url(#paint7_radial_3043_594)"/>
</g>
<g clip-path="url(#clip2_3043_594)">
<rect width="233" height="317" transform="translate(342 117)" fill="white"/>
<rect x="315.333" y="89.6667" width="41.6667" height="41.6667" rx="4.5977" stroke="#F0F0F0" stroke-width="0.431035"/>
<rect x="357" y="89.6667" width="41.6667" height="41.6667" rx="4.5977" stroke="#F0F0F0" stroke-width="0.431035"/>
<rect x="398.667" y="89.6667" width="41.6667" height="41.6667" rx="4.5977" stroke="#F0F0F0" stroke-width="0.431035"/>
<rect x="440.333" y="89.6667" width="41.6667" height="41.6667" rx="4.5977" stroke="#F0F0F0" stroke-width="0.431035"/>
<rect x="315.333" y="131.333" width="41.6667" height="41.6667" rx="4.5977" stroke="#F0F0F0" stroke-width="0.431035"/>
<rect x="357" y="131.333" width="41.6667" height="41.6667" rx="4.5977" stroke="#F0F0F0" stroke-width="0.431035"/>
<rect x="398.667" y="131.333" width="41.6667" height="41.6667" rx="4.5977" stroke="#F0F0F0" stroke-width="0.431035"/>
<rect x="440.333" y="131.333" width="41.6667" height="41.6667" rx="4.5977" stroke="#F0F0F0" stroke-width="0.431035"/>
<rect x="315.333" y="173" width="41.6667" height="41.6667" rx="4.5977" stroke="#F0F0F0" stroke-width="0.431035"/>
<rect x="357" y="173" width="41.6667" height="41.6667" rx="4.5977" stroke="#F0F0F0" stroke-width="0.431035"/>
<rect x="398.667" y="173" width="41.6667" height="41.6667" rx="4.5977" stroke="#F0F0F0" stroke-width="0.431035"/>
<rect x="440.333" y="173" width="41.6667" height="41.6667" rx="4.5977" stroke="#F0F0F0" stroke-width="0.431035"/>
<rect x="315.333" y="214.667" width="41.6667" height="41.6667" rx="4.5977" stroke="#F0F0F0" stroke-width="0.431035"/>
<rect x="357" y="214.667" width="41.6667" height="41.6667" rx="4.5977" stroke="#F0F0F0" stroke-width="0.431035"/>
<rect x="398.667" y="214.667" width="41.6667" height="41.6667" rx="4.5977" stroke="#F0F0F0" stroke-width="0.431035"/>
<rect x="440.333" y="214.667" width="41.6667" height="41.6667" rx="4.5977" stroke="#F0F0F0" stroke-width="0.431035"/>
<rect x="315.333" y="256.333" width="41.6667" height="41.6667" rx="4.5977" stroke="#F0F0F0" stroke-width="0.431035"/>
<rect x="357" y="256.333" width="41.6667" height="41.6667" rx="4.5977" stroke="#F0F0F0" stroke-width="0.431035"/>
<rect x="398.667" y="256.333" width="41.6667" height="41.6667" rx="4.5977" stroke="#F0F0F0" stroke-width="0.431035"/>
<rect x="440.333" y="256.333" width="41.6667" height="41.6667" rx="4.5977" stroke="#F0F0F0" stroke-width="0.431035"/>
<rect x="315.333" y="298" width="41.6667" height="41.6667" rx="4.5977" stroke="#F0F0F0" stroke-width="0.431035"/>
<rect x="357" y="298" width="41.6667" height="41.6667" rx="4.5977" stroke="#F0F0F0" stroke-width="0.431035"/>
<rect x="398.667" y="298" width="41.6667" height="41.6667" rx="4.5977" stroke="#F0F0F0" stroke-width="0.431035"/>
<rect x="440.333" y="298" width="41.6667" height="41.6667" rx="4.5977" stroke="#F0F0F0" stroke-width="0.431035"/>
<path d="M398.667 93.115V126.736C398.667 129.275 400.725 131.333 403.264 131.333H435.736C438.275 131.333 440.333 133.392 440.333 135.931V168.402C440.333 170.942 442.392 173 444.931 173H477.402C479.942 173 482 175.059 482 177.598V210.069C482 212.608 484.058 214.667 486.598 214.667H519.069C521.608 214.667 523.667 216.725 523.667 219.264V251.736C523.667 254.275 525.725 256.333 528.264 256.333H561.885M357 93.115V126.736C357 129.275 359.058 131.333 361.598 131.333H394.069C396.608 131.333 398.667 133.392 398.667 135.931V168.402C398.667 170.942 400.725 173 403.264 173H435.736C438.275 173 440.333 175.059 440.333 177.598V210.069C440.333 212.608 438.275 214.667 435.736 214.667H403.264C400.725 214.667 398.667 212.608 398.667 210.069V177.023L398.626 176.751C398.318 174.669 396.55 173.114 394.446 173.074L390.621 173H361.598C359.058 173 357 175.059 357 177.598V210.069C357 212.608 359.058 214.667 361.598 214.667H394.356L395.448 214.739C397.259 214.86 398.667 216.365 398.667 218.18V221.707M398.667 218.115V251.736C398.667 254.275 400.725 256.333 403.264 256.333H435.736C438.275 256.333 440.333 258.392 440.333 260.931V293.402C440.333 295.942 442.392 298 444.931 298H477.402C479.942 298 482 300.059 482 302.598V335.069C482 337.608 484.058 339.667 486.598 339.667H519.069C521.608 339.667 523.667 341.725 523.667 344.264V376.736C523.667 379.275 525.725 381.333 528.264 381.333H561.885" stroke="url(#paint8_linear_3043_594)" stroke-opacity="0.8" stroke-width="0.431035"/>
<rect x="232" y="350.621" width="233.621" height="125" transform="rotate(-90 232 350.621)" fill="url(#paint9_linear_3043_594)"/>
<rect x="465.621" y="381.368" width="233.621" height="125" transform="rotate(-180 465.621 381.368)" fill="url(#paint10_linear_3043_594)"/>
<ellipse cx="395.218" cy="88.8391" rx="155.46" ry="132.471" fill="url(#paint11_radial_3043_594)"/>
</g>
<g clip-path="url(#clip3_3043_594)">
<rect width="233" height="317" transform="matrix(-1 0 0 1 1072 117)" fill="white"/>
<rect width="41.6667" height="41.6667" rx="4.5977" transform="matrix(-1 0 0 1 1098.67 89.6667)" stroke="#F0F0F0" stroke-width="0.431035"/>
<rect width="41.6667" height="41.6667" rx="4.5977" transform="matrix(-1 0 0 1 1057 89.6667)" stroke="#F0F0F0" stroke-width="0.431035"/>
<rect width="41.6667" height="41.6667" rx="4.5977" transform="matrix(-1 0 0 1 1015.33 89.6667)" stroke="#F0F0F0" stroke-width="0.431035"/>
<rect width="41.6667" height="41.6667" rx="4.5977" transform="matrix(-1 0 0 1 973.667 89.6667)" stroke="#F0F0F0" stroke-width="0.431035"/>
<rect width="41.6667" height="41.6667" rx="4.5977" transform="matrix(-1 0 0 1 1098.67 131.333)" stroke="#F0F0F0" stroke-width="0.431035"/>
<rect width="41.6667" height="41.6667" rx="4.5977" transform="matrix(-1 0 0 1 1057 131.333)" stroke="#F0F0F0" stroke-width="0.431035"/>
<rect width="41.6667" height="41.6667" rx="4.5977" transform="matrix(-1 0 0 1 1015.33 131.333)" stroke="#F0F0F0" stroke-width="0.431035"/>
<rect width="41.6667" height="41.6667" rx="4.5977" transform="matrix(-1 0 0 1 973.667 131.333)" stroke="#F0F0F0" stroke-width="0.431035"/>
<rect width="41.6667" height="41.6667" rx="4.5977" transform="matrix(-1 0 0 1 1098.67 173)" stroke="#F0F0F0" stroke-width="0.431035"/>
<rect width="41.6667" height="41.6667" rx="4.5977" transform="matrix(-1 0 0 1 1057 173)" stroke="#F0F0F0" stroke-width="0.431035"/>
<rect width="41.6667" height="41.6667" rx="4.5977" transform="matrix(-1 0 0 1 1015.33 173)" stroke="#F0F0F0" stroke-width="0.431035"/>
<rect width="41.6667" height="41.6667" rx="4.5977" transform="matrix(-1 0 0 1 973.667 173)" stroke="#F0F0F0" stroke-width="0.431035"/>
<rect width="41.6667" height="41.6667" rx="4.5977" transform="matrix(-1 0 0 1 1098.67 214.667)" stroke="#F0F0F0" stroke-width="0.431035"/>
<rect width="41.6667" height="41.6667" rx="4.5977" transform="matrix(-1 0 0 1 1057 214.667)" stroke="#F0F0F0" stroke-width="0.431035"/>
<rect width="41.6667" height="41.6667" rx="4.5977" transform="matrix(-1 0 0 1 1015.33 214.667)" stroke="#F0F0F0" stroke-width="0.431035"/>
<rect width="41.6667" height="41.6667" rx="4.5977" transform="matrix(-1 0 0 1 973.667 214.667)" stroke="#F0F0F0" stroke-width="0.431035"/>
<rect width="41.6667" height="41.6667" rx="4.5977" transform="matrix(-1 0 0 1 1098.67 256.333)" stroke="#F0F0F0" stroke-width="0.431035"/>
<rect width="41.6667" height="41.6667" rx="4.5977" transform="matrix(-1 0 0 1 1057 256.333)" stroke="#F0F0F0" stroke-width="0.431035"/>
<rect width="41.6667" height="41.6667" rx="4.5977" transform="matrix(-1 0 0 1 1015.33 256.333)" stroke="#F0F0F0" stroke-width="0.431035"/>
<rect width="41.6667" height="41.6667" rx="4.5977" transform="matrix(-1 0 0 1 973.667 256.333)" stroke="#F0F0F0" stroke-width="0.431035"/>
<rect width="41.6667" height="41.6667" rx="4.5977" transform="matrix(-1 0 0 1 1098.67 298)" stroke="#F0F0F0" stroke-width="0.431035"/>
<rect width="41.6667" height="41.6667" rx="4.5977" transform="matrix(-1 0 0 1 1057 298)" stroke="#F0F0F0" stroke-width="0.431035"/>
<rect width="41.6667" height="41.6667" rx="4.5977" transform="matrix(-1 0 0 1 1015.33 298)" stroke="#F0F0F0" stroke-width="0.431035"/>
<rect width="41.6667" height="41.6667" rx="4.5977" transform="matrix(-1 0 0 1 973.667 298)" stroke="#F0F0F0" stroke-width="0.431035"/>
<path d="M1015.33 93.115V126.736C1015.33 129.275 1013.27 131.333 1010.74 131.333H978.264C975.725 131.333 973.667 133.392 973.667 135.931V168.402C973.667 170.942 971.608 173 969.069 173H936.598C934.058 173 932 175.059 932 177.598V210.069C932 212.608 929.942 214.667 927.402 214.667H894.931C892.392 214.667 890.333 216.725 890.333 219.264V251.736C890.333 254.275 888.275 256.333 885.736 256.333H852.115M1057 93.115V126.736C1057 129.275 1054.94 131.333 1052.4 131.333H1019.93C1017.39 131.333 1015.33 133.392 1015.33 135.931V168.402C1015.33 170.942 1013.27 173 1010.74 173H978.264C975.725 173 973.667 175.059 973.667 177.598V210.069C973.667 212.608 975.725 214.667 978.264 214.667H1010.74C1013.27 214.667 1015.33 212.608 1015.33 210.069V177.023L1015.37 176.751C1015.68 174.669 1017.45 173.114 1019.55 173.074L1023.38 173H1052.4C1054.94 173 1057 175.059 1057 177.598V210.069C1057 212.608 1054.94 214.667 1052.4 214.667H1019.64L1018.55 214.739C1016.74 214.86 1015.33 216.365 1015.33 218.18V221.707M1015.33 218.115V251.736C1015.33 254.275 1013.27 256.333 1010.74 256.333H978.264C975.725 256.333 973.667 258.392 973.667 260.931V293.402C973.667 295.942 971.608 298 969.069 298H936.598C934.058 298 932 300.059 932 302.598V335.069C932 337.608 929.942 339.667 927.402 339.667H894.931C892.392 339.667 890.333 341.725 890.333 344.264V376.736C890.333 379.275 888.275 381.333 885.736 381.333H852.115" stroke="url(#paint12_linear_3043_594)" stroke-opacity="0.8" stroke-width="0.431035"/>
<rect width="233.621" height="125" transform="matrix(0 -1 -1 0 1182 350.621)" fill="url(#paint13_linear_3043_594)"/>
<rect width="233.621" height="125" transform="matrix(1 0 0 -1 948.379 381.368)" fill="url(#paint14_linear_3043_594)"/>
<ellipse cx="155.46" cy="132.471" rx="155.46" ry="132.471" transform="matrix(-1 0 0 1 1174.24 -43.6322)" fill="url(#paint15_radial_3043_594)"/>
</g>
<g clip-path="url(#clip4_3043_594)">
<rect width="233" height="317" transform="translate(473)" fill="white"/>
<rect x="446.333" y="-27.3333" width="41.6667" height="41.6667" rx="4.5977" stroke="#F0F0F0" stroke-width="0.431035"/>
<rect x="488" y="-27.3333" width="41.6667" height="41.6667" rx="4.5977" stroke="#F0F0F0" stroke-width="0.431035"/>
<rect x="529.667" y="-27.3333" width="41.6667" height="41.6667" rx="4.5977" stroke="#F0F0F0" stroke-width="0.431035"/>
<rect x="571.333" y="-27.3333" width="41.6667" height="41.6667" rx="4.5977" stroke="#F0F0F0" stroke-width="0.431035"/>
<rect x="446.333" y="14.3333" width="41.6667" height="41.6667" rx="4.5977" stroke="#F0F0F0" stroke-width="0.431035"/>
<rect x="488" y="14.3333" width="41.6667" height="41.6667" rx="4.5977" stroke="#F0F0F0" stroke-width="0.431035"/>
<rect x="529.667" y="14.3333" width="41.6667" height="41.6667" rx="4.5977" stroke="#F0F0F0" stroke-width="0.431035"/>
<rect x="571.333" y="14.3333" width="41.6667" height="41.6667" rx="4.5977" stroke="#F0F0F0" stroke-width="0.431035"/>
<rect x="446.333" y="56" width="41.6667" height="41.6667" rx="4.5977" stroke="#F0F0F0" stroke-width="0.431035"/>
<rect x="488" y="56" width="41.6667" height="41.6667" rx="4.5977" stroke="#F0F0F0" stroke-width="0.431035"/>
<rect x="529.667" y="56" width="41.6667" height="41.6667" rx="4.5977" stroke="#F0F0F0" stroke-width="0.431035"/>
<rect x="571.333" y="56" width="41.6667" height="41.6667" rx="4.5977" stroke="#F0F0F0" stroke-width="0.431035"/>
<rect x="446.333" y="97.6668" width="41.6667" height="41.6667" rx="4.5977" stroke="#F0F0F0" stroke-width="0.431035"/>
<rect x="488" y="97.6668" width="41.6667" height="41.6667" rx="4.5977" stroke="#F0F0F0" stroke-width="0.431035"/>
<rect x="529.667" y="97.6668" width="41.6667" height="41.6667" rx="4.5977" stroke="#F0F0F0" stroke-width="0.431035"/>
<rect x="571.333" y="97.6668" width="41.6667" height="41.6667" rx="4.5977" stroke="#F0F0F0" stroke-width="0.431035"/>
<rect x="446.333" y="139.333" width="41.6667" height="41.6667" rx="4.5977" stroke="#F0F0F0" stroke-width="0.431035"/>
<rect x="488" y="139.333" width="41.6667" height="41.6667" rx="4.5977" stroke="#F0F0F0" stroke-width="0.431035"/>
<rect x="529.667" y="139.333" width="41.6667" height="41.6667" rx="4.5977" stroke="#F0F0F0" stroke-width="0.431035"/>
<rect x="571.333" y="139.333" width="41.6667" height="41.6667" rx="4.5977" stroke="#F0F0F0" stroke-width="0.431035"/>
<rect x="446.333" y="181" width="41.6667" height="41.6667" rx="4.5977" stroke="#F0F0F0" stroke-width="0.431035"/>
<rect x="488" y="181" width="41.6667" height="41.6667" rx="4.5977" stroke="#F0F0F0" stroke-width="0.431035"/>
<rect x="529.667" y="181" width="41.6667" height="41.6667" rx="4.5977" stroke="#F0F0F0" stroke-width="0.431035"/>
<rect x="571.333" y="181" width="41.6667" height="41.6667" rx="4.5977" stroke="#F0F0F0" stroke-width="0.431035"/>
<path d="M529.667 -23.885V9.73568C529.667 12.2749 531.725 14.3334 534.264 14.3334H566.736C569.275 14.3334 571.333 16.3918 571.333 18.9311V51.4023C571.333 53.9416 573.392 56 575.931 56H608.402C610.942 56 613 58.0585 613 60.5977V93.069C613 95.6082 615.058 97.6667 617.598 97.6667H650.069C652.608 97.6667 654.667 99.7252 654.667 102.264V134.736C654.667 137.275 656.725 139.333 659.264 139.333H692.885M488 -23.885V9.73568C488 12.2749 490.058 14.3334 492.598 14.3334H525.069C527.608 14.3334 529.667 16.3918 529.667 18.9311V51.4023C529.667 53.9416 531.725 56 534.264 56H566.736C569.275 56 571.333 58.0585 571.333 60.5977V93.069C571.333 95.6082 569.275 97.6667 566.736 97.6667H534.264C531.725 97.6667 529.667 95.6082 529.667 93.069V60.023L529.626 59.7515C529.318 57.669 527.55 56.1141 525.446 56.0736L521.621 56H492.598C490.058 56 488 58.0585 488 60.5977V93.069C488 95.6082 490.058 97.6667 492.598 97.6667H525.356L526.448 97.7395C528.259 97.8602 529.667 99.3647 529.667 101.18V104.707M529.667 101.115V134.736C529.667 137.275 531.725 139.333 534.264 139.333H566.736C569.275 139.333 571.333 141.392 571.333 143.931V176.402C571.333 178.942 573.392 181 575.931 181H608.402C610.942 181 613 183.059 613 185.598V218.069C613 220.608 615.058 222.667 617.598 222.667H650.069C652.608 222.667 654.667 224.725 654.667 227.264V259.736C654.667 262.275 656.725 264.333 659.264 264.333H692.885" stroke="url(#paint16_linear_3043_594)" stroke-opacity="0.8" stroke-width="0.431035"/>
<rect x="363" y="233.621" width="233.621" height="125" transform="rotate(-90 363 233.621)" fill="url(#paint17_linear_3043_594)"/>
<rect x="596.621" y="264.368" width="233.621" height="125" transform="rotate(-180 596.621 264.368)" fill="url(#paint18_linear_3043_594)"/>
<ellipse cx="526.218" cy="-28.1609" rx="155.46" ry="132.471" fill="url(#paint19_radial_3043_594)"/>
</g>
<g clip-path="url(#clip5_3043_594)">
<rect width="233" height="317" transform="matrix(-1 0 0 1 941 0)" fill="white"/>
<rect width="41.6667" height="41.6667" rx="4.5977" transform="matrix(-1 0 0 1 967.667 -27.3333)" stroke="#F0F0F0" stroke-width="0.431035"/>
<rect width="41.6667" height="41.6667" rx="4.5977" transform="matrix(-1 0 0 1 926 -27.3333)" stroke="#F0F0F0" stroke-width="0.431035"/>
<rect width="41.6667" height="41.6667" rx="4.5977" transform="matrix(-1 0 0 1 884.333 -27.3333)" stroke="#F0F0F0" stroke-width="0.431035"/>
<rect width="41.6667" height="41.6667" rx="4.5977" transform="matrix(-1 0 0 1 842.667 -27.3333)" stroke="#F0F0F0" stroke-width="0.431035"/>
<rect width="41.6667" height="41.6667" rx="4.5977" transform="matrix(-1 0 0 1 967.667 14.3333)" stroke="#F0F0F0" stroke-width="0.431035"/>
<rect width="41.6667" height="41.6667" rx="4.5977" transform="matrix(-1 0 0 1 926 14.3333)" stroke="#F0F0F0" stroke-width="0.431035"/>
<rect width="41.6667" height="41.6667" rx="4.5977" transform="matrix(-1 0 0 1 884.333 14.3333)" stroke="#F0F0F0" stroke-width="0.431035"/>
<rect width="41.6667" height="41.6667" rx="4.5977" transform="matrix(-1 0 0 1 842.667 14.3333)" stroke="#F0F0F0" stroke-width="0.431035"/>
<rect width="41.6667" height="41.6667" rx="4.5977" transform="matrix(-1 0 0 1 967.667 56)" stroke="#F0F0F0" stroke-width="0.431035"/>
<rect width="41.6667" height="41.6667" rx="4.5977" transform="matrix(-1 0 0 1 926 56)" stroke="#F0F0F0" stroke-width="0.431035"/>
<rect width="41.6667" height="41.6667" rx="4.5977" transform="matrix(-1 0 0 1 884.333 56)" stroke="#F0F0F0" stroke-width="0.431035"/>
<rect width="41.6667" height="41.6667" rx="4.5977" transform="matrix(-1 0 0 1 842.667 56)" stroke="#F0F0F0" stroke-width="0.431035"/>
<rect width="41.6667" height="41.6667" rx="4.5977" transform="matrix(-1 0 0 1 967.667 97.6668)" stroke="#F0F0F0" stroke-width="0.431035"/>
<rect width="41.6667" height="41.6667" rx="4.5977" transform="matrix(-1 0 0 1 926 97.6668)" stroke="#F0F0F0" stroke-width="0.431035"/>
<rect width="41.6667" height="41.6667" rx="4.5977" transform="matrix(-1 0 0 1 884.333 97.6668)" stroke="#F0F0F0" stroke-width="0.431035"/>
<rect width="41.6667" height="41.6667" rx="4.5977" transform="matrix(-1 0 0 1 842.667 97.6668)" stroke="#F0F0F0" stroke-width="0.431035"/>
<rect width="41.6667" height="41.6667" rx="4.5977" transform="matrix(-1 0 0 1 967.667 139.333)" stroke="#F0F0F0" stroke-width="0.431035"/>
<rect width="41.6667" height="41.6667" rx="4.5977" transform="matrix(-1 0 0 1 926 139.333)" stroke="#F0F0F0" stroke-width="0.431035"/>
<rect width="41.6667" height="41.6667" rx="4.5977" transform="matrix(-1 0 0 1 884.333 139.333)" stroke="#F0F0F0" stroke-width="0.431035"/>
<rect width="41.6667" height="41.6667" rx="4.5977" transform="matrix(-1 0 0 1 842.667 139.333)" stroke="#F0F0F0" stroke-width="0.431035"/>
<rect width="41.6667" height="41.6667" rx="4.5977" transform="matrix(-1 0 0 1 967.667 181)" stroke="#F0F0F0" stroke-width="0.431035"/>
<rect width="41.6667" height="41.6667" rx="4.5977" transform="matrix(-1 0 0 1 926 181)" stroke="#F0F0F0" stroke-width="0.431035"/>
<rect width="41.6667" height="41.6667" rx="4.5977" transform="matrix(-1 0 0 1 884.333 181)" stroke="#F0F0F0" stroke-width="0.431035"/>
<rect width="41.6667" height="41.6667" rx="4.5977" transform="matrix(-1 0 0 1 842.667 181)" stroke="#F0F0F0" stroke-width="0.431035"/>
<path d="M884.333 -23.885V9.73568C884.333 12.2749 882.275 14.3334 879.736 14.3334H847.264C844.725 14.3334 842.667 16.3918 842.667 18.9311V51.4023C842.667 53.9416 840.608 56 838.069 56H805.598C803.058 56 801 58.0585 801 60.5977V93.069C801 95.6082 798.942 97.6667 796.402 97.6667H763.931C761.392 97.6667 759.333 99.7252 759.333 102.264V134.736C759.333 137.275 757.275 139.333 754.736 139.333H721.115M926 -23.885V9.73568C926 12.2749 923.942 14.3334 921.402 14.3334H888.931C886.392 14.3334 884.333 16.3918 884.333 18.9311V51.4023C884.333 53.9416 882.275 56 879.736 56H847.264C844.725 56 842.667 58.0585 842.667 60.5977V93.069C842.667 95.6082 844.725 97.6667 847.264 97.6667H879.736C882.275 97.6667 884.333 95.6082 884.333 93.069V60.023L884.374 59.7515C884.682 57.669 886.45 56.1141 888.554 56.0736L892.379 56H921.402C923.942 56 926 58.0585 926 60.5977V93.069C926 95.6082 923.942 97.6667 921.402 97.6667H888.644L887.552 97.7395C885.741 97.8602 884.333 99.3647 884.333 101.18V104.707M884.333 101.115V134.736C884.333 137.275 882.275 139.333 879.736 139.333H847.264C844.725 139.333 842.667 141.392 842.667 143.931V176.402C842.667 178.942 840.608 181 838.069 181H805.598C803.058 181 801 183.059 801 185.598V218.069C801 220.608 798.942 222.667 796.402 222.667H763.931C761.392 222.667 759.333 224.725 759.333 227.264V259.736C759.333 262.275 757.275 264.333 754.736 264.333H721.115" stroke="url(#paint20_linear_3043_594)" stroke-opacity="0.8" stroke-width="0.431035"/>
<rect width="233.621" height="125" transform="matrix(0 -1 -1 0 1051 233.621)" fill="url(#paint21_linear_3043_594)"/>
<rect width="233.621" height="125" transform="matrix(1 0 0 -1 817.379 264.368)" fill="url(#paint22_linear_3043_594)"/>
<ellipse cx="155.46" cy="132.471" rx="155.46" ry="132.471" transform="matrix(-1 0 0 1 1043.24 -160.632)" fill="url(#paint23_radial_3043_594)"/>
</g>
<defs>
<linearGradient id="paint0_linear_3043_594" x1="125" y1="-23.885" x2="325.287" y2="223.96" gradientUnits="userSpaceOnUse">
<stop offset="0.0819437" stop-color="#F7F7F7"/>
<stop offset="0.208333" stop-color="#12C2E9"/>
<stop offset="0.526042" stop-color="#C471ED"/>
<stop offset="0.9375" stop-color="#F64F59"/>
</linearGradient>
<linearGradient id="paint1_linear_3043_594" x1="116.81" y1="233.621" x2="116.81" y2="358.621" gradientUnits="userSpaceOnUse">
<stop stop-color="white"/>
<stop offset="1" stop-color="white" stop-opacity="0"/>
</linearGradient>
<linearGradient id="paint2_linear_3043_594" x1="350.431" y1="264.368" x2="350.431" y2="389.368" gradientUnits="userSpaceOnUse">
<stop stop-color="white"/>
<stop offset="0.713542" stop-color="white" stop-opacity="0.7"/>
<stop offset="1" stop-color="white" stop-opacity="0"/>
</linearGradient>
<radialGradient id="paint3_radial_3043_594" cx="0" cy="0" r="1" gradientUnits="userSpaceOnUse" gradientTransform="translate(163.218 -28.1609) rotate(90) scale(132.471 155.46)">
<stop stop-color="white"/>
<stop offset="1" stop-color="white" stop-opacity="0"/>
</radialGradient>
<linearGradient id="paint4_linear_3043_594" x1="1315" y1="-23.885" x2="1114.71" y2="223.96" gradientUnits="userSpaceOnUse">
<stop offset="0.0819437" stop-color="#F7F7F7"/>
<stop offset="0.208333" stop-color="#12C2E9"/>
<stop offset="0.526042" stop-color="#C471ED"/>
<stop offset="0.9375" stop-color="#F64F59"/>
</linearGradient>
<linearGradient id="paint5_linear_3043_594" x1="116.81" y1="0" x2="116.81" y2="125" gradientUnits="userSpaceOnUse">
<stop stop-color="white"/>
<stop offset="1" stop-color="white" stop-opacity="0"/>
</linearGradient>
<linearGradient id="paint6_linear_3043_594" x1="116.81" y1="0" x2="116.81" y2="125" gradientUnits="userSpaceOnUse">
<stop stop-color="white"/>
<stop offset="0.713542" stop-color="white" stop-opacity="0.7"/>
<stop offset="1" stop-color="white" stop-opacity="0"/>
</linearGradient>
<radialGradient id="paint7_radial_3043_594" cx="0" cy="0" r="1" gradientUnits="userSpaceOnUse" gradientTransform="translate(155.46 132.471) rotate(90) scale(132.471 155.46)">
<stop stop-color="white"/>
<stop offset="1" stop-color="white" stop-opacity="0"/>
</radialGradient>
<linearGradient id="paint8_linear_3043_594" x1="357" y1="93.115" x2="557.287" y2="340.96" gradientUnits="userSpaceOnUse">
<stop offset="0.0819437" stop-color="#F7F7F7"/>
<stop offset="0.208333" stop-color="#12C2E9"/>
<stop offset="0.526042" stop-color="#C471ED"/>
<stop offset="0.9375" stop-color="#F64F59"/>
</linearGradient>
<linearGradient id="paint9_linear_3043_594" x1="348.81" y1="350.621" x2="348.81" y2="475.621" gradientUnits="userSpaceOnUse">
<stop stop-color="white"/>
<stop offset="1" stop-color="white" stop-opacity="0"/>
</linearGradient>
<linearGradient id="paint10_linear_3043_594" x1="582.431" y1="381.368" x2="582.431" y2="506.368" gradientUnits="userSpaceOnUse">
<stop stop-color="white"/>
<stop offset="0.713542" stop-color="white" stop-opacity="0.7"/>
<stop offset="1" stop-color="white" stop-opacity="0"/>
</linearGradient>
<radialGradient id="paint11_radial_3043_594" cx="0" cy="0" r="1" gradientUnits="userSpaceOnUse" gradientTransform="translate(395.218 88.8391) rotate(90) scale(132.471 155.46)">
<stop stop-color="white"/>
<stop offset="1" stop-color="white" stop-opacity="0"/>
</radialGradient>
<linearGradient id="paint12_linear_3043_594" x1="1057" y1="93.115" x2="856.713" y2="340.96" gradientUnits="userSpaceOnUse">
<stop offset="0.0819437" stop-color="#F7F7F7"/>
<stop offset="0.208333" stop-color="#12C2E9"/>
<stop offset="0.526042" stop-color="#C471ED"/>
<stop offset="0.9375" stop-color="#F64F59"/>
</linearGradient>
<linearGradient id="paint13_linear_3043_594" x1="116.81" y1="0" x2="116.81" y2="125" gradientUnits="userSpaceOnUse">
<stop stop-color="white"/>
<stop offset="1" stop-color="white" stop-opacity="0"/>
</linearGradient>
<linearGradient id="paint14_linear_3043_594" x1="116.81" y1="0" x2="116.81" y2="125" gradientUnits="userSpaceOnUse">
<stop stop-color="white"/>
<stop offset="0.713542" stop-color="white" stop-opacity="0.7"/>
<stop offset="1" stop-color="white" stop-opacity="0"/>
</linearGradient>
<radialGradient id="paint15_radial_3043_594" cx="0" cy="0" r="1" gradientUnits="userSpaceOnUse" gradientTransform="translate(155.46 132.471) rotate(90) scale(132.471 155.46)">
<stop stop-color="white"/>
<stop offset="1" stop-color="white" stop-opacity="0"/>
</radialGradient>
<linearGradient id="paint16_linear_3043_594" x1="488" y1="-23.885" x2="688.287" y2="223.96" gradientUnits="userSpaceOnUse">
<stop offset="0.0819437" stop-color="#F7F7F7"/>
<stop offset="0.208333" stop-color="#12C2E9"/>
<stop offset="0.526042" stop-color="#C471ED"/>
<stop offset="0.9375" stop-color="#F64F59"/>
</linearGradient>
<linearGradient id="paint17_linear_3043_594" x1="479.81" y1="233.621" x2="479.81" y2="358.621" gradientUnits="userSpaceOnUse">
<stop stop-color="white"/>
<stop offset="1" stop-color="white" stop-opacity="0"/>
</linearGradient>
<linearGradient id="paint18_linear_3043_594" x1="713.431" y1="264.368" x2="713.431" y2="389.368" gradientUnits="userSpaceOnUse">
<stop stop-color="white"/>
<stop offset="0.713542" stop-color="white" stop-opacity="0.7"/>
<stop offset="1" stop-color="white" stop-opacity="0"/>
</linearGradient>
<radialGradient id="paint19_radial_3043_594" cx="0" cy="0" r="1" gradientUnits="userSpaceOnUse" gradientTransform="translate(526.218 -28.1609) rotate(90) scale(132.471 155.46)">
<stop stop-color="white"/>
<stop offset="1" stop-color="white" stop-opacity="0"/>
</radialGradient>
<linearGradient id="paint20_linear_3043_594" x1="926" y1="-23.885" x2="725.713" y2="223.96" gradientUnits="userSpaceOnUse">
<stop offset="0.0819437" stop-color="#F7F7F7"/>
<stop offset="0.208333" stop-color="#12C2E9"/>
<stop offset="0.526042" stop-color="#C471ED"/>
<stop offset="0.9375" stop-color="#F64F59"/>
</linearGradient>
<linearGradient id="paint21_linear_3043_594" x1="116.81" y1="0" x2="116.81" y2="125" gradientUnits="userSpaceOnUse">
<stop stop-color="white"/>
<stop offset="1" stop-color="white" stop-opacity="0"/>
</linearGradient>
<linearGradient id="paint22_linear_3043_594" x1="116.81" y1="0" x2="116.81" y2="125" gradientUnits="userSpaceOnUse">
<stop stop-color="white"/>
<stop offset="0.713542" stop-color="white" stop-opacity="0.7"/>
<stop offset="1" stop-color="white" stop-opacity="0"/>
</linearGradient>
<radialGradient id="paint23_radial_3043_594" cx="0" cy="0" r="1" gradientUnits="userSpaceOnUse" gradientTransform="translate(155.46 132.471) rotate(90) scale(132.471 155.46)">
<stop stop-color="white"/>
<stop offset="1" stop-color="white" stop-opacity="0"/>
</radialGradient>
<clipPath id="clip0_3043_594">
<rect width="343" height="317" fill="white"/>
</clipPath>
<clipPath id="clip1_3043_594">
<rect width="343" height="317" fill="white" transform="matrix(-1 0 0 1 1440 0)"/>
</clipPath>
<clipPath id="clip2_3043_594">
<rect width="233" height="317" fill="white" transform="translate(342 117)"/>
</clipPath>
<clipPath id="clip3_3043_594">
<rect width="233" height="317" fill="white" transform="matrix(-1 0 0 1 1072 117)"/>
</clipPath>
<clipPath id="clip4_3043_594">
<rect width="233" height="317" fill="white" transform="translate(473)"/>
</clipPath>
<clipPath id="clip5_3043_594">
<rect width="233" height="317" fill="white" transform="matrix(-1 0 0 1 941 0)"/>
</clipPath>
</defs>
</svg>
