<svg width="292" height="70" viewBox="0 0 292 70" fill="none" xmlns="http://www.w3.org/2000/svg">
<g clip-path="url(#clip0_797_589)">
<path d="M251.401 0C236.232 0 223.74 12.2222 223.74 27.5556C223.74 42.6667 236.009 55.1111 251.401 55.1111C266.57 55.1111 279.062 42.8889 279.062 27.5556C279.062 12.2222 266.57 0 251.401 0ZM272.816 12.2222C271.477 13.1111 269.916 14 268.354 14.8889C267.462 13.1111 266.347 11.3333 265.008 9.77778C266.124 9.11111 267.239 8.22222 268.131 7.55556C270.139 8.66667 271.701 10.4444 272.816 12.2222ZM261.216 3.11111C263.447 4 265.455 5.11111 267.462 6.66667C266.57 7.55556 265.455 8.22222 264.339 8.88889C263.001 7.33333 261.439 6 259.878 4.66667C260.324 4 260.77 3.55556 261.216 3.11111ZM263.447 9.33333C261.885 10.2222 260.324 10.6667 258.762 11.3333C258.093 9.77778 257.424 8.22222 256.532 6.88889C257.424 6.44444 258.316 6 258.985 5.33333C260.547 6.44444 262.108 7.77778 263.447 9.33333ZM260.101 2.66667C259.655 3.11111 259.209 3.55556 258.985 4C257.424 3.11111 256.086 2.22222 254.301 1.55556C256.309 1.55556 258.316 2 260.101 2.66667ZM258.093 4.66667C257.424 5.11111 256.755 5.55555 256.086 5.77778C255.193 4.44444 254.301 3.33333 253.409 2C254.97 2.66667 256.532 3.55556 258.093 4.66667ZM251.847 2.22222C252.963 3.33333 253.855 4.66667 254.747 6.22222C253.855 6.44444 252.963 6.66667 251.847 6.66667V2.22222ZM251.847 7.77778C252.963 7.77778 254.301 7.55556 255.416 7.11111C256.309 8.44444 256.978 10 257.647 11.5556C255.862 12 253.855 12.2222 251.847 12.4444V7.77778ZM250.732 2.22222V6.66667C249.84 6.66667 248.947 6.44444 247.832 6.22222C248.947 4.88889 249.84 3.55556 250.732 2.22222ZM246.94 5.77778C246.27 5.55555 245.378 5.11111 244.932 4.66667C246.493 3.77778 248.055 2.88889 249.616 2.22222C248.501 3.33333 247.609 4.44444 246.94 5.77778ZM248.501 1.33333C246.94 2 245.378 2.88889 243.817 3.77778C243.37 3.33333 242.924 2.88889 242.701 2.44444C244.486 2 246.493 1.55556 248.501 1.33333ZM267.462 48.4444C263.893 46.4444 263.67 43.5556 263.893 42.6667C264.116 41.5556 264.785 42 265.231 42C267.685 42 270.139 41.3333 273.262 38C276.831 34.4444 277.946 26.4444 272.37 21.3333C266.57 15.7778 260.324 16.6667 256.309 21.7778C255.416 22.8889 253.409 23.5556 251.847 23.5556C249.17 23.5556 250.955 25.5556 250.955 26C250.955 26.4444 250.509 26.6667 250.286 26.6667C249.393 26.4444 249.84 27.7778 249.84 28C249.84 28.2222 249.393 28.6667 249.393 28.6667C248.278 28.6667 248.501 29.5556 248.724 30C248.724 30.2222 248.724 30.6667 248.278 30.8889C247.832 31.1111 247.609 32 247.609 32.6667C247.609 33.7778 248.724 34.6667 250.509 36C252.293 37.3333 252.516 38.6667 252.516 39.5555C252.516 40.4444 252.739 42 252.963 42.8889C253.409 44 253.409 46.2222 250.955 46.2222C247.832 46.4444 242.478 48.6667 242.032 48.8889C240.247 49.5556 238.017 49.7778 236.232 49.3333C235.34 48.6667 234.448 48 233.555 47.1111C233.109 46 233.778 44.6667 234.448 43.7778C235.563 44.8889 236.901 44.6667 237.794 44.6667C238.686 44.6667 242.701 44 243.37 43.7778C244.04 43.5556 244.263 43.5556 244.486 43.7778C246.047 44.4444 248.278 44.4444 249.17 41.5556C250.063 38.4444 248.055 39.3333 247.609 39.5555C247.386 39.7778 246.94 39.5556 247.163 39.3333C247.609 38.6667 246.94 38.6667 246.717 38.6667C245.824 38.6667 244.709 39.5556 244.486 39.7778C244.04 40 243.817 40 243.594 40C242.478 39.3333 239.132 40.2222 238.017 38.4444C238.017 38 237.124 30.6667 236.678 29.3333C236.678 29.1111 236.455 28.6667 236.901 28.2222C237.794 26.8889 240.024 28.2222 241.363 28.2222C242.924 28.2222 243.147 27.5556 243.594 27.1111C244.04 26.6667 244.263 26.8889 244.486 26.6667C244.709 26.4444 244.486 26.2222 244.486 26C244.486 25.7778 244.709 26 244.932 25.7778C245.155 25.5556 244.932 25.1111 244.932 24.8889C245.378 24.2222 246.27 24.6667 245.824 23.3333C245.601 22.4444 246.047 21.5556 246.493 21.1111C247.163 20.2222 250.063 16.2222 245.155 12C240.471 8 235.563 8.44444 232.44 11.7778C229.317 15.1111 230.878 20 231.102 21.3333C231.325 22.6667 230.432 23.7778 229.317 24.2222C228.425 24.6667 226.417 26 225.079 27.1111C225.302 16.4444 231.771 7.11111 241.586 3.33333C242.032 3.77778 242.478 4.44444 242.924 4.88889C241.809 5.77778 239.355 7.77778 239.355 7.77778C239.355 7.77778 239.578 7.77778 240.024 8C240.247 8 240.694 8.22222 240.694 8.22222C240.694 8.22222 242.701 6.44444 243.817 5.77778C244.486 6.44444 245.378 6.88889 246.27 7.33333C245.824 8.22222 244.486 10.4444 244.486 10.4444C244.486 10.4444 244.709 10.6667 244.932 10.6667C245.155 10.8889 245.378 10.8889 245.378 10.8889C245.378 10.8889 246.717 8.44444 247.163 7.55556C248.278 8 249.393 8.22222 250.509 8.22222V12.6667C249.84 12.6667 248.278 12.6667 247.609 12.4444H247.163L247.386 12.8889C247.609 13.1111 247.609 13.3333 247.832 13.5556C248.278 13.5556 249.84 13.5556 250.509 13.5556V21.7778H251.624V19.7778C253.409 19.7778 254.747 19.5556 256.309 19.3333L257.87 18H256.978C255.193 18.2222 253.632 18.4444 252.293 18.4444C252.293 18.4444 251.847 18.4444 251.624 18.4444V13.3333C253.632 13.3333 255.862 13.1111 257.87 12.4444C258.316 13.7778 259.432 17.1111 259.432 17.1111L260.547 16.6667C260.547 16.6667 259.432 13.3333 258.985 12C260.77 11.5556 262.332 10.6667 263.893 10C265.231 11.5556 266.347 13.3333 267.239 15.1111C266.347 15.5556 265.008 16 265.008 16C266.124 16.2222 267.016 16.4444 267.016 16.4444C267.016 16.4444 267.462 16.2222 267.685 16.2222C267.685 16.4444 267.908 16.8889 267.908 16.8889L269.47 17.5556L269.247 17.1111C269.247 17.1111 268.801 16 268.578 15.7778C270.139 15.1111 271.701 14.2222 273.262 13.1111C276.162 17.3333 277.5 22.4444 277.5 27.5556C277.946 36 273.708 43.5555 267.462 48.4444Z" fill="#009EDB"/>
<path d="M221.287 7.33331L220.841 7.77775C219.279 9.11108 215.487 12.8889 216.157 17.1111V17.3333L216.38 18.2222L216.826 17.7778C219.056 15.7778 220.841 12.2222 221.51 8.2222L221.733 7.11108L221.287 7.33331Z" fill="#009EDB"/>
<path d="M213.703 14.4444L213.48 14.8888C213.256 15.5555 212.81 17.1111 212.587 18.8888C212.141 21.5555 212.364 25.5555 214.595 28.4444L214.818 28.8888L215.041 29.3333L215.487 27.5555C215.933 24.4444 215.264 17.9999 214.149 15.1111L213.703 14.2222V14.4444Z" fill="#009EDB"/>
<path d="M211.025 25.5556V26C210.802 28.6667 211.025 35.5556 216.601 39.3334L217.271 39.7778V38.8889C217.271 36.2222 214.148 28.4445 211.917 25.7778L211.248 24.8889L211.025 25.5556Z" fill="#009EDB"/>
<path d="M211.918 37.7777V38.2221C212.81 42.2221 216.379 48.4444 222.179 50.4444L223.072 50.6666L222.848 49.7777C221.733 46.8888 216.156 39.9999 212.587 37.7777L211.918 37.3333V37.7777Z" fill="#009EDB"/>
<path d="M223.739 13.3333L223.07 13.5555C218.832 16.2222 216.824 19.3333 216.824 23.3333V24.2222L217.493 23.7778C219.724 21.7778 222.847 16.8889 223.516 14.2222L223.739 13.1111V13.3333Z" fill="#009EDB"/>
<path d="M221.064 21.7779L220.841 22.2223C219.725 23.3334 216.156 27.1112 216.379 31.7779C216.379 32.4446 216.602 33.3334 216.825 34.0001L217.048 34.6668L217.495 34.0001C219.279 31.5557 221.51 25.3334 221.287 22.4446V21.5557L221.064 21.7779Z" fill="#009EDB"/>
<path d="M221.286 30.0001L221.063 30.4445C219.279 33.1112 218.386 35.7778 218.386 38.4445C218.386 40.2223 219.056 42.0001 220.171 43.7778L220.617 44.4445L220.84 43.7778C221.509 42.2223 222.179 37.5556 222.179 33.7778C222.179 32.4445 221.956 31.3334 221.733 30.6667L221.509 29.7778L221.286 30.0001Z" fill="#009EDB"/>
<path d="M223.293 38.6666L223.07 39.1111C222.624 40.8888 222.178 42.4444 222.401 44.2222C222.401 47.7777 224.186 50.6666 227.309 52.6666L227.755 52.8888L227.978 52.2222V51.5555C227.978 48.6666 225.747 41.1111 223.963 38.8888L223.516 38.2222L223.293 38.6666Z" fill="#009EDB"/>
<path d="M217.272 50.2222L217.495 50.6667C219.726 54.4444 223.741 59.5556 231.102 58.2222H231.772L231.325 57.7778C229.987 55.7778 221.064 50.6667 217.941 50.2222L217.049 50L217.272 50.2222Z" fill="#009EDB"/>
<path d="M228.201 60.0001L227.086 60.2223L228.201 60.6667C232.886 62.6667 238.686 63.1112 242.255 62.0001C243.593 61.5556 244.262 60.889 245.155 60.0001C251.178 60.6667 256.754 65.5556 260.1 69.5556L260.324 69.7779H260.547C260.993 69.5556 261.439 69.1112 261.662 68.889L261.885 68.6667L261.662 68.4445C258.316 64.0001 252.962 61.3334 252.739 61.1112C247.832 58.889 239.355 57.1112 228.201 60.0001Z" fill="#009EDB"/>
<path d="M228.424 47.5555V47.9999C229.093 52.4444 230.878 58.2221 238.462 57.5555H238.909L238.686 57.111C238.239 55.111 231.324 49.3333 228.87 47.7777L228.201 47.3333L228.424 47.5555Z" fill="#009EDB"/>
<path d="M281.07 6.88892L281.293 8.00003C281.963 12 283.747 15.5556 285.978 17.5556L286.424 18L286.647 17.1111V16.8889C287.316 12.6667 283.524 8.88892 281.963 7.55558L281.516 7.11114L281.07 6.88892Z" fill="#009EDB"/>
<path d="M288.877 14L288.431 14.8889C287.316 17.7778 286.87 24.2222 287.093 27.3333L287.539 29.1111L287.762 28.8889L287.985 28.4444C290.439 25.5556 290.439 21.7778 289.993 18.8889C289.77 16.8889 289.324 15.5556 289.101 14.8889L288.877 14.4444V14Z" fill="#009EDB"/>
<path d="M291.777 25.1111L291.108 26C288.877 28.8889 285.754 36.4444 285.754 39.1111V40L286.423 39.5555C292 36 292.223 29.1111 292 26.2222V25.7778L291.777 25.1111Z" fill="#009EDB"/>
<path d="M290.884 37.3333L289.992 37.7777C286.423 39.9999 280.846 46.8888 279.731 49.7777L279.508 50.6666L280.4 50.4444C286.2 48.6666 289.992 42.2221 290.661 38.2221V37.7777L290.884 37.3333Z" fill="#009EDB"/>
<path d="M279.062 12.8889L279.286 14C280.178 16.8889 282.855 21.7778 285.308 23.7778L285.978 24.2222V23.3334C286.201 19.3334 284.193 16.2222 279.955 13.5556L279.509 13.3334L279.062 12.8889Z" fill="#009EDB"/>
<path d="M281.516 21.5557V22.4446C281.293 25.3334 283.747 31.7779 285.308 34.0001L285.755 34.6668L285.978 34.0001C286.201 33.1112 286.424 32.4446 286.424 31.7779C286.647 27.1112 283.078 23.3334 281.962 22.2223L281.739 22.0001L281.516 21.5557Z" fill="#009EDB"/>
<path d="M281.292 29.5557L281.069 30.4446C280.846 31.1112 280.623 32.2223 280.623 33.5557C280.623 37.3334 281.069 42.0001 281.961 43.5557L282.185 44.2223L282.631 43.5557C283.746 42.0001 284.415 40.2223 284.415 38.2223C284.415 35.7779 283.523 32.889 281.738 30.2223L281.515 29.7779L281.292 29.5557Z" fill="#009EDB"/>
<path d="M279.286 38.2222L278.84 38.8888C277.055 41.1111 274.824 48.6666 274.824 51.5555C274.824 51.5555 274.824 51.9999 274.824 52.2222L275.047 52.8888L275.493 52.6666C278.616 50.6666 280.178 47.7777 280.401 44.2222C280.401 42.6666 280.178 40.8888 279.732 39.1111L279.509 38.6666L279.286 38.2222Z" fill="#009EDB"/>
<path d="M285.754 49.7778L284.862 50.0001C281.739 50.4445 272.816 55.5556 271.477 57.5556L271.031 58.0001H271.7C279.062 59.3334 283.077 54.2223 285.308 50.4445L285.531 50.0001L285.754 49.7778Z" fill="#009EDB"/>
<path d="M250.287 61.1112C250.063 61.1112 244.71 64.0001 241.364 68.4445L241.141 68.6667L241.364 68.889C241.587 69.1112 242.256 69.5556 242.479 69.7779H242.702L242.925 69.5556C246.271 65.5556 251.848 60.4445 257.871 60.0001C258.763 60.889 259.656 61.5556 260.771 62.0001C264.117 63.1112 270.14 62.6667 274.824 60.6667L275.94 60.2223L274.824 60.0001C263.448 57.1112 254.971 58.889 250.287 61.1112Z" fill="#009EDB"/>
<path d="M274.377 47.1111L273.708 47.5555C271.254 49.1111 264.562 54.8889 263.893 56.8889L263.67 57.3333H264.116C271.477 58 273.262 52.2222 274.154 47.7777V47.3333L274.377 47.1111Z" fill="#009EDB"/>
<path d="M86.1055 2.66663H95.4745V11.1111H86.1055V2.66663ZM86.9978 20.8888H94.8052V62.2222H86.9978V20.8888Z" fill="#009EDB"/>
<path d="M27.8839 20.8889H35.6914V62.2222H28.107V56.2222H27.8839C24.7609 61.3334 19.4072 63.5556 13.6073 63.5556C4.90756 63.5556 0 56.8889 0 48.6667V20.8889H7.80749V45.3334C7.80749 52.4445 9.36899 57.7778 16.9534 57.7778C20.0764 57.7778 24.5378 56.2222 26.0993 51.7778C27.6608 48 27.6608 43.1111 27.6608 42V20.8889H27.8839Z" fill="#009EDB"/>
<path d="M51.3055 26.889C54.2055 21.7779 59.7822 19.5557 64.0206 19.5557C66.9205 19.5557 79.6356 20.2223 79.6356 33.5557V62.0001H71.8281V36.0001C71.8281 29.1112 68.9281 25.5557 62.236 25.5557C62.236 25.5557 57.9977 25.3334 54.6516 28.6668C53.5362 29.7779 51.3055 31.5557 51.3055 39.7779V62.2223H43.498V20.889H51.3055V26.889Z" fill="#009EDB"/>
<path d="M127.597 34.0001C127.151 28.889 124.698 25.3334 119.121 25.3334C111.759 25.3334 108.86 31.7779 108.86 41.3334C108.86 50.889 111.759 57.3334 119.121 57.3334C124.251 57.3334 127.374 54.0001 127.821 48.0001H135.628C134.959 57.3334 128.044 62.889 118.898 62.889C105.737 62.889 100.383 53.5557 100.383 41.5557C100.383 29.5557 106.406 19.5557 119.567 19.5557C128.267 19.5557 134.736 25.1112 135.182 34.0001H127.597Z" fill="#009EDB"/>
<path d="M147.226 42.8889C146.557 50.0001 149.68 57.5556 157.488 57.5556C163.51 57.5556 166.633 55.1112 167.526 49.1112H175.779C174.441 58.4445 167.303 63.1112 157.488 63.1112C144.326 63.1112 138.973 53.7778 138.973 41.7778C138.973 29.7778 144.996 19.7778 158.157 19.7778C170.426 20.0001 176.226 27.7778 176.226 39.1112V42.8889H147.226ZM168.195 37.5556C168.418 30.6667 165.295 25.3334 157.711 25.3334C151.242 25.3334 147.449 30.8889 147.449 37.5556H168.195Z" fill="#009EDB"/>
<path d="M185.148 61.7779V26.2223H178.01V20.889H185.148V12.0001C185.371 3.11119 192.286 0.666748 198.086 0.666748C199.871 0.666748 201.878 1.11119 203.663 1.55564V8.00008C202.325 8.00008 200.986 7.77786 199.648 7.77786C195.186 7.77786 192.732 8.88897 192.956 13.3334V20.889H202.548V26.2223H192.956V61.7779H185.148Z" fill="#009EDB"/>
</g>
<defs>
<clipPath id="clip0_797_589">
<rect width="292" height="70" fill="white"/>
</clipPath>
</defs>
</svg>
