<svg width="61" height="59" viewBox="0 0 61 59" fill="none" xmlns="http://www.w3.org/2000/svg">
<path fill-rule="evenodd" clip-rule="evenodd" d="M24.3921 34.5629C23.4371 29.4123 20.2079 25.636 16.1309 22.3777C19.7411 28.1449 22.0795 34.4131 22.0152 41.6061C23.6227 40.0676 25.2758 38.5733 26.9745 37.1233C26.5463 36.0187 25.9981 34.8798 25.4157 33.7452C25.073 34.0149 24.7304 34.2846 24.3921 34.5629Z" fill="#AED13F"/>
<path fill-rule="evenodd" clip-rule="evenodd" d="M29.7426 33.3213C27.854 29.4893 22.5221 24.8267 18.582 23.1955C22.7148 26.9118 27.1945 34.6999 28.7405 40.3772C29.794 38.5847 30.9246 36.8264 32.1324 35.1024C31.5713 34.2461 30.9546 33.3898 30.2951 32.5677C30.1109 32.8075 29.9268 33.0644 29.7426 33.3213Z" fill="#AED13F"/>
<path fill-rule="evenodd" clip-rule="evenodd" d="M56.5688 12.5859C54.2476 17.1671 51.9221 18.0576 49.9649 18.0576C49.3466 18.0418 48.7306 17.9745 48.1234 17.8564C47.0013 17.6637 46.0634 17.4968 45.3996 18.1476C39.0185 24.3558 37.3268 29.575 34.3932 38.0781C31.7551 32.8289 25.8279 26.0898 21.0527 23.2897C25.2369 24.1032 31.3782 27.5969 33.9864 30.9964C36.436 24.8653 38.9756 21.8083 44.5345 18.0491C45.3911 17.4026 46.2476 16.7646 47.1041 16.2166C47.5324 15.934 47.9607 15.6771 48.3889 15.4288C49.2993 14.8916 50.2569 14.4388 51.2497 14.0758C50.1975 14.3194 49.1872 14.7176 48.2519 15.2575C47.8236 15.493 47.3953 15.7542 46.9671 16.0325C46.1876 16.5334 45.4082 17.0815 44.5559 17.6423C45.147 16.5976 45.6737 15.7071 46.1577 14.9664C46.4617 14.4868 46.7529 14.0715 47.0142 13.7076C50.0592 9.64016 51.2883 11.9436 56.5688 12.5859Z" fill="#AED13F"/>
<path d="M30.2224 37.2986C20.832 33.6157 9.14258 35.3218 9.14258 35.3218L9.43158 36.1125C10.976 40.0867 13.6353 43.5344 17.0923 46.0443C20.5493 48.5542 24.658 50.0205 28.9283 50.2681C29.3597 50.2939 29.791 50.3068 30.2224 50.3068C34.5753 50.3069 38.833 49.0373 42.4702 46.6546C46.1073 44.272 48.9647 40.8806 50.6897 36.8989C50.8018 36.6411 50.9096 36.3789 51.0132 36.1125C51.1253 35.8289 51.2288 35.5366 51.3281 35.253C41.502 35.2272 34.6221 36.293 30.2224 37.2986Z" fill="#196444"/>
<path d="M9.35742 35.4835C9.35742 35.4835 20.9634 33.7708 30.2868 37.453" stroke="white" stroke-width="0.5" stroke-miterlimit="10"/>
<path d="M24.1191 39.4653C24.1191 39.4653 31.9778 35.4064 51.2498 35.4064" stroke="white" stroke-width="0.5" stroke-miterlimit="10"/>
<path d="M9.64258 36.2713C9.64258 36.2713 18.0751 36.2156 29.9595 41.94" stroke="white" stroke-width="0.5" stroke-miterlimit="10"/>
<path d="M19.4199 47.4717C19.4199 47.4717 32.2679 38.549 50.9317 36.2713" stroke="white" stroke-width="0.5" stroke-miterlimit="10"/>
<path d="M10.041 37.0548C10.041 37.0548 15.5871 38.3735 24.5164 44.5046" stroke="white" stroke-width="0.5" stroke-miterlimit="10"/>
<path d="M29.002 50.3746C29.002 50.3746 39.9227 40.5999 50.6122 37.0548" stroke="white" stroke-width="0.5" stroke-miterlimit="10"/>
<path d="M5.32198 37.8146L5.21198 37.5552L7.57374 37.4395L7.68205 37.6949L5.9566 39.3113L5.8466 39.0519L7.30798 37.7122L7.30121 37.6962L5.32198 37.8146ZM6.16088 37.5721L6.60427 38.6178L6.38474 38.7108L5.94135 37.6651L6.16088 37.5721Z" fill="white"/>
<path d="M7.84118 42.9719L9.66274 41.6838L9.81877 41.9043L8.19288 43.054L8.79185 43.9006L8.59618 44.039L7.84118 42.9719Z" fill="white"/>
<path d="M12.2084 45.5497L12.3721 45.3762L13.5841 46.5192L13.4203 46.6927L12.9122 46.2135L11.5515 47.6555L11.3558 47.4709L12.7165 46.0289L12.2084 45.5497Z" fill="white"/>
<path d="M17.4441 50.2963C17.4599 50.2208 17.4652 50.1482 17.4602 50.0784C17.4561 50.0083 17.4411 49.9419 17.4152 49.8793C17.3899 49.8171 17.3534 49.7597 17.3057 49.7072C17.2581 49.6547 17.1993 49.6084 17.1295 49.5683C17.015 49.5025 16.8939 49.4723 16.7662 49.4775C16.6384 49.4828 16.5138 49.5271 16.3923 49.6104C16.2707 49.6937 16.1619 49.819 16.0657 49.9863C15.9695 50.1536 15.9163 50.3109 15.9061 50.4582C15.896 50.6055 15.9217 50.7362 15.9833 50.8502C16.045 50.9643 16.1355 51.0557 16.2551 51.1244C16.3658 51.188 16.4769 51.2204 16.5883 51.2217C16.7007 51.2227 16.8054 51.1933 16.9025 51.1336C17.0006 51.0736 17.0836 50.9845 17.1516 50.8663L17.2146 50.9226L16.6333 50.5886L16.7527 50.381L17.4887 50.8039L17.3694 51.0115C17.2779 51.1706 17.1644 51.2895 17.0288 51.3681C16.8939 51.447 16.7484 51.4848 16.5922 51.4812C16.4371 51.4774 16.2827 51.4314 16.1292 51.3432C15.9581 51.2449 15.8309 51.1183 15.7476 50.9633C15.6649 50.8087 15.6301 50.6364 15.6431 50.4464C15.6567 50.2567 15.7221 50.06 15.8392 49.8562C15.9271 49.7033 16.0265 49.5776 16.1376 49.4791C16.2496 49.3803 16.3682 49.3095 16.4932 49.2667C16.6182 49.2239 16.7455 49.2092 16.8751 49.2225C17.0047 49.2359 17.1314 49.2782 17.2553 49.3494C17.3572 49.408 17.4434 49.4779 17.5137 49.5594C17.5851 49.6405 17.6393 49.729 17.6763 49.8247C17.7143 49.9202 17.7343 50.02 17.7364 50.1241C17.7389 50.2276 17.7219 50.3313 17.6857 50.4351L17.4441 50.2963Z" fill="white"/>
<path d="M21.029 53.8127L21.6574 51.6823L22.3773 51.8945C22.5437 51.9436 22.672 52.0123 22.762 52.1006C22.8523 52.1883 22.9085 52.2889 22.9308 52.4025C22.9531 52.5161 22.9457 52.6357 22.9087 52.7612C22.8716 52.8868 22.8131 52.9905 22.7332 53.0725C22.6532 53.1544 22.552 53.2075 22.4295 53.2317C22.3072 53.2552 22.1636 53.2426 21.9985 53.194L21.4159 53.0222L21.4847 52.7892L22.0589 52.9585C22.1727 52.992 22.2691 53.0024 22.3483 52.9895C22.4282 52.9769 22.4927 52.9447 22.5419 52.8928C22.592 52.8405 22.6297 52.7717 22.6548 52.6864C22.68 52.6011 22.686 52.5219 22.6729 52.4486C22.6599 52.3754 22.6234 52.3112 22.5636 52.2558C22.504 52.1998 22.4166 52.1548 22.3015 52.1209L21.8479 51.9872L21.287 53.8888L21.029 53.8127ZM22.3141 53.1513L22.5562 54.263L22.2566 54.1746L22.0229 53.0655L22.3141 53.1513Z" fill="white"/>
<path d="M26.903 55.2234L27.0363 53.0022L28.3769 53.0826L28.3626 53.3212L27.291 53.2569L27.246 54.0074L28.2481 54.0675L28.2338 54.3061L27.2316 54.246L27.1863 55.0009L28.2752 55.0662L28.2609 55.3048L26.903 55.2234Z" fill="white"/>
<path d="M32.5549 55.3387L32.2262 53.1419L33.552 52.9436L33.5873 53.1796L32.5275 53.3381L32.6386 54.0804L33.6297 53.9321L33.665 54.1681L32.6739 54.3163L32.7856 55.0629L33.8626 54.9018L33.8979 55.1378L32.5549 55.3387Z" fill="white"/>
<path d="M38.9491 51.5379L39.768 53.6027L39.526 53.6986L37.7578 52.5235L37.7377 52.5315L38.3807 54.1527L38.1306 54.2518L37.3117 52.187L37.5537 52.0911L39.3275 53.2686L39.3477 53.2606L38.7031 51.6355L38.9491 51.5379Z" fill="white"/>
<path d="M43.8414 51.65L42.5776 49.8233L43.6802 49.0609L43.816 49.2571L42.9346 49.8666L43.3616 50.4838L44.1859 49.9138L44.3217 50.1101L43.4974 50.68L43.9269 51.3008L44.8225 50.6815L44.9583 50.8777L43.8414 51.65Z" fill="white"/>
<path d="M48.3299 48.2022L46.686 46.692L47.1964 46.1367C47.3144 46.0083 47.4332 45.9231 47.5528 45.881C47.6719 45.8384 47.7876 45.8322 47.9 45.8625C48.0124 45.8927 48.117 45.9523 48.2139 46.0413C48.3107 46.1302 48.3784 46.2289 48.4169 46.3374C48.4555 46.4458 48.4585 46.5606 48.4261 46.6817C48.3931 46.8024 48.3181 46.9264 48.2011 47.0538L47.788 47.5032L47.6082 47.338L48.0154 46.895C48.096 46.8073 48.1481 46.7249 48.1716 46.6478C48.1956 46.5701 48.1951 46.4976 48.1701 46.4303C48.1451 46.3619 48.0997 46.2975 48.0339 46.2371C47.9681 46.1766 47.8992 46.1361 47.8274 46.1154C47.7555 46.0948 47.6814 46.0992 47.605 46.1287C47.528 46.1577 47.4487 46.2165 47.3671 46.3054L47.0455 46.6552L48.5128 48.0032L48.3299 48.2022ZM48.3024 46.7502L49.4127 47.0242L49.2002 47.2553L48.0959 46.9749L48.3024 46.7502Z" fill="white"/>
<path d="M50.1605 42.7998L50.3145 42.5349L51.5144 42.5235L51.5274 42.5011L50.9437 41.453L51.0977 41.1881L51.8195 42.5311L52.6067 42.9887L52.4722 43.22L51.6849 42.7624L50.1605 42.7998Z" fill="white"/>
<path d="M52.4152 28.2905C52.4152 34.1578 50.0838 39.7848 45.9339 43.9336C41.784 48.0824 36.1555 50.4132 30.2867 50.4132C24.4178 50.4132 18.7894 48.0824 14.6395 43.9336C10.4896 39.7848 8.1582 34.1578 8.1582 28.2905" stroke="white" stroke-width="0.200669" stroke-miterlimit="10"/>
<path d="M60.0717 28.2905C60.0717 36.1881 56.9336 43.7623 51.3477 49.3467C45.7617 54.9312 38.1856 58.0685 30.2859 58.0685C22.3862 58.0685 14.81 54.9312 9.22408 49.3467C3.63815 43.7623 0.5 36.1881 0.5 28.2905" stroke="white" stroke-width="0.5" stroke-miterlimit="10"/>
<path d="M47.3142 12.9198C47.0229 13.288 46.7146 13.7119 46.3848 14.2043C45.2554 12.7647 43.9521 11.4705 42.5047 10.3509C40.7495 9.00735 38.7981 7.94164 36.7189 7.19111C35.7572 6.8349 34.7711 6.54871 33.7681 6.3348L33.0401 6.19351C32.8002 6.14642 32.5604 6.12073 32.3249 6.08648C31.8452 6.00513 31.387 5.97944 30.9287 5.93234C30.706 5.93234 30.4619 5.93234 30.2349 5.89809H29.888H29.5626H28.2778L27.0486 5.988C26.8474 5.988 26.6504 6.03082 26.4576 6.06079L25.8923 6.14214C24.6 6.33472 23.3293 6.6516 22.0979 7.08835C21.8452 7.17827 21.5968 7.25533 21.3741 7.34096L20.7489 7.60214L20.2092 7.8205L19.781 8.03885L18.963 8.43704C18.8959 8.46967 18.8187 8.47447 18.7481 8.45041C18.6775 8.42636 18.6193 8.37538 18.5861 8.30859C18.5538 8.24354 18.5478 8.16856 18.5693 8.0992C18.5909 8.02985 18.6383 7.97144 18.7017 7.9361L19.494 7.50794L19.9223 7.26818L20.4705 7.00272L21.1129 6.69873C21.3399 6.5917 21.5883 6.50178 21.8495 6.39903C23.1079 5.89419 24.4114 5.50998 25.7424 5.25158L26.3334 5.14454C26.5343 5.10097 26.7373 5.0681 26.9416 5.04606L28.2264 4.89621L29.584 4.82343H30.2649C30.5005 4.82343 30.7274 4.82343 30.9758 4.82343C31.4641 4.85768 31.9694 4.87052 32.4705 4.93903C32.7189 4.969 32.9758 4.9904 33.2285 5.02894L33.9994 5.15738C35.0687 5.34299 36.1223 5.6092 37.1514 5.95375C41.1232 7.28145 44.6437 9.69458 47.3142 12.9198Z" fill="white"/>
<path d="M53.2318 28.2777C53.2318 28.5988 53.2318 28.9199 53.2018 29.2367C53.2016 29.3969 53.193 29.557 53.1762 29.7162L53.1376 30.2086C53.0287 31.4842 52.8153 32.7486 52.4995 33.9892C52.1823 35.1943 51.7669 36.3714 51.2575 37.5086C50.7735 38.6084 50.1976 39.6654 49.5359 40.6684C48.909 41.6347 48.2043 42.5483 47.4288 43.4C46.6982 44.2059 45.9095 44.9572 45.0691 45.6478C44.8721 45.8234 44.6665 45.9818 44.4567 46.1359C44.2468 46.29 44.0498 46.4527 43.8442 46.5983C43.416 46.8852 43.0177 47.1763 42.598 47.4204C41.7976 47.9113 40.9681 48.3531 40.1141 48.7434C39.6858 48.9146 39.3132 49.0987 38.9192 49.2443C38.5252 49.3899 38.1483 49.5397 37.7672 49.6468C36.4763 50.0681 35.1485 50.3663 33.8014 50.5373C32.9375 50.6435 32.068 50.6993 31.1976 50.7043H30.2768C30.2018 50.7043 30.1299 50.6745 30.0769 50.6215C30.0239 50.5685 29.9941 50.4967 29.9941 50.4217C29.997 50.351 30.0255 50.2837 30.0744 50.2325C30.1233 50.1813 30.1891 50.1496 30.2597 50.1434L31.1547 50.0878C31.7372 50.0449 32.5894 49.9465 33.6558 49.7581C34.8822 49.5704 36.0942 49.2985 37.2832 48.9446C37.6387 48.8247 38.1397 48.5164 38.5166 48.3794C38.8935 48.2424 39.4203 47.9941 39.8014 47.8143C40.5418 47.4321 41.257 47.0031 41.9427 46.5298C43.6354 45.4794 45.1746 44.1999 46.5166 42.7278C47.2299 41.9207 47.8826 41.0621 48.4695 40.1589C49.1098 39.1341 49.6683 38.0604 50.1398 36.9478C50.5968 35.8813 50.9733 34.7822 51.2661 33.6595C51.5502 32.5092 51.7421 31.3381 51.84 30.1572C52.0379 27.7354 51.8324 25.2975 51.2318 22.9429C50.8302 21.3019 50.22 19.7191 49.416 18.2332C49.8867 18.3276 50.3714 18.3276 50.8421 18.2332C51.51 19.5854 52.0409 21.0011 52.4267 22.4591C52.755 23.723 52.9785 25.0118 53.0948 26.3124C53.0948 26.6378 53.1547 26.9632 53.159 27.2886C53.1633 27.614 53.2233 27.9523 53.2318 28.2777Z" fill="white"/>
<path d="M20.719 8.47557L20.6676 8.3985L20.5777 8.42847C20.5263 8.42847 20.4363 8.47985 20.3464 8.52266C20.2407 8.57281 20.1378 8.62855 20.0381 8.68964C19.9187 8.75874 19.8042 8.83599 19.6954 8.92084C19.4488 9.10615 19.2309 9.32689 19.0488 9.57592C18.6692 10.0962 18.4611 10.7217 18.4535 11.3656C18.4489 11.6738 18.4893 11.981 18.5734 12.2776C18.6086 12.4104 18.6529 12.5405 18.7061 12.6672C18.7533 12.7871 18.8046 12.8941 18.8518 12.9883C18.8989 13.0825 18.9503 13.151 18.976 13.2024L19.0273 13.2794L19.1173 13.2495C19.1687 13.2238 19.2586 13.1981 19.3443 13.151C19.4299 13.1039 19.5455 13.0525 19.6569 12.9883C19.7682 12.9241 19.8839 12.8427 19.9995 12.7571C20.2428 12.5694 20.459 12.3489 20.6419 12.102C20.8285 11.8407 20.973 11.5518 21.0702 11.2457C21.1745 10.9425 21.2294 10.6244 21.2329 10.3038C21.2375 9.99558 21.1971 9.68836 21.113 9.39181C21.0778 9.25902 21.0335 9.12883 20.9802 9.00219C20.937 8.89214 20.887 8.78489 20.8303 8.68108C20.7965 8.61084 20.7594 8.54226 20.719 8.47557Z" fill="white"/>
<path d="M18.2006 9.40038C18.2546 9.29884 18.3032 9.19451 18.3462 9.08782C18.3847 8.99791 18.4061 8.908 18.4276 8.85662L18.4532 8.76671L18.3719 8.71533C18.3028 8.67277 18.2313 8.63417 18.1577 8.59973C18.0547 8.54707 17.9489 8.49991 17.8408 8.45844C17.7131 8.41158 17.5831 8.37156 17.4511 8.33856C17.1599 8.26693 16.86 8.23666 16.5603 8.24864C16.2493 8.26714 15.9431 8.33357 15.6524 8.44559C15.3607 8.55693 15.0888 8.71451 14.8473 8.91228C14.6142 9.10242 14.4107 9.32607 14.2434 9.57592C14.1679 9.68727 14.0993 9.80308 14.0378 9.92272C13.9779 10.0383 13.9308 10.1411 13.8922 10.2353C13.8537 10.3295 13.828 10.4151 13.8109 10.4665C13.7937 10.5179 13.7852 10.5564 13.7852 10.5564L13.8622 10.6078C13.9136 10.6335 13.9907 10.6806 14.0807 10.7234L14.3933 10.8604C14.5132 10.9032 14.646 10.946 14.783 10.9803C15.0743 11.0519 15.3741 11.0822 15.6738 11.0702C16.2993 11.0361 16.8983 10.807 17.3869 10.4151C17.6179 10.2229 17.8211 9.99952 17.9907 9.75146C18.0677 9.63877 18.1378 9.52153 18.2006 9.40038Z" fill="white"/>
<path d="M16.8085 6.32626C16.8978 6.398 16.9907 6.46516 17.0869 6.52749C17.2017 6.60074 17.3204 6.66791 17.4423 6.72872C17.7126 6.86319 18.0012 6.95697 18.2989 7.00702C18.6081 7.05634 18.9232 7.05634 19.2325 7.00702C19.5411 6.96265 19.8404 6.86867 20.119 6.72872C20.3831 6.59752 20.6269 6.42879 20.8428 6.22778C20.9455 6.12503 21.0398 6.02655 21.1211 5.92808C21.2025 5.8296 21.271 5.73969 21.331 5.65406C21.3909 5.56843 21.4295 5.49136 21.4595 5.44427C21.4763 5.41856 21.4906 5.39132 21.5023 5.36292L21.438 5.29869C21.3952 5.26016 21.331 5.19594 21.2539 5.13599C21.1768 5.07605 21.0783 5.00327 20.9712 4.93476C20.8589 4.85847 20.7416 4.78982 20.6201 4.72925C20.3498 4.59478 20.0612 4.501 19.7635 4.45095C19.4544 4.39953 19.139 4.39953 18.8299 4.45095C18.5211 4.49682 18.2218 4.59224 17.9434 4.73353C17.6739 4.86761 17.4257 5.04074 17.2068 5.24731C17.1084 5.34036 17.0154 5.439 16.9284 5.54274C16.847 5.64122 16.7742 5.73541 16.7186 5.81676C16.6629 5.89811 16.6201 5.97946 16.5901 6.02655C16.5601 6.07365 16.543 6.1079 16.543 6.1079L16.6115 6.17212C16.6672 6.2021 16.7314 6.26632 16.8085 6.32626Z" fill="white"/>
<path d="M20.9156 4.00139C20.9952 4.08206 21.0796 4.15784 21.1683 4.22831C21.2705 4.31324 21.3777 4.39188 21.4895 4.4638C21.7376 4.62393 22.0073 4.74792 22.2903 4.83201C22.5837 4.91677 22.8889 4.95293 23.194 4.93905C23.4977 4.92433 23.797 4.86072 24.0805 4.75066C24.3553 4.64567 24.6136 4.50145 24.8471 4.32251C24.9542 4.23259 25.0569 4.14268 25.1469 4.05277C25.2273 3.97301 25.3031 3.88866 25.3739 3.80016C25.4381 3.72737 25.4852 3.65031 25.5195 3.60749L25.5537 3.52186L25.4981 3.44907C25.4595 3.41054 25.4038 3.33775 25.331 3.26925C25.2582 3.20075 25.1769 3.1194 25.0826 3.03805C24.9884 2.9567 24.8771 2.87963 24.7572 2.80256C24.5102 2.64129 24.2402 2.51858 23.9563 2.43863C23.6644 2.35388 23.3606 2.31772 23.0569 2.33159C22.7516 2.34774 22.4508 2.41279 22.1661 2.52426C21.8934 2.63098 21.6369 2.77508 21.4038 2.95242C21.2925 3.04233 21.194 3.13224 21.104 3.21787C21.0141 3.3035 20.937 3.39341 20.8728 3.47048C20.8085 3.54755 20.7614 3.62034 20.7272 3.66315C20.6929 3.70597 20.6758 3.74022 20.6758 3.74022L20.7357 3.813C20.7914 3.8601 20.8428 3.92861 20.9156 4.00139Z" fill="white"/>
<path d="M25.1858 1.83065C25.2372 1.92485 25.3014 2.03188 25.3742 2.1432C25.4554 2.26453 25.5426 2.3817 25.6355 2.49429C25.8456 2.7447 26.0892 2.96511 26.3592 3.14936C26.6388 3.34304 26.9445 3.49586 27.2672 3.60321C27.5947 3.71252 27.9369 3.7717 28.2822 3.77875C28.6082 3.7879 28.9339 3.75188 29.25 3.67171C29.3958 3.63766 29.5389 3.59331 29.6783 3.53898C29.7941 3.49777 29.9071 3.44915 30.0166 3.39341C30.102 3.35726 30.1849 3.31579 30.265 3.26925C30.2936 3.2546 30.3209 3.2374 30.3464 3.21787C30.3375 3.18698 30.3261 3.15691 30.3121 3.12796C30.265 3.0723 30.2308 2.98667 30.1794 2.89675C30.128 2.80684 30.068 2.69552 29.9952 2.57992C29.9224 2.46432 29.8368 2.353 29.734 2.21599C29.3025 1.69554 28.73 1.31052 28.0852 1.10707C27.7573 0.999655 27.4152 0.941928 27.0702 0.935813C26.7427 0.926649 26.4156 0.962667 26.098 1.04285C25.9531 1.07829 25.8102 1.12116 25.6697 1.1713C25.5455 1.22268 25.4299 1.26977 25.3357 1.31687C25.2415 1.36397 25.1601 1.41106 25.1087 1.44103L25.0273 1.49241C25.0273 1.49241 25.0273 1.52666 25.0659 1.58232C25.1044 1.63798 25.1258 1.74074 25.1858 1.83065Z" fill="white"/>
<path d="M31.1895 3.25639C31.4397 3.46425 31.7198 3.63314 32.0204 3.75733C32.3096 3.87443 32.6138 3.9508 32.924 3.98426C33.0666 3.99297 33.2097 3.99297 33.3523 3.98426C33.465 3.98945 33.578 3.98802 33.6906 3.97997C33.7891 3.97997 33.8791 3.95428 33.939 3.94572H34.0289C34.0307 3.91435 34.0307 3.8829 34.0289 3.85153C34.0289 3.79159 34.0289 3.70167 34.0289 3.59892C34.0289 3.49616 34.0075 3.38056 33.9861 3.24783C33.9629 3.10308 33.93 2.96004 33.8876 2.81968C33.8025 2.51667 33.6725 2.22805 33.5022 1.96337C33.3267 1.68795 33.1084 1.44225 32.8555 1.23551C32.5971 1.02709 32.3082 0.859585 31.999 0.738856C31.718 0.626215 31.4223 0.554134 31.121 0.524779C30.9784 0.516236 30.8354 0.516236 30.6928 0.524779C30.5754 0.524705 30.4581 0.531855 30.3416 0.546187C30.2431 0.546187 30.1531 0.576157 30.0932 0.580439H30.0032C30.0015 0.611813 30.0015 0.643259 30.0032 0.674633C30.0032 0.730293 30.0032 0.824486 30.0032 0.922961C30.0122 1.0408 30.0279 1.15802 30.0504 1.27405C30.0721 1.41873 30.1035 1.56177 30.1446 1.7022C30.2345 2.0042 30.3656 2.29235 30.5343 2.55851C30.718 2.82142 30.9387 3.05647 31.1895 3.25639Z" fill="white"/>
<path d="M36.1103 4.86626C36.3618 5.07557 36.6415 5.24852 36.9411 5.38004C37.0809 5.43935 37.2239 5.49081 37.3694 5.53418C37.4979 5.57271 37.6178 5.60268 37.7249 5.62409C37.8081 5.64357 37.8925 5.65787 37.9775 5.66691H38.0717C38.0717 5.66691 38.0717 5.63265 38.1017 5.57271C38.1317 5.51277 38.1403 5.42714 38.1574 5.32438C38.1792 5.20395 38.195 5.08248 38.2045 4.96045C38.2131 4.81786 38.2131 4.67489 38.2045 4.5323C38.1953 4.20519 38.1405 3.88096 38.0418 3.56896C37.832 2.90664 37.4348 2.31924 36.8983 1.87775C36.6421 1.66724 36.3583 1.49292 36.0546 1.35969C35.9157 1.29833 35.7725 1.24682 35.6264 1.20555C35.5112 1.16739 35.394 1.13594 35.2752 1.11136L35.0225 1.06854H34.924C34.9133 1.09933 34.9048 1.1308 34.8983 1.16274C34.8983 1.2184 34.8598 1.30831 34.8426 1.41106C34.8184 1.53112 34.8027 1.65273 34.7955 1.77499C34.7869 1.91758 34.7869 2.06056 34.7955 2.20315C34.808 2.71162 34.929 3.21155 35.1506 3.6694C35.3722 4.12724 35.6892 4.5324 36.0803 4.8577L36.1103 4.86626Z" fill="white"/>
<path d="M33.4798 8.80099C33.2921 9.04168 33.1406 9.30853 33.0301 9.59307C32.9782 9.72167 32.9339 9.8532 32.8974 9.98697C32.8674 10.1111 32.8417 10.2267 32.8246 10.3295C32.8074 10.4323 32.8246 10.5179 32.7946 10.5735C32.7646 10.6292 32.7946 10.6677 32.7946 10.6677L32.8845 10.6977C32.9402 10.6977 33.0258 10.7405 33.1243 10.7576C33.2374 10.7828 33.3518 10.8013 33.467 10.8133C33.6089 10.8317 33.752 10.8403 33.8952 10.839C34.201 10.8399 34.5054 10.7966 34.7989 10.7105C35.1041 10.6213 35.3933 10.484 35.6554 10.3038C35.9213 10.127 36.1557 9.90703 36.3492 9.65301C36.5391 9.41304 36.6921 9.14607 36.8031 8.86093C36.8545 8.72392 36.8974 8.59547 36.9316 8.46703C36.9659 8.33858 36.9873 8.22726 37.0044 8.12879C37.0172 8.0465 37.0258 7.96362 37.0301 7.88046C37.0321 7.84909 37.0321 7.81763 37.0301 7.78627L36.9402 7.75629C36.8845 7.75629 36.7989 7.71348 36.7004 7.69207C36.5858 7.66733 36.47 7.64875 36.3535 7.63641C36.2115 7.61801 36.0684 7.60943 35.9252 7.61072C35.6194 7.60984 35.315 7.6531 35.0216 7.73917C34.7157 7.837 34.4268 7.98142 34.165 8.16732C33.9049 8.34148 33.6737 8.55529 33.4798 8.80099Z" fill="white"/>
<path d="M32.3026 6.68163C32.1867 6.68093 32.0708 6.68808 31.9557 6.70304C31.4161 6.74734 30.898 6.9345 30.4547 7.24527C30.0114 7.55604 29.6588 7.97921 29.4333 8.47131C29.3069 8.74325 29.219 9.03145 29.172 9.32761C29.152 9.46951 29.1405 9.61249 29.1378 9.75577C29.1312 9.87127 29.1312 9.98706 29.1378 10.1026C29.1378 10.201 29.1592 10.291 29.1635 10.3466C29.1677 10.4023 29.1635 10.4408 29.1635 10.4408H29.2577C29.3134 10.4408 29.4033 10.4408 29.5061 10.4408C29.6216 10.4484 29.7375 10.4484 29.853 10.4408C29.9919 10.4203 30.1293 10.3903 30.2641 10.3509C30.5637 10.2841 30.8522 10.1745 31.1206 10.0255C31.3989 9.87118 31.6505 9.67313 31.8658 9.43893C32.2942 8.98133 32.5709 8.40267 32.6581 7.78198C32.6795 7.64016 32.6924 7.49719 32.6966 7.35383C32.6966 7.22538 32.6966 7.10978 32.6966 7.00702C32.6966 6.90427 32.6966 6.81864 32.671 6.76298C32.6453 6.70732 32.671 6.66878 32.671 6.66878H32.5767C32.4852 6.66685 32.3936 6.67115 32.3026 6.68163Z" fill="white"/>
<path d="M28.5519 6.46327C28.4534 6.46327 28.3377 6.50181 28.2178 6.53178C28.0874 6.56358 27.9588 6.60216 27.8324 6.64738C27.5574 6.75215 27.2992 6.89638 27.0658 7.07553C26.8239 7.2596 26.614 7.48239 26.4448 7.73489C26.2776 7.98885 26.1518 8.26778 26.0722 8.56122C25.9993 8.84062 25.9662 9.12889 25.9737 9.41753C25.978 9.55077 25.9894 9.68369 26.008 9.81571C26.008 9.93988 26.0508 10.0512 26.0722 10.1497C26.0936 10.2481 26.1279 10.3295 26.1407 10.3809L26.175 10.4665C26.2049 10.4692 26.235 10.4692 26.2649 10.4665L26.509 10.4408C26.6075 10.4408 26.7189 10.4023 26.8388 10.3723C27.2558 10.2713 27.6479 10.0863 27.9908 9.82856C28.4705 9.46043 28.8177 8.94658 28.9801 8.36427C29.0564 8.08545 29.091 7.7969 29.0829 7.50797C29.0794 7.3745 29.0665 7.24145 29.0444 7.10979C29.0299 6.99724 29.0085 6.8857 28.9801 6.77583C28.9544 6.67735 28.9245 6.596 28.9073 6.54034C28.8902 6.48468 28.8773 6.45471 28.8773 6.45471H28.7831C28.7317 6.44615 28.6418 6.45043 28.5519 6.46327Z" fill="white"/>
<path d="M24.7866 7.38809C24.7352 7.26392 24.6838 7.15688 24.6367 7.06697C24.5896 6.97706 24.5339 6.89999 24.5039 6.85289L24.4525 6.77155L24.3626 6.8058C24.3112 6.83149 24.2255 6.86574 24.1356 6.91284C24.0295 6.96526 23.9265 7.02388 23.8273 7.08838C23.7088 7.16509 23.5944 7.24798 23.4847 7.33671C23.2425 7.53444 23.0292 7.76501 22.8508 8.02175C22.6641 8.2923 22.5197 8.58971 22.4226 8.90375C22.2341 9.52196 22.2341 10.1823 22.4226 10.8005C22.4574 10.9389 22.5017 11.0749 22.5553 11.2072C22.6067 11.3271 22.6581 11.4341 22.7095 11.5283C22.7566 11.6182 22.808 11.691 22.838 11.7424C22.8531 11.7693 22.8703 11.7951 22.8894 11.8195C22.9203 11.8106 22.9503 11.7991 22.9793 11.7852C23.0307 11.7595 23.1163 11.7296 23.2063 11.6825C23.3124 11.6284 23.4154 11.5684 23.5146 11.5026C23.6327 11.4273 23.7457 11.3443 23.853 11.2543C24.0975 11.0578 24.3124 10.8271 24.4911 10.5693C24.6769 10.2982 24.8213 10.0009 24.9193 9.68727C25.0178 9.37411 25.0683 9.04789 25.0692 8.71964C25.0687 8.40182 25.0211 8.08584 24.9279 7.78199C24.8885 7.64804 24.8413 7.51651 24.7866 7.38809Z" fill="white"/>
<path d="M30.6639 17.3217C31.23 17.0027 31.8779 16.8585 32.5259 16.9075C33.3961 16.9744 34.204 17.3839 34.7721 18.0462C35.3402 18.7085 35.622 19.5692 35.5556 20.4391C35.5052 21.0868 35.264 21.705 34.8624 22.2157C34.4607 22.7264 33.9166 23.1067 33.2989 23.3084C32.6811 23.5101 32.0174 23.5243 31.3916 23.3491C30.7658 23.1738 30.206 22.8171 29.783 22.3239C29.3599 21.8308 29.0925 21.2233 29.0147 20.5783C28.9368 19.9333 29.0519 19.2797 29.3454 18.7001C29.639 18.1204 30.0978 17.6408 30.6639 17.3217Z" fill="#F7C917" stroke="#F7C917" stroke-width="0.200669"/>
<path d="M27.498 16.9701L29.2968 18.7684" stroke="#F7C917" stroke-width="0.200669" stroke-miterlimit="10"/>
<path d="M26.6328 19.9715H29.1767" stroke="#F7C917" stroke-width="0.200669" stroke-miterlimit="10"/>
<path d="M27.1719 22.6303L29.4931 21.5942" stroke="#F7C917" stroke-width="0.200669" stroke-miterlimit="10"/>
<path d="M34.9453 18.4644L37.1509 17.1928" stroke="#F7C917" stroke-width="0.200669" stroke-miterlimit="10"/>
<path d="M35.207 19.9715H37.7509" stroke="#F7C917" stroke-width="0.200669" stroke-miterlimit="10"/>
<path d="M34.9453 21.4786L37.1509 22.7502" stroke="#F7C917" stroke-width="0.200669" stroke-miterlimit="10"/>
<path d="M33.9902 22.8187L35.5363 24.8353" stroke="#F7C917" stroke-width="0.200669" stroke-miterlimit="10"/>
<path d="M32.5254 23.4138L32.7138 25.9528" stroke="#F7C917" stroke-width="0.200669" stroke-miterlimit="10"/>
<path d="M30.5253 23.0756L29.5703 25.4347" stroke="#F7C917" stroke-width="0.200669" stroke-miterlimit="10"/>
<path d="M31.6699 14.8465L31.8584 17.3812" stroke="#F7C917" stroke-width="0.200669" stroke-miterlimit="10"/>
<path d="M28.9844 15.4416L30.2563 17.6423" stroke="#F7C917" stroke-width="0.200669" stroke-miterlimit="10"/>
<path d="M34.9118 14.9792L33.7598 17.2484" stroke="#F7C917" stroke-width="0.200669" stroke-miterlimit="10"/>
</svg>
