<svg width="102" height="102" viewBox="0 0 102 102" fill="none" xmlns="http://www.w3.org/2000/svg">
<path d="M74.7635 57.1295V96.8445C74.7635 98.0924 74.3945 98.9278 73.6567 99.351C72.9188 99.7742 72.0073 99.6657 70.9222 99.0363C69.8262 98.407 68.9147 97.463 68.1769 96.1935C67.439 94.913 67.0701 93.6542 67.0701 92.4063V52.6914C67.0701 52.3551 67.0918 52.0621 67.146 51.78C67.2979 51.0095 67.6343 50.4888 68.1769 50.185L68.4047 50.0763C68.9582 49.8485 69.5875 49.8811 70.3145 50.185H70.3254C70.5207 50.2609 70.716 50.3693 70.9222 50.4887C71.8771 51.0421 72.7018 51.8452 73.3854 52.8977C73.483 53.0496 73.5699 53.1907 73.6567 53.3426C74.3945 54.6122 74.7635 55.8817 74.7635 57.1295Z" stroke="#1A6443" stroke-width="1.5" stroke-linecap="round" stroke-linejoin="round"/>
<path d="M13.2271 56.9022V61.3186C13.2271 62.5665 12.8582 63.402 12.1203 63.8252C11.3824 64.2484 10.4709 64.1399 9.37497 63.5105C8.28986 62.8811 7.37837 61.9371 6.6405 60.6567C5.90263 59.3871 5.53369 58.1284 5.53369 56.8805V52.4641C5.53369 51.2162 5.90263 50.3807 6.6405 49.9575L6.86837 49.849C7.56284 49.556 8.39837 49.708 9.37497 50.2722C10.4709 50.9016 11.3824 51.8565 12.1203 53.126C12.8582 54.3956 13.2271 55.6543 13.2271 56.9022Z" stroke="#1A6443" stroke-width="1.5" stroke-linecap="round" stroke-linejoin="round"/>
<path d="M28.6136 45.9317V70.2055C28.6136 71.4534 28.2446 72.2889 27.5068 72.7121C26.7689 73.1244 25.8574 73.0268 24.7614 72.3974C23.6763 71.7681 22.7648 70.8132 22.027 69.5436C21.2891 68.274 20.9202 67.0153 20.9202 65.7566V41.4827C20.9202 40.2349 21.2891 39.3993 22.027 38.9761L22.2548 38.8676C22.9493 38.5855 23.7848 38.7266 24.7614 39.2908C25.2172 39.5512 25.6404 39.8768 26.0419 40.2566C26.4759 40.6689 26.8774 41.1464 27.2355 41.6998C27.3331 41.8517 27.42 41.9927 27.5068 42.1446C28.2446 43.4142 28.6136 44.6729 28.6136 45.9317Z" stroke="#1A6443" stroke-width="1.5" stroke-linecap="round" stroke-linejoin="round"/>
<path d="M74.7199 32.5414C74.6874 33.7351 74.3184 34.538 73.6131 34.9395L71.8335 35.9595L53.3216 46.5068C52.6163 46.9082 51.7808 47.0493 50.8259 46.9299C50.6523 46.9082 50.4895 46.8865 50.3159 46.8431C49.5129 46.6912 48.6882 46.3657 47.8418 45.8774C46.811 45.2806 45.8344 44.4993 44.912 43.5227C44.0765 42.6546 43.3169 41.6672 42.6225 40.5712C42.5357 40.441 42.4488 40.3108 42.362 40.1697L37.2512 31.3587L33.0952 24.197L33.041 24.1102L32.455 23.0902L31.3482 23.7195L12.0767 34.7117C11.3063 35.1565 10.3948 35.048 9.33138 34.397C8.27883 33.7568 7.35649 32.7693 6.59691 31.4346C5.89159 30.1542 5.55521 28.9063 5.57691 27.7127C5.60947 26.5191 5.9784 25.7161 6.68372 25.3146L26.9752 13.7474C27.7457 13.3134 28.592 13.1614 29.5252 13.2917C29.7531 13.3242 29.981 13.3676 30.2088 13.4219C30.9359 13.6063 31.6846 13.921 32.455 14.3768C33.4859 14.9627 34.4733 15.744 35.4391 16.6989C36.394 17.6646 37.2295 18.7931 37.9348 20.0736L38.5533 21.137L42.8503 28.5482L43.0131 28.8412L47.8418 37.164L50.3159 35.7534L63.4565 28.2661L68.2201 25.5425L68.4588 25.4231C68.6216 25.358 68.7844 25.3146 68.958 25.2929C69.468 25.217 70.0323 25.3472 70.6508 25.6836C70.7593 25.727 70.8569 25.7812 70.9654 25.8463C72.018 26.4974 72.9403 27.4848 73.7108 28.8087C74.4052 30.1 74.7525 31.3478 74.7199 32.5414Z" stroke="#1A6443" stroke-width="1.5" stroke-linecap="round" stroke-linejoin="round"/>
<path d="M96.4659 46.2785V85.9934C96.4659 87.2413 96.0969 88.0768 95.3591 88.5L95.1312 88.6085L73.6569 99.3511C74.3948 98.9279 74.7638 98.0923 74.7638 96.8445V57.1296C74.7638 55.8817 74.3948 54.6121 73.6569 53.3425C73.5701 53.1906 73.4833 53.0496 73.3857 52.8976C72.702 51.8451 71.8774 51.0421 70.9225 50.4887C70.7163 50.3693 70.521 50.2608 70.3257 50.1849H70.3148C69.5878 49.8811 68.9584 49.8485 68.405 50.0764L89.8793 39.3338C90.6172 38.9106 91.5286 39.0083 92.6246 39.6376C93.7097 40.267 94.6212 41.2219 95.3591 42.4915C96.0969 43.7611 96.4659 45.0306 96.4659 46.2785Z" stroke="#1A6443" stroke-width="1.5" stroke-linecap="round" stroke-linejoin="round"/>
<path d="M59.377 65.8978V87.9689C59.377 89.2167 59.0081 90.0523 58.2702 90.4755C57.5323 90.8878 56.6208 90.7902 55.5357 90.1608C54.4398 89.5314 53.5283 88.5765 52.7904 87.307C52.0525 86.0374 51.6836 84.7787 51.6836 83.5199V61.4597C51.6836 60.2118 52.0525 59.3763 52.7904 58.9531L53.0183 58.8446C53.7127 58.5516 54.5483 58.7036 55.5357 59.2678C56.5015 59.8212 57.3261 60.6242 58.0098 61.6876C58.0966 61.8287 58.1834 61.9697 58.2702 62.1108C59.0081 63.3912 59.377 64.6499 59.377 65.8978Z" stroke="#1A6443" stroke-width="1.5" stroke-linecap="round" stroke-linejoin="round"/>
<path d="M65.6811 52.5075L58.0094 56.3488L53.0179 58.8445L52.79 58.953C52.0522 59.3762 51.6832 60.2117 51.6832 61.4596V77.1936L42.8939 81.5883C43.6209 81.1651 43.9898 80.3296 43.9898 79.0817V63.6407C43.9898 62.3819 43.6209 61.1232 42.8939 59.8536C42.156 58.5841 41.2337 57.6292 40.1485 56.9998C39.172 56.4356 38.3256 56.2945 37.6311 56.5766L42.6226 54.0809L50.316 50.2288L59.1054 45.8341C59.8432 45.4217 60.7656 45.5194 61.8507 46.1487C62.9358 46.7781 63.8581 47.733 64.596 49.0026C65.2688 50.1745 65.6377 51.3464 65.6811 52.5075Z" stroke="#1A6443" stroke-width="1.5" stroke-linecap="round" stroke-linejoin="round"/>
<path d="M50.3162 46.8536V50.2283L42.6228 54.0804L37.6313 56.5762L37.4035 56.6847C36.6764 57.1079 36.3075 57.9434 36.3075 59.1913V68.317L27.5073 72.7117C28.2452 72.2885 28.6141 71.453 28.6141 70.2051V45.9313C28.6141 44.6725 28.2452 43.4138 27.5073 42.1442C27.4205 41.9923 27.3337 41.8513 27.236 41.6994C26.8779 41.146 26.4764 40.6685 26.0424 40.2562C25.6409 39.8764 25.2177 39.5508 24.762 39.2904C23.7854 38.7262 22.9498 38.5851 22.2554 38.8672L37.2515 31.3691L42.3624 40.1802C42.4492 40.3213 42.536 40.4515 42.6228 40.5817C43.3173 41.6777 44.0769 42.6651 44.9124 43.5332C45.8347 44.5098 46.8113 45.2911 47.8422 45.8879C48.6886 46.3762 49.5132 46.7017 50.3162 46.8536Z" stroke="#1A6443" stroke-width="1.5" stroke-linecap="round" stroke-linejoin="round"/>
<path d="M33.0957 24.2079L12.0771 34.7226L31.3487 23.7304L32.4555 23.1011L33.0414 24.1211L33.0957 24.2079Z" stroke="#1A6443" stroke-width="1.5" stroke-linecap="round" stroke-linejoin="round"/>
<path d="M96.4222 21.69C96.3896 22.8836 96.0207 23.6866 95.3154 24.0881L75.0239 35.6553L74.6007 35.8615L53.3218 46.5064L71.8337 35.9591L73.6133 34.9391C74.3186 34.5377 74.6875 33.7347 74.7201 32.5411C74.7526 31.3474 74.4054 30.0996 73.7109 28.8083C72.9405 27.4845 72.0182 26.497 70.9656 25.846C70.8571 25.7808 70.7594 25.7266 70.6509 25.6832C70.0324 25.3468 69.4682 25.2166 68.9582 25.2925C68.7845 25.3142 68.6218 25.3577 68.459 25.4228L68.9039 25.2057L89.9224 14.6911C90.6928 14.2462 91.6153 14.3547 92.6678 14.9949C93.7204 15.646 94.6426 16.6334 95.4131 17.9572C96.1075 19.2485 96.4548 20.4964 96.4222 21.69Z" stroke="#1A6443" stroke-width="1.5" stroke-linecap="round" stroke-linejoin="round"/>
<path d="M20.921 42.8174V59.4304L12.1208 63.825C12.8587 63.4018 13.2276 62.5663 13.2276 61.3184V56.9021C13.2276 55.6542 12.8587 54.3955 12.1208 53.1259C11.3829 51.8563 10.4714 50.9014 9.37549 50.2721C8.3989 49.7078 7.56336 49.5559 6.8689 49.8489L20.921 42.8174Z" stroke="#1A6443" stroke-width="1.5" stroke-linecap="round" stroke-linejoin="round"/>
<path d="M43.9902 63.6402V79.0812C43.9902 80.3291 43.6212 81.1646 42.8942 81.5878C42.1563 82.011 41.234 81.9025 40.1489 81.2731C39.0638 80.6438 38.1414 79.6997 37.4036 78.4302C36.6766 77.1497 36.3076 75.891 36.3076 74.6431V59.1912C36.3076 57.9434 36.6766 57.1078 37.4036 56.6846L37.6314 56.5761C38.3259 56.294 39.1723 56.4351 40.1489 56.9993C41.234 57.6287 42.1563 58.5836 42.8942 59.8531C43.6212 61.1227 43.9902 62.3814 43.9902 63.6402Z" stroke="#1A6443" stroke-width="1.5" stroke-linecap="round" stroke-linejoin="round"/>
<path d="M67.1457 51.7803C67.0914 52.0624 67.0697 52.3554 67.0697 52.6918V86.0805L58.2695 90.4752C59.0074 90.052 59.3763 89.2164 59.3763 87.9686V65.8975C59.3763 64.6496 59.0074 63.3909 58.2695 62.1105C58.1827 61.9694 58.0959 61.8284 58.0091 61.6873C57.3254 60.6239 56.5008 59.8209 55.535 59.2675C54.5476 58.7032 53.712 58.5513 53.0176 58.8443L58.0091 56.3486L65.6808 52.5073L67.1457 51.7803Z" stroke="#1A6443" stroke-width="1.5" stroke-linecap="round" stroke-linejoin="round"/>
<path d="M68.9036 25.2062L68.4587 25.4232L68.22 25.5425L63.4564 28.2662L50.3157 35.7534L47.8417 37.164L43.013 28.8413L42.8502 28.5483L38.5532 21.137L37.9347 20.0736C37.2294 18.7932 36.3938 17.6647 35.4389 16.6989C34.4732 15.744 33.4857 14.9628 32.4549 14.3768C31.6845 13.921 30.9357 13.6064 30.2087 13.4219C29.9808 13.3676 29.753 13.3242 29.5251 13.2917C28.5919 13.1615 27.7455 13.3134 26.9751 13.7474L48.6772 2.89633C49.4477 2.46228 50.294 2.31037 51.2272 2.44058C52.1604 2.57079 53.137 2.92888 54.157 3.52569C55.1879 4.11165 56.1753 4.89292 57.1411 5.84782C58.0959 6.81356 58.9315 7.94207 59.6368 9.2225L68.9036 25.2062Z" stroke="#1A6443" stroke-width="1.5" stroke-linecap="round" stroke-linejoin="round"/>
</svg>
