<svg width="102" height="102" viewBox="0 0 102 102" fill="none" xmlns="http://www.w3.org/2000/svg">
<path d="M75.3262 80.2576C73.1515 76.5144 70.5149 73.7527 67.4164 71.9628C67.0123 71.7223 66.6081 71.5203 66.2136 71.3375C63.933 70.2694 61.9315 70.0865 60.1994 70.7986L60.1127 70.8371L59.5161 71.1354C57.8033 72.1073 56.764 73.8105 56.408 76.2354C56.3118 76.8801 56.2637 77.5729 56.2637 78.3235C56.2637 81.8743 57.351 85.5309 59.5161 89.2644C61.6908 93.0077 64.3179 95.779 67.4164 97.5687C70.5149 99.3489 73.1515 99.6279 75.3262 98.3962C77.4913 97.1549 78.5787 94.7589 78.5787 91.2081C78.5787 87.6574 77.4913 84.0008 75.3262 80.2576ZM70.0722 89.3318C69.3601 89.736 68.4749 89.6397 67.4164 89.0335C66.3675 88.4177 65.4823 87.5034 64.7702 86.2717C64.0581 85.04 63.702 83.8277 63.702 82.6152C63.702 81.4028 64.0581 80.6041 64.7702 80.1903C65.4823 79.7861 66.3675 79.8919 67.4164 80.4981C68.4749 81.1044 69.3601 82.0186 70.0722 83.2503C70.7842 84.482 71.1404 85.704 71.1404 86.9068C71.1404 88.1096 70.7842 88.9277 70.0722 89.3318Z" stroke="#1A6443" stroke-width="1.5" stroke-linecap="round" stroke-linejoin="round"/>
<path d="M71.1403 86.9071C71.1403 88.1196 70.7842 88.9279 70.0721 89.332C69.36 89.7362 68.4748 89.6399 67.4163 89.0337C66.3675 88.4179 65.4822 87.5037 64.7701 86.272C64.058 85.0403 63.7019 83.8279 63.7019 82.6154C63.7019 81.403 64.058 80.6043 64.7701 80.1905C65.4822 79.7864 66.3675 79.8922 67.4163 80.4984C68.4748 81.1047 69.36 82.0188 70.0721 83.2505C70.7842 84.4822 71.1403 85.7043 71.1403 86.9071Z" stroke="#1A6443" stroke-width="1.5" stroke-linecap="round" stroke-linejoin="round"/>
<path d="M45.1111 46.8775L30.1864 54.3447L25.8659 56.5002C25.1249 53.5845 23.7874 50.7747 21.8628 48.0611C19.9479 45.3572 17.7732 43.2979 15.3579 41.9026C12.4615 40.2283 9.95959 39.8819 7.8811 40.8634L26.703 31.4524C28.8681 30.2207 31.5047 30.4902 34.6032 32.28C37.0185 33.6753 39.1932 35.7345 41.1081 38.4385C43.0327 41.1521 44.3702 43.9619 45.1111 46.8775Z" stroke="#1A6443" stroke-width="1.5" stroke-linecap="round" stroke-linejoin="round"/>
<path d="M58.0727 54.3639L52.4627 57.164L51.77 57.5105C51.4139 57.7125 51.0674 57.9242 50.7306 58.1648C50.6055 58.2514 50.4804 58.3476 50.365 58.4439C47.7572 60.455 46.131 63.5823 45.4767 67.8259L35.6135 62.1293L25.8657 56.5001L30.1863 54.3446L45.111 46.8774L58.0727 54.3639Z" stroke="#1A6443" stroke-width="1.5" stroke-linecap="round" stroke-linejoin="round"/>
<path d="M97.8238 81.5862C97.8238 85.1369 96.7366 87.533 94.5715 88.7743L94.1481 88.986L75.3263 98.3965C77.4913 97.1552 78.5787 94.7596 78.5787 91.2088C78.5787 87.6581 77.4913 84.0015 75.3263 80.2582C73.1515 76.515 70.5149 73.7533 67.4164 71.9635C67.0123 71.723 66.6081 71.5209 66.2136 71.3381C63.9331 70.2699 61.9315 70.0871 60.1995 70.7992L66.3867 67.7007L67.2143 67.2869C67.5799 67.3158 67.9071 67.2484 68.2054 67.1137L68.3498 67.0367L80.7918 60.8205C82.5143 60.5607 84.4678 61.0803 86.6617 62.3409C89.7602 64.1307 92.3968 66.8924 94.5715 70.6356C96.7366 74.3788 97.8238 78.0258 97.8238 81.5862Z" stroke="#1A6443" stroke-width="1.5" stroke-linecap="round" stroke-linejoin="round"/>
<path d="M87.8741 57.2213C87.7586 57.3175 87.6335 57.3945 87.5084 57.4619L80.7918 60.8202L68.3498 67.0364C68.446 66.9883 68.5422 66.9209 68.6288 66.844C68.7924 66.7092 68.9175 66.5553 69.0329 66.3821C69.389 65.8047 69.4659 65.006 69.2831 63.9668L67.0892 51.5536L66.8197 49.9947L63.1439 29.1713C62.7686 26.9581 61.9026 24.8604 60.5362 22.8685C59.1794 20.867 57.6301 19.3658 55.8884 18.3651L45.111 12.1392C44.1584 11.5907 43.3501 11.4656 42.6765 11.7351L61.7005 2.21832C62.4125 1.81417 63.2978 1.91038 64.3563 2.51661L75.1337 8.74247C76.8754 9.74319 78.4247 11.2443 79.7815 13.2458C81.1479 15.2377 82.0139 17.3355 82.3892 19.5487L88.5284 54.3441C88.769 55.7009 88.5573 56.6536 87.8741 57.2213Z" stroke="#1A6443" stroke-width="1.5" stroke-linecap="round" stroke-linejoin="round"/>
<path d="M67.2142 67.2866L66.3867 67.7004L60.1994 70.7989L60.1127 70.8374L59.5161 71.1357C57.8033 72.1076 56.764 73.8108 56.408 76.2357L51.5198 78.6798C52.203 78.2853 52.5493 77.5251 52.5493 76.3896C52.6648 71.9825 53.9542 68.8262 56.408 66.9306C58.2748 65.4872 60.5747 65.1504 63.3075 65.9202C64.1447 66.1511 65.0202 66.4976 65.9344 66.9402C66.4059 67.1423 66.8293 67.2674 67.2142 67.2866Z" stroke="#1A6443" stroke-width="1.5" stroke-linecap="round" stroke-linejoin="round"/>
<path d="M69.2832 63.9677L67.0893 51.5545L66.8198 49.9956L63.144 29.1721C62.7687 26.9589 61.9028 24.8613 60.5363 22.8694C59.1795 20.8679 57.6302 19.3668 55.8885 18.366L45.1112 12.1401C44.1585 11.5917 43.3502 11.4666 42.6766 11.736L42.4553 11.8418C41.7432 12.246 41.3872 13.0543 41.3872 14.2668C41.3872 15.4792 41.7432 16.6917 42.4553 17.9234C43.1674 19.1454 44.0527 20.0692 45.1112 20.6754L55.8885 26.9013L60.4978 53.1518L60.9981 56.0579L61.0944 56.5775C57.8034 55.8173 54.9262 56.0194 52.4629 57.1645L51.7701 57.5109C51.4141 57.713 51.0676 57.9247 50.7308 58.1652C50.6057 58.2518 50.4806 58.3481 50.3651 58.4443C47.7574 60.4554 46.1312 63.5828 45.4768 67.8264L35.6136 62.1297L25.8659 56.5005C25.1249 53.5849 23.7874 50.7751 21.8629 48.0615C19.9479 45.3575 17.7732 43.2983 15.3579 41.903C12.4615 40.2286 9.9596 39.8822 7.88111 40.8637L7.45778 41.0754C5.29268 42.3168 4.20532 44.7128 4.20532 48.2635C4.20532 51.8143 5.29268 55.4708 7.45778 59.214C9.62287 62.9572 12.2595 65.719 15.3579 67.5088C17.7732 68.9041 19.9479 69.3563 21.8629 68.8655C22.2093 68.7789 22.5268 68.6634 22.8347 68.5287L23.1619 68.3652L23.21 68.3364C24.4225 67.682 25.3078 66.5754 25.8659 65.0358L27.6845 66.0846L49.0084 78.4017C50.0092 78.979 50.8367 79.0656 51.5199 78.6807C52.2031 78.2862 52.5495 77.526 52.5495 76.3905C52.6649 71.9834 53.9544 68.8271 56.4081 66.9315C58.2749 65.4881 60.5748 65.1513 63.3077 65.9211C64.1448 66.152 65.0204 66.4984 65.9346 66.941C66.4061 67.1431 66.8295 67.2682 67.2144 67.2874C67.58 67.3163 67.9072 67.249 68.2055 67.1143L68.3499 67.0373C68.4462 66.9892 68.5423 66.9219 68.6289 66.8449C68.7925 66.7102 68.9176 66.5562 69.033 66.383C69.3891 65.8056 69.4661 65.0069 69.2832 63.9677ZM18.0042 59.2815C17.2921 59.6856 16.4164 59.5797 15.3579 58.9734C14.3091 58.3672 13.4238 57.4434 12.7117 56.2214C11.9996 54.9897 11.6436 53.7677 11.6436 52.5552C11.6436 51.3428 11.9996 50.5441 12.7117 50.14C13.4238 49.7262 14.3091 49.832 15.3579 50.4383C16.4164 51.0445 17.2921 51.9682 18.0042 53.1999C18.7259 54.4219 19.0819 55.6441 19.0819 56.8566C19.0819 58.069 18.7259 58.8677 18.0042 59.2815Z" stroke="#1A6443" stroke-width="1.5" stroke-linecap="round" stroke-linejoin="round"/>
<path d="M61.0942 56.5764C57.8032 55.8163 54.926 56.0183 52.4626 57.1634L58.0726 54.3632L60.4975 53.1509L60.9979 56.0568L61.0942 56.5764Z" stroke="#1A6443" stroke-width="1.5" stroke-linecap="round" stroke-linejoin="round"/>
<path d="M19.0819 56.8561C19.0819 58.0589 18.7258 58.8672 18.0041 59.281C17.292 59.6851 16.4164 59.5793 15.3579 58.973C14.309 58.3668 13.4237 57.443 12.7117 56.221C11.9996 54.9893 11.6436 53.7672 11.6436 52.5547C11.6436 51.3423 11.9996 50.5436 12.7117 50.1395C13.4237 49.7257 14.309 49.8315 15.3579 50.4378C16.4164 51.044 17.292 51.9678 18.0041 53.1995C18.7258 54.4215 19.0819 55.6436 19.0819 56.8561Z" stroke="#1A6443" stroke-width="1.5" stroke-linecap="round" stroke-linejoin="round"/>
<path d="M27.6845 66.0845L23.21 68.3362C24.4224 67.6819 25.3077 66.5753 25.8658 65.0356L27.6845 66.0845Z" stroke="#1A6443" stroke-width="1.5" stroke-linecap="round" stroke-linejoin="round"/>
</svg>
