<svg width="219" height="232" viewBox="0 0 219 232" fill="none" xmlns="http://www.w3.org/2000/svg">
<g opacity="0.04" clip-path="url(#clip0_3119_2639)">
<path fill-rule="evenodd" clip-rule="evenodd" d="M156.733 148.587C160.903 126.117 175.003 109.643 192.807 95.4282C177.042 120.588 166.831 147.933 167.112 179.313C160.092 172.601 152.874 166.083 145.456 159.757C147.326 154.938 149.72 149.969 152.263 145.02C153.759 146.196 155.255 147.373 156.733 148.587Z" fill="#AED13F"/>
<path fill-rule="evenodd" clip-rule="evenodd" d="M133.375 143.171C141.622 126.453 164.905 106.112 182.109 98.996C164.063 115.209 144.502 149.185 137.751 173.953C133.15 166.133 128.213 158.462 122.94 150.941C125.389 147.205 128.082 143.469 130.962 139.883C131.766 140.929 132.571 142.05 133.375 143.171Z" fill="#AED13F"/>
<path fill-rule="evenodd" clip-rule="evenodd" d="M16.2316 52.7106C26.3675 72.6966 36.5221 76.5817 45.0684 76.5817C47.7686 76.5127 50.4584 76.219 53.1098 75.7038C58.0094 74.8633 62.105 74.1348 65.0036 76.974C92.868 104.058 100.255 126.827 113.065 163.922C124.585 141.022 150.467 111.623 171.318 99.4068C153.048 102.956 126.23 118.197 114.842 133.028C104.145 106.281 93.055 92.9441 68.7812 76.5444C65.041 73.7239 61.3008 70.9408 57.5606 68.55C55.6905 67.3172 53.8204 66.1965 51.9503 65.1131C47.975 62.7697 43.7935 60.7941 39.4581 59.2107C44.0529 60.2731 48.4645 62.0105 52.5488 64.366C54.4189 65.3933 56.289 66.5327 58.1591 67.7468C61.5626 69.9322 64.9662 72.323 68.6877 74.7699C66.1069 70.2124 63.8067 66.3272 61.6935 63.0959C60.3658 61.0039 59.0941 59.1921 57.9533 57.6044C44.657 39.8598 39.2898 49.9089 16.2316 52.7106Z" fill="#AED13F"/>
<path d="M130.982 161.27C171.694 145.263 222.373 152.678 222.373 152.678L221.12 156.115C214.424 173.389 202.895 188.374 187.907 199.283C172.919 210.193 155.106 216.565 136.592 217.642C134.722 217.754 132.852 217.81 130.982 217.81C112.109 217.81 93.6501 212.292 77.8813 201.936C62.1126 191.58 49.7245 176.839 42.2457 159.533C41.7595 158.412 41.292 157.273 40.8431 156.115C40.3569 154.882 39.9081 153.612 39.478 152.379C82.0787 152.267 111.907 156.899 130.982 161.27Z" fill="#196444"/>
<path d="M222.391 152.603C222.391 152.603 171.711 145.132 130.999 161.195" stroke="white" stroke-miterlimit="10"/>
<path d="M157.93 169.974C157.93 169.974 123.613 152.267 39.4593 152.267" stroke="white" stroke-miterlimit="10"/>
<path d="M221.139 156.04C221.139 156.04 184.317 155.797 132.421 180.77" stroke="white" stroke-miterlimit="10"/>
<path d="M178.443 204.903C178.443 204.903 122.341 165.977 40.8419 156.04" stroke="white" stroke-miterlimit="10"/>
<path d="M219.398 159.458C219.398 159.458 195.181 165.211 156.189 191.959" stroke="white" stroke-miterlimit="10"/>
<path d="M136.609 217.567C136.609 217.567 88.922 174.924 42.2445 159.458" stroke="white" stroke-miterlimit="10"/>
<path d="M223.334 181.469L214.254 175.054L213.476 176.153L221.581 181.879L218.594 186.097L219.57 186.786L223.334 181.469Z" fill="#196444"/>
<path d="M204.344 190.729L203.527 189.864L197.485 195.557L198.302 196.422L200.835 194.035L207.619 201.217L208.594 200.298L201.81 193.115L204.344 190.729Z" fill="#196444"/>
<path d="M182.237 211.044C182.159 210.668 182.132 210.306 182.157 209.958C182.177 209.609 182.252 209.279 182.381 208.967C182.507 208.657 182.689 208.371 182.927 208.11C183.164 207.848 183.457 207.618 183.805 207.418C184.376 207.09 184.979 206.94 185.616 206.966C186.253 206.992 186.874 207.213 187.48 207.628C188.086 208.043 188.629 208.668 189.109 209.501C189.588 210.335 189.854 211.118 189.904 211.852C189.955 212.586 189.827 213.237 189.52 213.805C189.213 214.373 188.762 214.828 188.166 215.17C187.614 215.487 187.06 215.649 186.505 215.655C185.944 215.66 185.422 215.513 184.938 215.216C184.449 214.917 184.035 214.473 183.696 213.884L183.382 214.164L186.279 212.501L185.684 211.467L182.016 213.573L182.611 214.607C183.067 215.4 183.633 215.992 184.309 216.384C184.981 216.777 185.707 216.965 186.485 216.948C187.259 216.929 188.028 216.7 188.793 216.261C189.646 215.771 190.28 215.14 190.695 214.369C191.107 213.598 191.281 212.74 191.216 211.793C191.148 210.849 190.822 209.869 190.237 208.853C189.799 208.092 189.303 207.465 188.75 206.974C188.191 206.482 187.6 206.129 186.977 205.916C186.353 205.703 185.719 205.629 185.073 205.696C184.427 205.762 183.795 205.973 183.178 206.327C182.67 206.619 182.24 206.967 181.89 207.373C181.534 207.777 181.264 208.218 181.08 208.695C180.89 209.17 180.79 209.667 180.78 210.186C180.768 210.701 180.852 211.218 181.033 211.735L182.237 211.044Z" fill="#196444"/>
<path d="M169.335 226.077L166.2 215.461L162.613 216.518C161.783 216.762 161.144 217.105 160.695 217.545C160.246 217.981 159.965 218.483 159.854 219.049C159.744 219.615 159.78 220.211 159.965 220.836C160.15 221.462 160.441 221.979 160.84 222.387C161.239 222.795 161.743 223.06 162.354 223.181C162.963 223.298 163.679 223.236 164.502 222.993L167.405 222.138L167.062 220.977L164.2 221.82C163.634 221.987 163.153 222.038 162.758 221.974C162.36 221.911 162.038 221.75 161.793 221.492C161.543 221.231 161.356 220.889 161.23 220.463C161.105 220.038 161.075 219.644 161.14 219.279C161.205 218.914 161.386 218.594 161.684 218.318C161.982 218.039 162.417 217.815 162.991 217.646L165.251 216.98L168.049 226.456L169.335 226.077ZM162.929 222.78L161.724 228.319L163.217 227.879L164.38 222.353L162.929 222.78Z" fill="#196444"/>
<path d="M145.196 231.929L144.531 220.86L137.85 221.26L137.922 222.449L143.262 222.129L143.487 225.87L138.492 226.169L138.564 227.358L143.558 227.059L143.784 230.82L138.357 231.146L138.429 232.335L145.196 231.929Z" fill="#196444"/>
<path d="M121.938 232.46L123.578 221.513L116.971 220.526L116.795 221.702L122.076 222.491L121.522 226.19L116.583 225.452L116.407 226.628L121.346 227.366L120.789 231.086L115.422 230.284L115.246 231.46L121.938 232.46Z" fill="#196444"/>
<path d="M95.0274 214.566L90.9429 224.853L92.149 225.331L100.964 219.475L101.064 219.514L97.8574 227.592L99.1036 228.086L103.188 217.798L101.982 217.32L93.1391 223.189L93.0386 223.149L96.2535 215.051L95.0274 214.566Z" fill="#196444"/>
<path d="M75.5548 217.43L81.8565 208.33L76.3602 204.533L75.6832 205.51L80.0768 208.546L77.9474 211.62L73.8385 208.782L73.1616 209.759L77.2705 212.598L75.1289 215.691L70.6642 212.606L69.9873 213.584L75.5548 217.43Z" fill="#196444"/>
<path d="M57.1229 203.352L65.3185 195.83L62.7736 193.064C62.1851 192.425 61.5928 192 60.9964 191.79C60.4027 191.578 59.8258 191.547 59.2655 191.698C58.7052 191.848 58.1837 192.145 57.7008 192.588C57.2179 193.032 56.8804 193.523 56.6884 194.063C56.4963 194.603 56.4811 195.175 56.6428 195.779C56.8072 196.38 57.1811 196.998 57.7646 197.632L59.8241 199.87L60.7205 199.048L58.6905 196.841C58.2884 196.404 58.0288 195.994 57.9116 195.61C57.7921 195.223 57.7945 194.862 57.9189 194.526C58.0436 194.186 58.27 193.865 58.5981 193.564C58.9263 193.263 59.2695 193.061 59.6277 192.958C59.9859 192.855 60.3555 192.877 60.7366 193.024C61.1203 193.168 61.5156 193.462 61.9226 193.904L63.5261 195.647L56.2108 202.361L57.1229 203.352ZM57.2592 196.12L51.7241 197.484L52.7832 198.635L58.289 197.239L57.2592 196.12Z" fill="#196444"/>
<path d="M51.2779 180.365L50.5097 179.046L44.5284 178.988L44.4635 178.876L47.3721 173.656L46.6039 172.336L43.0074 179.025L39.0832 181.304L39.754 182.456L43.6782 180.178L51.2779 180.365Z" fill="#196444"/>
<path d="M34.3716 121.223C34.3716 146.82 44.552 171.368 62.6732 189.467C80.7944 207.567 105.372 217.735 130.999 217.735C156.627 217.735 181.204 207.567 199.325 189.467C217.447 171.368 227.627 146.82 227.627 121.223" stroke="#196444" stroke-miterlimit="10"/>
<path d="M0.93454 121.223C0.93454 155.677 14.6378 188.72 39.0297 213.083C63.4216 237.445 96.5041 251.132 130.999 251.132C165.495 251.132 198.577 237.445 222.969 213.083C247.361 188.72 261.064 155.677 261.064 121.223" stroke="#196444" stroke-miterlimit="10"/>
<path d="M56.6443 54.1677C57.9159 55.774 59.2624 57.6232 60.7024 59.7712C65.6343 53.4913 71.3252 47.8448 77.6454 42.9606C85.3098 37.0994 93.831 32.4501 102.91 29.1759C107.109 27.6219 111.416 26.3734 115.795 25.4402L118.974 24.8238C120.022 24.6183 121.069 24.5063 122.097 24.3568C124.192 24.0019 126.193 23.8899 128.194 23.6844C129.166 23.6844 130.232 23.6844 131.224 23.535H132.738H134.16H139.77L145.137 23.9272C146.016 23.9272 146.876 24.114 147.718 24.2448L150.186 24.5997C155.829 25.4398 161.378 26.8222 166.755 28.7276C167.859 29.1198 168.943 29.4561 169.916 29.8296L172.646 30.969L175.002 31.9216L176.873 32.8742L180.444 34.6113C180.737 34.7537 181.075 34.7746 181.383 34.6697C181.691 34.5647 181.945 34.3423 182.09 34.051C182.231 33.7672 182.257 33.4401 182.163 33.1375C182.069 32.8349 181.862 32.5801 181.585 32.4259L178.125 30.5581L176.255 29.5121L173.862 28.354L171.057 27.0279C170.065 26.5609 168.981 26.1686 167.84 25.7204C162.345 23.518 156.653 21.8418 150.841 20.7145L148.26 20.2476C147.383 20.0575 146.497 19.9141 145.605 19.818L139.994 19.1642L134.066 18.8467H131.093C130.064 18.8467 129.073 18.8467 127.988 18.8467C125.856 18.9961 123.65 19.0521 121.462 19.351C120.377 19.4817 119.255 19.5751 118.152 19.7432L114.785 20.3036C110.116 21.1133 105.515 22.2747 101.022 23.7778C83.6781 29.57 68.3052 40.0975 56.6443 54.1677Z" fill="#196444"/>
<path d="M30.8003 121.167C30.8003 122.568 30.8003 123.969 30.9312 125.351C30.9322 126.05 30.9697 126.748 31.0434 127.443L31.2117 129.591C31.687 135.156 32.619 140.672 33.9981 146.084C35.3832 151.342 37.197 156.477 39.4214 161.438C41.535 166.236 44.0498 170.847 46.9392 175.223C49.6767 179.438 52.7538 183.424 56.14 187.14C59.3303 190.655 62.7743 193.933 66.4442 196.946C67.3045 197.712 68.2021 198.403 69.1185 199.075C70.0348 199.748 70.895 200.458 71.7927 201.093C73.6628 202.344 75.402 203.614 77.2347 204.679C80.7296 206.821 84.3518 208.748 88.0812 210.45C89.9513 211.198 91.5783 212.001 93.2988 212.636C95.0192 213.271 96.6649 213.925 98.3293 214.392C103.966 216.23 109.764 217.531 115.646 218.277C119.419 218.74 123.216 218.983 127.017 219.005H131.037C131.365 219.005 131.679 218.875 131.91 218.644C132.141 218.413 132.271 218.099 132.271 217.772C132.259 217.464 132.134 217.17 131.921 216.947C131.708 216.724 131.42 216.585 131.112 216.558L127.204 216.316C124.66 216.129 120.939 215.699 116.282 214.877C110.927 214.058 105.635 212.873 100.443 211.328C98.8903 210.805 96.7023 209.461 95.0567 208.863C93.411 208.265 91.1108 207.182 89.4464 206.397C86.2133 204.73 83.0901 202.858 80.0959 200.794C72.7046 196.211 65.9834 190.629 60.1233 184.207C57.0086 180.686 54.1583 176.94 51.5957 173C48.7997 168.529 46.361 163.845 44.3023 158.991C42.3065 154.339 40.6625 149.544 39.384 144.646C38.1435 139.628 37.3055 134.519 36.8781 129.367C36.0137 118.802 36.9111 108.166 39.5336 97.894C41.2872 90.7351 43.9519 83.8301 47.4628 77.3477C45.4075 77.7597 43.2907 77.7597 41.2354 77.3477C38.3188 83.2469 36.0008 89.4229 34.316 95.7833C32.8824 101.297 31.9066 106.92 31.3987 112.594C31.3987 114.014 31.1369 115.433 31.1182 116.853C31.0995 118.272 30.8377 119.748 30.8003 121.167Z" fill="#196444"/>
<path d="M172.778 34.7793L173.002 34.4431L173.395 34.5739C173.619 34.5739 174.012 34.798 174.405 34.9848C174.866 35.2036 175.315 35.4467 175.751 35.7133C176.272 36.0147 176.772 36.3517 177.247 36.7219C178.324 37.5303 179.276 38.4933 180.071 39.5797C181.728 41.8494 182.637 44.5783 182.67 47.3873C182.69 48.7318 182.514 50.0721 182.147 51.3658C181.993 51.9451 181.799 52.5131 181.567 53.0656C181.361 53.5886 181.137 54.0555 180.931 54.4664C180.725 54.8774 180.501 55.1762 180.389 55.4004L180.164 55.7366L179.772 55.6058C179.547 55.4938 179.155 55.3817 178.781 55.1762C178.407 54.9708 177.902 54.7466 177.415 54.4664C176.929 54.1863 176.424 53.8314 175.919 53.4578C174.857 52.6388 173.913 51.6771 173.114 50.6C172.299 49.46 171.668 48.1994 171.244 46.8643C170.789 45.5413 170.549 44.1539 170.533 42.755C170.514 41.4105 170.69 40.0702 171.057 38.7765C171.211 38.1972 171.404 37.6293 171.637 37.0768C171.826 36.5966 172.044 36.1288 172.291 35.6759C172.439 35.3695 172.601 35.0703 172.778 34.7793Z" fill="#196444"/>
<path d="M183.774 38.814C183.538 38.371 183.326 37.9159 183.138 37.4504C182.97 37.0582 182.876 36.6659 182.783 36.4418L182.671 36.0495L183.026 35.8254C183.328 35.6397 183.64 35.4713 183.961 35.3211C184.411 35.0913 184.873 34.8856 185.345 34.7047C185.902 34.5003 186.471 34.3257 187.047 34.1817C188.318 33.8692 189.628 33.7372 190.936 33.7894C192.294 33.8701 193.632 34.16 194.901 34.6487C196.175 35.1344 197.362 35.8218 198.417 36.6846C199.434 37.5141 200.323 38.4898 201.054 39.5798C201.383 40.0656 201.683 40.5708 201.951 41.0927C202.213 41.597 202.419 42.0453 202.587 42.4563C202.755 42.8672 202.868 43.2408 202.942 43.4649C203.017 43.689 203.055 43.8571 203.055 43.8571L202.718 44.0813C202.494 44.1934 202.157 44.3988 201.764 44.5856L200.399 45.1833C199.876 45.3701 199.296 45.5569 198.697 45.7063C197.426 46.0188 196.116 46.1508 194.808 46.0986C192.076 45.9499 189.461 44.9505 187.327 43.2408C186.318 42.4021 185.431 41.4278 184.69 40.3456C184.354 39.854 184.048 39.3425 183.774 38.814Z" fill="#196444"/>
<path d="M189.852 25.4026C189.462 25.7156 189.056 26.0086 188.637 26.2805C188.135 26.6001 187.617 26.8931 187.085 27.1584C185.905 27.745 184.644 28.1542 183.344 28.3725C181.994 28.5877 180.618 28.5877 179.268 28.3725C177.92 28.179 176.613 27.769 175.396 27.1584C174.243 26.586 173.178 25.8499 172.236 24.973C171.787 24.5248 171.376 24.0952 171.02 23.6655C170.665 23.2359 170.366 22.8437 170.104 22.4701C169.842 22.0966 169.674 21.7603 169.543 21.5549C169.47 21.4427 169.407 21.3239 169.356 21.2L169.637 20.9198C169.824 20.7517 170.104 20.4715 170.441 20.21C170.777 19.9485 171.207 19.631 171.675 19.3321C172.165 18.9993 172.678 18.6998 173.208 18.4356C174.388 17.849 175.649 17.4398 176.949 17.2215C178.298 16.9971 179.676 16.9971 181.025 17.2215C182.374 17.4216 183.681 17.8378 184.897 18.4543C186.073 19.0392 187.157 19.7945 188.113 20.6957C188.543 21.1016 188.949 21.5319 189.329 21.9845C189.684 22.4141 190.002 22.825 190.245 23.1799C190.488 23.5348 190.675 23.8897 190.806 24.0952C190.937 24.3006 191.012 24.45 191.012 24.45L190.713 24.7302C190.469 24.861 190.189 25.1411 189.852 25.4026Z" fill="#196444"/>
<path d="M171.918 15.2603C171.57 15.6123 171.202 15.9429 170.814 16.2503C170.368 16.6208 169.9 16.9639 169.412 17.2776C168.328 17.9762 167.151 18.5171 165.915 18.884C164.634 19.2537 163.301 19.4115 161.969 19.3509C160.642 19.2867 159.335 19.0092 158.098 18.5291C156.897 18.071 155.77 17.4419 154.75 16.6612C154.283 16.269 153.834 15.8767 153.441 15.4845C153.09 15.1365 152.759 14.7686 152.45 14.3825C152.169 14.0649 151.964 13.7287 151.814 13.5419L151.664 13.1684L151.908 12.8508C152.076 12.6827 152.319 12.3652 152.637 12.0663C152.955 11.7675 153.31 11.4126 153.722 11.0577C154.133 10.7028 154.619 10.3666 155.143 10.0304C156.221 9.32683 157.4 8.79146 158.64 8.4427C159.914 8.07297 161.241 7.91521 162.567 7.97574C163.9 8.04618 165.214 8.32997 166.457 8.81627C167.648 9.28184 168.768 9.91047 169.786 10.6841C170.272 11.0764 170.702 11.4686 171.095 11.8422C171.487 12.2158 171.824 12.608 172.105 12.9442C172.385 13.2804 172.591 13.598 172.74 13.7847C172.89 13.9715 172.965 14.121 172.965 14.121L172.703 14.4385C172.46 14.644 172.236 14.9428 171.918 15.2603Z" fill="#196444"/>
<path d="M153.273 5.79026C153.049 6.20119 152.768 6.66815 152.45 7.15379C152.096 7.68307 151.715 8.19426 151.309 8.68542C150.392 9.77786 149.328 10.7394 148.149 11.5432C146.928 12.3881 145.593 13.0548 144.184 13.5232C142.754 14.0001 141.26 14.2582 139.752 14.289C138.329 14.3289 136.906 14.1718 135.526 13.822C134.889 13.6735 134.264 13.48 133.656 13.243C133.15 13.0632 132.657 12.8511 132.178 12.6079C131.806 12.4502 131.443 12.2693 131.094 12.0662C130.969 12.0023 130.85 11.9273 130.738 11.8421C130.777 11.7074 130.827 11.5761 130.888 11.4498C131.094 11.207 131.243 10.8334 131.468 10.4412C131.692 10.049 131.954 9.56331 132.272 9.05899C132.59 8.55467 132.964 8.06903 133.413 7.47132C135.297 5.20082 137.797 3.52115 140.612 2.6336C142.044 2.16497 143.538 1.91313 145.045 1.88646C146.474 1.84648 147.903 2.00361 149.29 2.35342C149.922 2.50801 150.546 2.69504 151.16 2.91377C151.702 3.13792 152.207 3.34338 152.618 3.54884C153.03 3.75431 153.385 3.95977 153.61 4.09052L153.965 4.31466C153.965 4.31466 153.965 4.46409 153.797 4.70691C153.628 4.94973 153.535 5.39801 153.273 5.79026Z" fill="#196444"/>
<path d="M127.054 12.0103C125.962 12.9171 124.739 13.6538 123.426 14.1956C122.163 14.7065 120.835 15.0397 119.481 15.1856C118.858 15.2236 118.233 15.2236 117.61 15.1856C117.118 15.2083 116.625 15.202 116.133 15.1669C115.703 15.1669 115.31 15.0548 115.048 15.0175H114.656C114.648 14.8806 114.648 14.7434 114.656 14.6066C114.656 14.3451 114.656 13.9528 114.656 13.5045C114.656 13.0562 114.749 12.5519 114.843 11.9729C114.944 11.3414 115.088 10.7174 115.273 10.105C115.645 8.78313 116.212 7.52404 116.956 6.36935C117.722 5.16781 118.676 4.09593 119.78 3.19401C120.908 2.28475 122.169 1.554 123.52 1.02731C124.747 0.535905 126.038 0.221444 127.354 0.0933831C127.976 0.0561119 128.601 0.0561119 129.224 0.0933831C129.736 0.0930606 130.248 0.12425 130.757 0.186775C131.187 0.186775 131.58 0.317525 131.842 0.336203H132.235C132.242 0.473075 132.242 0.610258 132.235 0.74713C132.235 0.98995 132.235 1.40088 132.235 1.83048C132.195 2.34455 132.127 2.85594 132.029 3.36212C131.934 3.9933 131.797 4.61735 131.617 5.22996C131.225 6.54745 130.652 7.80454 129.916 8.96566C129.113 10.1126 128.15 11.1381 127.054 12.0103Z" fill="#196444"/>
<path d="M105.567 19.0334C104.468 19.9465 103.247 20.701 101.939 21.2748C101.328 21.5336 100.704 21.758 100.069 21.9472C99.5075 22.1153 98.9838 22.2461 98.5163 22.3395C98.1528 22.4245 97.7843 22.4868 97.413 22.5263H97.0015C97.0015 22.5263 97.0015 22.3768 96.8706 22.1153C96.7397 21.8538 96.7023 21.4803 96.6275 21.032C96.5322 20.5066 96.4635 19.9767 96.4218 19.4443C96.3842 18.8223 96.3842 18.1985 96.4218 17.5765C96.4622 16.1494 96.7013 14.7349 97.1324 13.3738C98.0484 10.4844 99.7827 7.92185 102.126 5.99581C103.244 5.07742 104.484 4.31693 105.81 3.73571C106.416 3.46803 107.041 3.24333 107.68 3.06329C108.183 2.89679 108.695 2.75959 109.213 2.65236L110.317 2.46558H110.747C110.793 2.59991 110.831 2.73719 110.859 2.8765C110.859 3.11932 111.027 3.51157 111.102 3.95985C111.208 4.48361 111.277 5.01414 111.308 5.54753C111.345 6.16958 111.345 6.79332 111.308 7.41537C111.253 9.63362 110.725 11.8146 109.757 13.812C108.789 15.8094 107.405 17.5769 105.697 18.996L105.567 19.0334Z" fill="#196444"/>
<path d="M117.049 36.1988C117.869 37.2488 118.531 38.413 119.013 39.6543C119.239 40.2153 119.433 40.7891 119.593 41.3727C119.724 41.9144 119.836 42.4187 119.911 42.867C119.985 43.3153 119.911 43.6889 120.041 43.9317C120.172 44.1745 120.041 44.3426 120.041 44.3426L119.649 44.4734C119.406 44.4734 119.032 44.6601 118.601 44.7349C118.108 44.8444 117.608 44.9255 117.105 44.9777C116.485 45.0579 115.86 45.0954 115.235 45.0897C113.9 45.0936 112.571 44.9048 111.289 44.5294C109.956 44.1398 108.694 43.5409 107.549 42.7549C106.388 41.9835 105.364 41.024 104.52 39.9158C103.69 38.8689 103.022 37.7042 102.537 36.4603C102.313 35.8626 102.126 35.3022 101.976 34.7419C101.827 34.1815 101.733 33.6959 101.658 33.2663C101.603 32.9073 101.565 32.5457 101.546 32.1829C101.537 32.0461 101.537 31.9088 101.546 31.772L101.939 31.6412C102.182 31.6412 102.556 31.4545 102.986 31.3611C103.486 31.2531 103.992 31.1721 104.501 31.1182C105.121 31.038 105.746 31.0005 106.371 31.0062C107.706 31.0023 109.036 31.1911 110.317 31.5665C111.652 31.9933 112.914 32.6233 114.057 33.4344C115.193 34.1941 116.203 35.1269 117.049 36.1988Z" fill="#196444"/>
<path d="M122.192 26.953C122.698 26.95 123.204 26.9812 123.706 27.0464C126.063 27.2397 128.325 28.0562 130.261 29.4119C132.197 30.7677 133.736 32.6138 134.721 34.7606C135.273 35.947 135.657 37.2043 135.862 38.4963C135.95 39.1153 136 39.7391 136.012 40.3642C136.04 40.8681 136.04 41.3732 136.012 41.8771C136.012 42.3067 135.918 42.699 135.899 42.9418C135.881 43.1846 135.899 43.3527 135.899 43.3527H135.488C135.245 43.3527 134.852 43.3527 134.403 43.3527C133.899 43.386 133.393 43.386 132.889 43.3527C132.282 43.2634 131.682 43.1324 131.093 42.9605C129.785 42.669 128.525 42.1909 127.353 41.5409C126.138 40.8677 125.039 40.0036 124.099 38.982C122.228 36.9856 121.02 34.4612 120.639 31.7534C120.546 31.1347 120.49 30.511 120.471 29.8855C120.471 29.3252 120.471 28.8209 120.471 28.3726C120.471 27.9243 120.471 27.5507 120.583 27.3079C120.696 27.0651 120.583 26.897 120.583 26.897H120.995C121.395 26.8886 121.794 26.9073 122.192 26.953Z" fill="#196444"/>
<path d="M138.573 26.0004C139.004 26.0004 139.508 26.1685 140.032 26.2993C140.601 26.438 141.163 26.6063 141.715 26.8036C142.916 27.2607 144.043 27.8899 145.063 28.6714C146.119 29.4744 147.035 30.4464 147.774 31.5479C148.504 32.6558 149.054 33.8727 149.401 35.1529C149.72 36.3717 149.864 37.6293 149.831 38.8885C149.813 39.4698 149.763 40.0497 149.682 40.6256C149.682 41.1673 149.495 41.653 149.401 42.0826C149.308 42.5122 149.158 42.8671 149.102 43.0912L148.952 43.4648C148.822 43.4766 148.69 43.4766 148.56 43.4648L147.494 43.3527C147.064 43.3527 146.577 43.1846 146.054 43.0538C144.233 42.6134 142.521 41.8062 141.023 40.6817C138.929 39.0757 137.413 36.834 136.703 34.2936C136.37 33.0773 136.219 31.8185 136.254 30.5579C136.27 29.9757 136.326 29.3952 136.423 28.8208C136.486 28.3299 136.58 27.8433 136.703 27.3639C136.815 26.9343 136.946 26.5794 137.021 26.3366C137.096 26.0938 137.152 25.963 137.152 25.963H137.564C137.788 25.9257 138.181 25.9444 138.573 26.0004Z" fill="#196444"/>
<path d="M155.011 30.0349C155.236 29.4932 155.46 29.0263 155.666 28.634C155.871 28.2418 156.115 27.9056 156.246 27.7001L156.47 27.3452L156.863 27.4946C157.087 27.6067 157.461 27.7561 157.854 27.9616C158.317 28.1903 158.767 28.446 159.2 28.7274C159.718 29.0621 160.217 29.4237 160.696 29.8108C161.754 30.6734 162.685 31.6793 163.464 32.7993C164.279 33.9796 164.91 35.2771 165.334 36.6471C166.157 39.3441 166.157 42.2247 165.334 44.9217C165.182 45.5258 164.988 46.1187 164.754 46.6961C164.53 47.2191 164.306 47.6861 164.081 48.097C163.875 48.4893 163.651 48.8068 163.52 49.0309C163.454 49.1485 163.379 49.2608 163.296 49.3671C163.161 49.3285 163.029 49.2785 162.903 49.2177C162.679 49.1056 162.305 48.9749 161.912 48.7694C161.448 48.5338 160.999 48.2719 160.565 47.9849C160.05 47.6562 159.556 47.2943 159.088 46.9016C158.02 46.0444 157.082 45.0378 156.302 43.913C155.49 42.7306 154.86 41.4337 154.432 40.0653C154.002 38.6991 153.781 37.2759 153.777 35.8439C153.779 34.4574 153.987 33.0789 154.394 31.7533C154.566 31.169 154.772 30.5952 155.011 30.0349Z" fill="#196444"/>
<path fill-rule="evenodd" clip-rule="evenodd" d="M121.182 71.1277C124.098 70.9076 127.014 71.5556 129.562 72.99C132.109 74.4244 134.174 76.5808 135.495 79.1867C136.816 81.7926 137.334 84.7311 136.983 87.6309C136.633 90.5307 135.43 93.2617 133.526 95.4789C131.622 97.696 129.103 99.2998 126.287 100.088C123.471 100.875 120.484 100.812 117.705 99.9049C114.925 98.998 112.476 97.2885 110.669 94.9924C108.861 92.6962 107.776 89.9165 107.549 87.0044C107.25 83.0936 108.518 79.2242 111.075 76.2469C113.631 73.2697 117.267 71.4283 121.182 71.1277Z" fill="#F7C917"/>
<path d="M143.174 71.8374L135.319 79.6824" stroke="#F7C917" stroke-miterlimit="10"/>
<path d="M146.951 84.931H135.843" stroke="#F7C917" stroke-miterlimit="10"/>
<path d="M144.596 96.5304L134.46 92.0103" stroke="#F7C917" stroke-miterlimit="10"/>
<path d="M110.652 78.3561L101.021 72.8086" stroke="#F7C917" stroke-miterlimit="10"/>
<path d="M109.512 84.9312H98.4034" stroke="#F7C917" stroke-miterlimit="10"/>
<path d="M110.652 91.5059L101.021 97.0534" stroke="#F7C917" stroke-miterlimit="10"/>
<path d="M114.822 97.3523L108.071 106.15" stroke="#F7C917" stroke-miterlimit="10"/>
<path d="M121.219 99.9485L120.396 111.025" stroke="#F7C917" stroke-miterlimit="10"/>
<path d="M129.953 98.4729L134.123 108.765" stroke="#F7C917" stroke-miterlimit="10"/>
<path d="M124.959 62.5729L124.136 73.6305" stroke="#F7C917" stroke-miterlimit="10"/>
<path d="M136.686 65.1692L131.131 74.7699" stroke="#F7C917" stroke-miterlimit="10"/>
<path d="M110.803 63.1519L115.834 73.0514" stroke="#F7C917" stroke-miterlimit="10"/>
</g>
<defs>
<clipPath id="clip0_3119_2639">
<rect width="219" height="232" fill="white" transform="matrix(-1 0 0 1 219 0)"/>
</clipPath>
</defs>
</svg>
