<svg width="299" height="289" viewBox="0 0 299 289" fill="none" xmlns="http://www.w3.org/2000/svg">
<path fill-rule="evenodd" clip-rule="evenodd" d="M120.133 169.73C115.374 144.063 99.2823 125.244 78.9648 109.007C96.9561 137.747 108.609 168.983 108.289 204.828C116.299 197.162 124.537 189.715 133.003 182.489C130.868 176.984 128.137 171.309 125.234 165.655C123.527 166.999 121.819 168.343 120.133 169.73Z" fill="white"/>
<path fill-rule="evenodd" clip-rule="evenodd" d="M146.789 163.543C137.377 144.447 110.806 121.211 91.1719 113.082C111.767 131.602 134.09 170.413 141.795 198.705C147.045 189.772 152.679 181.01 158.698 172.418C155.902 168.151 152.829 163.884 149.542 159.787C148.624 160.982 147.707 162.262 146.789 163.543Z" fill="white"/>
<path fill-rule="evenodd" clip-rule="evenodd" d="M280.475 60.2111C268.907 83.0409 257.319 87.4788 247.565 87.4788C244.484 87.4 241.414 87.0646 238.388 86.476C232.797 85.5159 228.123 84.6838 224.815 87.9269C193.016 118.865 184.586 144.873 169.966 187.247C156.82 161.089 127.283 127.506 103.486 113.552C124.337 117.606 154.942 135.016 167.939 151.957C180.146 121.404 192.802 106.169 220.504 87.4362C224.772 84.2144 229.041 81.0353 233.309 78.3042C235.443 76.896 237.577 75.6159 239.712 74.3784C244.248 71.7015 249.02 69.4447 253.968 67.6361C248.724 68.8497 243.69 70.8342 239.029 73.5249C236.895 74.6984 234.76 75.9999 232.626 77.3868C228.742 79.8831 224.858 82.6142 220.611 85.4092C223.556 80.2032 226.181 75.7652 228.593 72.074C230.108 69.6844 231.559 67.6148 232.861 65.8012C248.035 45.5317 254.16 57.0106 280.475 60.2111Z" fill="white"/>
<path d="M149.521 184.217C103.059 165.932 45.2227 174.403 45.2227 174.403L46.6526 178.329C54.294 198.06 67.4516 215.178 84.5559 227.64C101.66 240.101 121.989 247.381 143.118 248.61C145.252 248.738 147.386 248.802 149.521 248.802C171.058 248.803 192.124 242.499 210.12 230.67C228.115 218.84 242.253 202.002 250.788 182.233C251.343 180.953 251.876 179.651 252.388 178.329C252.943 176.92 253.456 175.47 253.946 174.061C205.33 173.933 171.289 179.225 149.521 184.217Z" fill="white"/>
<path d="M45.2012 174.317C45.2012 174.317 103.038 165.783 149.499 184.132" stroke="#231F20" stroke-miterlimit="10"/>
<path d="M118.768 194.16C118.768 194.16 157.93 173.933 253.968 173.933" stroke="#231F20" stroke-miterlimit="10"/>
<path d="M46.6309 178.243C46.6309 178.243 88.6531 177.966 147.877 206.493" stroke="#231F20" stroke-miterlimit="10"/>
<path d="M95.3555 234.059C95.3555 234.059 159.381 189.594 252.389 178.243" stroke="#231F20" stroke-miterlimit="10"/>
<path d="M48.6152 182.148C48.6152 182.148 76.253 188.72 120.751 219.273" stroke="#231F20" stroke-miterlimit="10"/>
<path d="M143.098 248.525C143.098 248.525 197.519 199.814 250.789 182.148" stroke="#231F20" stroke-miterlimit="10"/>
<path d="M25.0216 185.967L24.4735 184.674L36.2429 184.097L36.7826 185.37L28.1842 193.425L27.636 192.133L34.9185 185.456L34.8848 185.377L25.0216 185.967ZM29.2021 184.758L31.4117 189.969L30.3177 190.433L28.1082 185.222L29.2021 184.758Z" fill="white"/>
<path d="M36.7676 212.26L45.8451 205.841L46.6227 206.94L38.5203 212.67L41.5052 216.888L40.5301 217.578L36.7676 212.26Z" fill="white"/>
<path d="M59.3553 224.541L60.1713 223.677L66.2109 229.373L65.3949 230.237L62.8626 227.849L56.082 235.035L55.1069 234.116L61.8875 226.93L59.3553 224.541Z" fill="white"/>
<path d="M85.4651 248.207C85.5436 247.831 85.5703 247.469 85.5452 247.121C85.525 246.772 85.4503 246.441 85.321 246.129C85.1948 245.819 85.013 245.533 84.7755 245.271C84.538 245.01 84.2453 244.779 83.8973 244.579C83.3267 244.251 82.7232 244.101 82.0867 244.127C81.4502 244.153 80.8291 244.374 80.2235 244.789C79.6178 245.204 79.0753 245.828 78.596 246.662C78.1167 247.496 77.8517 248.28 77.8009 249.014C77.7502 249.748 77.8784 250.399 78.1855 250.967C78.4926 251.536 78.944 251.991 79.5397 252.333C80.0915 252.65 80.645 252.812 81.2002 252.818C81.7604 252.823 82.2824 252.677 82.7661 252.38C83.2549 252.081 83.6686 251.637 84.0074 251.047L84.3215 251.328L81.4248 249.664L82.0195 248.629L85.6874 250.737L85.0928 251.771C84.6369 252.564 84.0711 253.156 83.3956 253.548C82.7232 253.942 81.9979 254.129 81.2198 254.112C80.4466 254.093 79.6775 253.864 78.9126 253.424C78.0599 252.934 77.4259 252.303 77.0108 251.531C76.5988 250.76 76.4251 249.902 76.4899 248.955C76.5577 248.01 76.8836 247.029 77.4674 246.014C77.9053 245.252 78.4009 244.626 78.9543 244.135C79.5126 243.642 80.1033 243.289 80.7263 243.076C81.3494 242.863 81.9838 242.79 82.6295 242.856C83.2751 242.923 83.9068 243.133 84.5244 243.488C85.0322 243.78 85.4615 244.129 85.8121 244.535C86.1676 244.939 86.4376 245.38 86.6221 245.857C86.8115 246.333 86.9114 246.83 86.9218 247.349C86.9339 247.865 86.8496 248.381 86.6689 248.899L85.4651 248.207Z" fill="white"/>
<path d="M103.344 265.738L106.475 255.121L110.063 256.179C110.892 256.424 111.531 256.766 111.98 257.206C112.43 257.643 112.71 258.145 112.821 258.711C112.932 259.277 112.895 259.873 112.711 260.498C112.526 261.124 112.235 261.641 111.836 262.049C111.438 262.458 110.933 262.722 110.323 262.843C109.714 262.96 108.998 262.897 108.175 262.655L105.272 261.799L105.615 260.638L108.476 261.481C109.043 261.648 109.524 261.7 109.918 261.636C110.316 261.573 110.638 261.412 110.883 261.154C111.133 260.893 111.32 260.551 111.446 260.125C111.571 259.7 111.601 259.305 111.536 258.941C111.471 258.576 111.289 258.255 110.991 257.98C110.694 257.701 110.259 257.476 109.685 257.307L107.425 256.641L104.629 266.117L103.344 265.738ZM109.748 262.442L110.954 267.982L109.461 267.542L108.297 262.014L109.748 262.442Z" fill="white"/>
<path d="M132.638 272.771L133.302 261.702L139.982 262.103L139.911 263.292L134.571 262.971L134.347 266.712L139.341 267.011L139.269 268.2L134.275 267.901L134.049 271.662L139.476 271.988L139.404 273.177L132.638 272.771Z" fill="white"/>
<path d="M160.817 273.345L159.179 262.398L165.786 261.409L165.962 262.585L160.68 263.375L161.234 267.074L166.173 266.336L166.349 267.511L161.41 268.25L161.967 271.971L167.334 271.168L167.51 272.344L160.817 273.345Z" fill="white"/>
<path d="M192.702 254.4L196.783 264.689L195.577 265.167L186.766 259.311L186.665 259.351L189.87 267.43L188.624 267.924L184.542 257.634L185.748 257.156L194.588 263.024L194.688 262.985L191.476 254.886L192.702 254.4Z" fill="white"/>
<path d="M217.096 254.949L210.798 245.846L216.293 242.047L216.969 243.025L212.577 246.062L214.705 249.138L218.813 246.297L219.489 247.275L215.381 250.116L217.522 253.209L221.985 250.123L222.662 251.101L217.096 254.949Z" fill="white"/>
<path d="M240.215 238.432L232.023 230.906L234.566 228.139C235.154 227.499 235.746 227.074 236.342 226.865C236.936 226.652 237.513 226.622 238.073 226.772C238.633 226.923 239.154 227.22 239.637 227.663C240.119 228.107 240.457 228.599 240.649 229.139C240.841 229.679 240.856 230.251 240.694 230.855C240.53 231.457 240.156 232.075 239.573 232.709L237.515 234.949L236.619 234.125L238.648 231.918C239.049 231.481 239.309 231.07 239.426 230.686C239.545 230.299 239.543 229.938 239.419 229.602C239.294 229.261 239.068 228.94 238.74 228.639C238.412 228.338 238.069 228.136 237.711 228.033C237.353 227.93 236.983 227.952 236.602 228.099C236.219 228.243 235.824 228.537 235.417 228.979L233.814 230.723L241.126 237.44L240.215 238.432ZM240.078 231.196L245.611 232.562L244.552 233.713L239.049 232.316L240.078 231.196Z" fill="white"/>
<path d="M248.609 210.819L249.377 209.499L255.356 209.442L255.421 209.331L252.512 204.108L253.28 202.788L256.876 209.48L260.8 211.761L260.129 212.913L256.206 210.633L248.609 210.819Z" fill="white"/>
<path d="M259.774 138.472C259.774 167.711 248.156 195.752 227.475 216.427C206.795 237.102 178.747 248.717 149.5 248.717C120.254 248.717 92.2053 237.102 71.525 216.427C50.8446 195.752 39.2266 167.711 39.2266 138.472" stroke="white" stroke-miterlimit="10"/>
<path d="M297.932 138.472C297.932 177.829 282.294 215.573 254.457 243.403C226.621 271.232 188.866 286.866 149.499 286.866C110.132 286.866 72.378 271.232 44.5414 243.403C16.7048 215.573 1.06641 177.829 1.06641 138.472" stroke="white" stroke-miterlimit="10"/>
<path d="M234.355 61.8752C232.904 63.7102 231.367 65.8224 229.724 68.2761C224.095 61.1026 217.601 54.6527 210.388 49.0735C201.641 42.3782 191.917 37.0674 181.555 33.3273C176.763 31.5522 171.849 30.126 166.851 29.06L163.223 28.3559C162.028 28.1212 160.832 27.9932 159.659 27.8225C157.268 27.4171 154.985 27.2891 152.701 27.0544C151.591 27.0544 150.375 27.0544 149.244 26.8837H147.515H145.893H139.49L133.365 27.3318C132.362 27.3318 131.381 27.5452 130.42 27.6945L127.603 28.0999C121.163 29.0596 114.831 30.6387 108.694 32.8152C107.435 33.2633 106.197 33.6473 105.087 34.0741L101.971 35.3756L99.2823 36.4637L97.1481 37.5519L93.0718 39.5361C92.7376 39.6988 92.3527 39.7227 92.0009 39.6028C91.6491 39.4829 91.359 39.2289 91.1937 38.8961C91.0328 38.5719 91.0029 38.1982 91.1102 37.8526C91.2175 37.507 91.4537 37.2159 91.77 37.0398L95.7182 34.9062L97.8524 33.7113L100.584 32.3885L103.785 30.8736C104.917 30.3402 106.154 29.8921 107.456 29.3801C113.727 26.8643 120.223 24.9496 126.856 23.6619L129.801 23.1285C130.802 22.9114 131.814 22.7476 132.832 22.6378L139.234 21.891L146 21.5283H149.393C150.567 21.5283 151.698 21.5283 152.936 21.5283C155.369 21.699 157.887 21.763 160.384 22.1044C161.622 22.2538 162.903 22.3604 164.162 22.5525L168.003 23.1926C173.332 24.1175 178.583 25.4441 183.711 27.1611C203.504 33.7775 221.047 45.8029 234.355 61.8752Z" fill="white"/>
<path d="M263.85 138.408C263.85 140.009 263.85 141.609 263.701 143.188C263.699 143.986 263.657 144.784 263.573 145.577L263.38 148.031C262.838 154.387 261.774 160.689 260.2 166.871C258.62 172.876 256.55 178.742 254.011 184.409C251.599 189.89 248.729 195.157 245.432 200.156C242.308 204.971 238.796 209.524 234.932 213.768C231.291 217.784 227.361 221.528 223.172 224.97C222.191 225.845 221.166 226.634 220.12 227.402C219.075 228.17 218.093 228.981 217.069 229.706C214.934 231.136 212.95 232.587 210.858 233.803C206.869 236.25 202.736 238.451 198.48 240.396C196.346 241.249 194.489 242.167 192.525 242.892C190.562 243.618 188.684 244.364 186.784 244.898C180.352 246.998 173.735 248.484 167.022 249.336C162.716 249.865 158.384 250.143 154.046 250.168H149.457C149.084 250.168 148.726 250.02 148.461 249.755C148.197 249.491 148.049 249.133 148.049 248.76C148.063 248.407 148.205 248.072 148.449 247.817C148.692 247.562 149.021 247.404 149.372 247.373L153.832 247.095C156.735 246.882 160.982 246.391 166.296 245.453C172.407 244.517 178.447 243.163 184.373 241.399C186.144 240.801 188.641 239.265 190.519 238.582C192.397 237.9 195.022 236.662 196.922 235.766C200.611 233.862 204.176 231.724 207.593 229.365C216.028 224.13 223.698 217.754 230.386 210.418C233.94 206.396 237.193 202.117 240.118 197.617C243.309 192.51 246.092 187.159 248.441 181.614C250.719 176.3 252.595 170.823 254.054 165.228C255.47 159.496 256.426 153.66 256.914 147.775C257.9 135.706 256.876 123.557 253.883 111.823C251.882 103.646 248.841 95.7583 244.834 88.3535C247.18 88.8242 249.596 88.8242 251.941 88.3535C255.27 95.0921 257.915 102.147 259.838 109.412C261.474 115.711 262.587 122.134 263.167 128.615C263.167 130.237 263.466 131.858 263.487 133.48C263.508 135.101 263.807 136.787 263.85 138.408Z" fill="white"/>
<path d="M101.821 39.728L101.565 39.344L101.117 39.4933C100.861 39.4933 100.412 39.7494 99.9641 39.9627C99.4375 40.2126 98.9246 40.4904 98.4275 40.7949C97.8326 41.1392 97.2621 41.5242 96.7202 41.947C95.4909 42.8705 94.405 43.9705 93.4976 45.2115C91.6061 47.8041 90.5693 50.9213 90.531 54.13C90.5083 55.6659 90.7096 57.1969 91.1286 58.6747C91.3038 59.3364 91.5249 59.9852 91.7902 60.6163C92.025 61.2137 92.2811 61.7471 92.5158 62.2165C92.7506 62.6859 93.0067 63.0273 93.1347 63.2833L93.3908 63.6674L93.839 63.518C94.0951 63.39 94.5433 63.262 94.9701 63.0273C95.397 62.7926 95.9732 62.5365 96.5281 62.2165C97.083 61.8964 97.6592 61.4911 98.2354 61.0643C99.4479 60.1288 100.525 59.0303 101.437 57.7999C102.367 56.4976 103.087 55.0577 103.571 53.5326C104.091 52.0214 104.365 50.4366 104.382 48.8386C104.405 47.3028 104.203 45.7718 103.784 44.294C103.609 43.6323 103.388 42.9835 103.123 42.3524C102.907 41.8039 102.658 41.2695 102.376 40.7522C102.207 40.4022 102.022 40.0604 101.821 39.728Z" fill="white"/>
<path d="M89.273 44.3366C89.5423 43.8307 89.7845 43.3107 89.9986 42.7791C90.1907 42.331 90.2974 41.883 90.4041 41.6269L90.5322 41.1789L90.1267 40.9228C89.7822 40.7107 89.4259 40.5184 89.0596 40.3468C88.546 40.0843 88.0188 39.8493 87.4803 39.6427C86.844 39.4091 86.1957 39.2097 85.5382 39.0452C84.0869 38.6883 82.5925 38.5375 81.0991 38.5972C79.5493 38.6894 78.0232 39.0204 76.5746 39.5786C75.121 40.1335 73.7662 40.9188 72.5623 41.9043C71.4012 42.8518 70.3871 43.9663 69.5531 45.2114C69.1771 45.7663 68.835 46.3435 68.5287 46.9397C68.2299 47.5157 67.9952 48.0278 67.8031 48.4972C67.611 48.9666 67.4829 49.3933 67.3976 49.6494C67.3122 49.9054 67.2695 50.0974 67.2695 50.0974L67.6537 50.3535C67.9098 50.4815 68.2939 50.7162 68.7421 50.9296L70.3001 51.6123C70.8976 51.8257 71.5592 52.039 72.2422 52.2097C73.6935 52.5666 75.1879 52.7175 76.6813 52.6578C79.7981 52.488 82.7835 51.3464 85.2181 49.3933C86.3692 48.4354 87.382 47.3224 88.2273 46.0862C88.6108 45.5246 88.9601 44.9404 89.273 44.3366Z" fill="white"/>
<path d="M82.3369 29.0172C82.782 29.3747 83.245 29.7094 83.7241 30.02C84.2966 30.3851 84.8879 30.7198 85.4955 31.0228C86.8421 31.6929 88.2805 32.1603 89.7639 32.4097C91.305 32.6554 92.8753 32.6554 94.4164 32.4097C95.9541 32.1886 97.446 31.7202 98.8342 31.0228C100.151 30.369 101.365 29.5282 102.441 28.5265C102.953 28.0144 103.423 27.5237 103.828 27.0329C104.234 26.5422 104.575 26.0941 104.874 25.6674C105.173 25.2407 105.365 24.8566 105.514 24.6219C105.598 24.4938 105.669 24.3581 105.728 24.2166L105.407 23.8965C105.194 23.7045 104.874 23.3844 104.49 23.0857C104.106 22.787 103.615 22.4243 103.081 22.0829C102.521 21.7028 101.937 21.3606 101.331 21.0588C99.9845 20.3887 98.5462 19.9214 97.0628 19.6719C95.5225 19.4157 93.9505 19.4157 92.4102 19.6719C90.8714 19.9005 89.3796 20.376 87.9925 21.0801C86.6495 21.7483 85.4125 22.611 84.3217 23.6405C83.8313 24.1042 83.3682 24.5957 82.9344 25.1127C82.5289 25.6034 82.1661 26.0728 81.8887 26.4782C81.6112 26.8836 81.3978 27.289 81.2484 27.5237C81.099 27.7584 81.0137 27.9291 81.0137 27.9291L81.3551 28.2491C81.6326 28.3985 81.9527 28.7185 82.3369 29.0172Z" fill="white"/>
<path d="M102.803 17.4317C103.199 17.8338 103.62 18.2114 104.062 18.5626C104.571 18.9858 105.106 19.3777 105.662 19.7361C106.899 20.5341 108.243 21.1519 109.653 21.571C111.115 21.9934 112.636 22.1736 114.156 22.1044C115.67 22.0311 117.162 21.7141 118.574 21.1656C119.944 20.6424 121.231 19.9237 122.394 19.032C122.928 18.5839 123.44 18.1358 123.888 17.6878C124.289 17.2903 124.667 16.87 125.019 16.4289C125.34 16.0662 125.574 15.6822 125.745 15.4688L125.916 15.0421L125.638 14.6794C125.446 14.4873 125.169 14.1246 124.806 13.7832C124.443 13.4419 124.038 13.0365 123.568 12.6311C123.099 12.2257 122.544 11.8416 121.946 11.4576C120.716 10.6539 119.37 10.0424 117.955 9.644C116.501 9.22165 114.987 9.04144 113.474 9.11059C111.952 9.19106 110.453 9.51523 109.034 10.0707C107.675 10.6025 106.397 11.3206 105.236 12.2044C104.681 12.6524 104.19 13.1005 103.742 13.5272C103.293 13.9539 102.909 14.402 102.589 14.786C102.269 15.1701 102.034 15.5328 101.864 15.7462C101.693 15.9595 101.607 16.1302 101.607 16.1302L101.906 16.4929C102.184 16.7276 102.44 17.069 102.803 17.4317Z" fill="white"/>
<path d="M124.081 6.61419C124.337 7.08358 124.657 7.61699 125.02 8.17173C125.424 8.77633 125.859 9.36025 126.322 9.92131C127.369 11.1692 128.582 12.2676 129.928 13.1858C131.321 14.1509 132.845 14.9124 134.453 15.4474C136.085 15.9922 137.79 16.2871 139.511 16.3222C141.136 16.3678 142.759 16.1883 144.334 15.7888C145.06 15.6191 145.773 15.3981 146.468 15.1274C147.045 14.922 147.608 14.6797 148.154 14.4019C148.579 14.2218 148.993 14.0151 149.392 13.7832C149.535 13.7102 149.67 13.6245 149.798 13.5271C149.753 13.3732 149.696 13.2234 149.627 13.0791C149.392 12.8017 149.221 12.375 148.965 11.9269C148.709 11.4789 148.41 10.9241 148.048 10.348C147.685 9.77196 147.258 9.21721 146.746 8.53445C144.595 5.94087 141.743 4.0222 138.529 3.00835C136.895 2.47305 135.19 2.18537 133.471 2.1549C131.839 2.10923 130.209 2.28873 128.626 2.68831C127.905 2.86489 127.192 3.07854 126.492 3.3284C125.873 3.58443 125.297 3.81913 124.828 4.05383C124.358 4.28853 123.953 4.52323 123.697 4.67258L123.291 4.92862C123.291 4.92862 123.291 5.09931 123.483 5.37668C123.675 5.65405 123.782 6.16612 124.081 6.61419Z" fill="white"/>
<path d="M154.002 13.7192C155.249 14.755 156.644 15.5966 158.142 16.2155C159.584 16.7991 161.099 17.1797 162.646 17.3464C163.356 17.3898 164.069 17.3898 164.78 17.3464C165.342 17.3723 165.905 17.3651 166.466 17.325C166.957 17.325 167.405 17.197 167.704 17.1543H168.152C168.16 16.998 168.16 16.8413 168.152 16.6849C168.152 16.3862 168.152 15.9382 168.152 15.4261C168.152 14.914 168.045 14.3379 167.938 13.6765C167.823 12.9552 167.659 12.2423 167.448 11.5429C167.023 10.0329 166.376 8.59462 165.527 7.27563C164.652 5.90312 163.564 4.67872 162.304 3.64846C161.017 2.60982 159.577 1.77509 158.036 1.17345C156.635 0.612128 155.162 0.252921 153.661 0.106638C152.95 0.0640634 152.237 0.0640634 151.526 0.106638C150.942 0.10627 150.357 0.141897 149.776 0.213319C149.286 0.213319 148.837 0.362673 148.539 0.38401H148.09C148.082 0.540357 148.082 0.69706 148.09 0.853408C148.09 1.13078 148.09 1.60018 148.09 2.09091C148.135 2.67813 148.213 3.26228 148.325 3.84049C148.433 4.56149 148.59 5.27433 148.795 5.97412C149.243 7.47907 149.896 8.91503 150.737 10.2414C151.652 11.5516 152.752 12.7229 154.002 13.7192Z" fill="white"/>
<path d="M178.524 21.7417C179.777 22.7847 181.171 23.6466 182.664 24.3021C183.36 24.5976 184.073 24.8541 184.798 25.0702C185.438 25.2622 186.036 25.4115 186.569 25.5182C186.984 25.6153 187.405 25.6865 187.829 25.7316H188.298C188.298 25.7316 188.298 25.5609 188.448 25.2622C188.597 24.9635 188.64 24.5367 188.725 24.0247C188.834 23.4245 188.912 22.8192 188.96 22.2111C189.003 21.5005 189.003 20.788 188.96 20.0775C188.914 18.4474 188.641 16.8316 188.149 15.2768C187.103 11.9763 185.124 9.04906 182.45 6.84896C181.174 5.79989 179.759 4.9312 178.246 4.26727C177.554 3.9615 176.84 3.70483 176.112 3.49917C175.538 3.30898 174.954 3.15225 174.362 3.02977L173.103 2.81641H172.612C172.559 2.96985 172.516 3.12666 172.484 3.2858C172.484 3.56318 172.292 4.01124 172.206 4.52331C172.086 5.12159 172.007 5.72761 171.972 6.33689C171.929 7.04746 171.929 7.75996 171.972 8.47052C172.034 11.0044 172.637 13.4957 173.741 15.7773C174.846 18.0589 176.425 20.078 178.374 21.699L178.524 21.7417Z" fill="white"/>
<path d="M165.421 41.3496C164.485 42.5491 163.73 43.8789 163.18 45.2968C162.921 45.9377 162.7 46.5931 162.518 47.2597C162.369 47.8785 162.241 48.4546 162.155 48.9667C162.07 49.4787 162.155 49.9055 162.006 50.1828C161.856 50.4602 162.006 50.6522 162.006 50.6522L162.454 50.8016C162.731 50.8016 163.158 51.0149 163.649 51.1003C164.212 51.2254 164.783 51.318 165.357 51.3777C166.064 51.4693 166.777 51.5121 167.491 51.5057C169.015 51.5101 170.531 51.2945 171.994 50.8656C173.515 50.4206 174.956 49.7364 176.262 48.8386C177.587 47.9575 178.756 46.8614 179.72 45.5955C180.666 44.3997 181.428 43.0693 181.982 41.6483C182.238 40.9655 182.451 40.3255 182.622 39.6854C182.793 39.0453 182.9 38.4905 182.985 37.9998C183.049 37.5898 183.091 37.1767 183.113 36.7623C183.123 36.606 183.123 36.4492 183.113 36.2929L182.665 36.1435C182.387 36.1435 181.961 35.9302 181.47 35.8235C180.899 35.7002 180.322 35.6076 179.741 35.5461C179.033 35.4544 178.32 35.4117 177.607 35.4181C176.083 35.4137 174.566 35.6293 173.104 36.0582C171.58 36.5457 170.14 37.2654 168.835 38.1918C167.539 39.0597 166.387 40.1252 165.421 41.3496Z" fill="white"/>
<path d="M159.552 30.7882C158.974 30.7847 158.397 30.8203 157.823 30.8949C155.134 31.1156 152.552 32.0483 150.343 33.597C148.134 35.1456 146.377 37.2545 145.253 39.7067C144.623 41.0619 144.185 42.4981 143.951 43.974C143.851 44.6811 143.794 45.3936 143.781 46.1076C143.748 46.6832 143.748 47.2603 143.781 47.8359C143.781 48.3266 143.887 48.7747 143.909 49.052C143.93 49.3294 143.909 49.5214 143.909 49.5214H144.378C144.656 49.5214 145.104 49.5214 145.616 49.5214C146.192 49.5595 146.769 49.5595 147.345 49.5214C148.037 49.4194 148.722 49.2697 149.393 49.0734C150.887 48.7404 152.324 48.1943 153.662 47.4518C155.048 46.6828 156.302 45.6958 157.375 44.5287C159.51 42.2483 160.889 39.3647 161.324 36.2716C161.43 35.5649 161.494 34.8524 161.516 34.138C161.516 33.4979 161.516 32.9218 161.516 32.4097C161.516 31.8977 161.516 31.4709 161.388 31.1936C161.26 30.9162 161.388 30.7242 161.388 30.7242H160.918C160.462 30.7145 160.006 30.7359 159.552 30.7882Z" fill="white"/>
<path d="M140.855 29.7001C140.364 29.7001 139.788 29.8922 139.19 30.0415C138.541 30.2 137.899 30.3923 137.27 30.6176C135.899 31.1397 134.612 31.8585 133.449 32.7512C132.244 33.6685 131.198 34.7787 130.355 36.037C129.522 37.3026 128.895 38.6926 128.498 40.1549C128.135 41.5472 127.97 42.9838 128.007 44.4222C128.029 45.0862 128.086 45.7485 128.178 46.4064C128.178 47.0252 128.391 47.5799 128.498 48.0707C128.605 48.5614 128.776 48.9668 128.84 49.2228L129.01 49.6496C129.159 49.6631 129.309 49.6631 129.458 49.6496L130.675 49.5215C131.166 49.5215 131.721 49.3295 132.318 49.1802C134.396 48.677 136.35 47.7549 138.059 46.4705C140.45 44.636 142.18 42.0753 142.989 39.1734C143.369 37.784 143.542 36.346 143.501 34.9062C143.484 34.2411 143.42 33.578 143.309 32.9219C143.237 32.3611 143.13 31.8052 142.989 31.2577C142.861 30.7669 142.712 30.3616 142.626 30.0842C142.541 29.8068 142.477 29.6575 142.477 29.6575H142.007C141.751 29.6148 141.303 29.6361 140.855 29.7001Z" fill="white"/>
<path d="M122.096 34.3088C121.84 33.69 121.584 33.1566 121.349 32.7085C121.114 32.2605 120.837 31.8764 120.688 31.6417L120.432 31.2363L119.983 31.407C119.727 31.535 119.3 31.7057 118.852 31.9404C118.323 32.2017 117.81 32.4938 117.316 32.8152C116.725 33.1975 116.155 33.6106 115.608 34.0527C114.402 35.0381 113.338 36.1871 112.45 37.4665C111.519 38.8148 110.8 40.2969 110.315 41.8618C109.377 44.9426 109.377 48.233 110.315 51.3138C110.489 52.0039 110.71 52.6811 110.977 53.3407C111.233 53.9381 111.489 54.4715 111.745 54.9409C111.98 55.389 112.236 55.7517 112.386 56.0078C112.461 56.142 112.547 56.2704 112.642 56.3918C112.796 56.3477 112.946 56.2906 113.09 56.2211C113.346 56.0931 113.773 55.9437 114.221 55.709C114.75 55.4399 115.263 55.1407 115.758 54.8129C116.346 54.4374 116.909 54.024 117.444 53.5754C118.662 52.5962 119.733 51.4464 120.624 50.1616C121.55 48.8109 122.269 47.3295 122.758 45.7663C123.248 44.2058 123.5 42.5801 123.505 40.9443C123.502 39.3606 123.265 37.7859 122.8 36.2717C122.604 35.6042 122.369 34.9487 122.096 34.3088Z" fill="white"/>
<path fill-rule="evenodd" clip-rule="evenodd" d="M160.705 81.2485C157.377 80.997 154.049 81.7372 151.142 83.3757C148.235 85.0142 145.879 87.4775 144.371 90.4542C142.864 93.4309 142.273 96.7875 142.672 100.1C143.072 103.412 144.445 106.532 146.618 109.065C148.791 111.597 151.666 113.429 154.879 114.329C158.093 115.229 161.501 115.156 164.674 114.12C167.846 113.084 170.64 111.132 172.703 108.509C174.766 105.886 176.005 102.711 176.263 99.3843C176.604 94.917 175.157 90.497 172.24 87.0961C169.322 83.6952 165.173 81.5918 160.705 81.2485Z" fill="white"/>
<path d="M135.605 82.0593L144.569 91.0206" stroke="white" stroke-miterlimit="10"/>
<path d="M131.295 97.0161H143.972" stroke="white" stroke-miterlimit="10"/>
<path d="M133.984 110.266L145.552 105.103" stroke="white" stroke-miterlimit="10"/>
<path d="M172.719 89.5056L183.71 83.1687" stroke="white" stroke-miterlimit="10"/>
<path d="M174.021 97.0161H186.699" stroke="white" stroke-miterlimit="10"/>
<path d="M172.719 104.526L183.71 110.863" stroke="white" stroke-miterlimit="10"/>
<path d="M167.961 111.205L175.665 121.254" stroke="white" stroke-miterlimit="10"/>
<path d="M160.66 114.17L161.599 126.823" stroke="white" stroke-miterlimit="10"/>
<path d="M150.695 112.485L145.936 124.241" stroke="white" stroke-miterlimit="10"/>
<path d="M156.393 71.4766L157.332 84.1076" stroke="white" stroke-miterlimit="10"/>
<path d="M143.012 74.4424L149.35 85.4092" stroke="white" stroke-miterlimit="10"/>
<path d="M172.548 72.1379L166.807 83.4462" stroke="white" stroke-miterlimit="10"/>
</svg>
