<svg width="52" height="52" viewBox="0 0 52 52" fill="none" xmlns="http://www.w3.org/2000/svg">
<path fill-rule="evenodd" clip-rule="evenodd" d="M10.9167 10.916C12.5287 9.30404 15.5892 8.6869 19.9414 9.96697C20.2482 10.0572 20.5584 10.1562 20.8716 10.264C18.8982 11.6646 16.9647 13.2944 15.1299 15.1292C14.4204 15.8387 13.7427 16.5617 13.0979 17.2949C12.2088 18.3058 12.3076 19.8459 13.3185 20.735C14.3293 21.624 15.8695 21.5253 16.7585 20.5144C17.3345 19.8596 17.9409 19.2125 18.577 18.5764C20.9856 16.1678 23.5358 14.1998 26.0458 12.705C28.5558 14.1998 31.106 16.1678 33.5147 18.5764C36.2478 21.3096 38.4136 24.2251 39.9645 27.0573C40.012 27.1625 40.0671 27.2645 40.1294 27.3624C41.0062 29.0071 41.6742 30.6203 42.1241 32.1496C43.4041 36.5019 42.787 39.5623 41.175 41.1743C39.563 42.7863 36.5025 43.4035 32.1503 42.1234C31.8435 42.0332 31.5333 41.9341 31.2201 41.8264C33.1935 40.4258 35.127 38.796 36.9618 36.9611C37.6405 36.2825 38.2901 35.5914 38.9096 34.8909C39.8015 33.8825 39.707 32.342 38.6987 31.4502C37.6903 30.5583 36.1498 30.6528 35.258 31.6612C34.7045 32.2869 34.1231 32.9055 33.5147 33.514C31.106 35.9226 28.5558 37.8905 26.0458 39.3854C23.5358 37.8905 20.9856 35.9226 18.577 33.514C14.1548 29.0918 11.2181 24.1922 9.96762 19.9407C8.68755 15.5885 9.30469 12.528 10.9167 10.916ZM21.3169 5.29006C22.8664 5.7458 24.4527 6.37275 26.0458 7.15867C27.639 6.37275 29.2252 5.7458 30.7747 5.29006C35.849 3.79764 41.1573 4.00408 44.6221 7.4689C46.9932 9.84001 47.839 13.1162 47.6604 16.5084C47.5013 19.5307 46.5322 22.8017 44.9323 26.0451C45.7182 27.6383 46.3452 29.2245 46.801 30.7741C48.2934 35.8483 48.0869 41.1567 44.6221 44.6215C41.1573 48.0863 35.849 48.2927 30.7747 46.8003C29.2252 46.3446 27.639 45.7176 26.0458 44.9317C24.4527 45.7176 22.8664 46.3446 21.3169 46.8003C16.2427 48.2927 10.9344 48.0863 7.46955 44.6215C5.10009 42.252 4.2538 38.9786 4.43087 35.589C4.58885 32.5646 5.55831 29.291 7.15936 26.0453C6.37342 24.4521 5.74646 22.8658 5.29071 21.3163C3.79829 16.2421 4.00473 10.9337 7.46955 7.4689C10.9344 4.00408 16.2427 3.79764 21.3169 5.29006ZM36.9618 15.1292C35.127 13.2944 33.1935 11.6646 31.2201 10.264C31.5333 10.1562 31.8435 10.0572 32.1503 9.96697C36.5025 8.6869 39.563 9.30404 41.175 10.916C42.2868 12.0279 42.9221 13.784 42.7922 16.2521C42.7187 17.6476 42.3994 19.2072 41.8271 20.871C40.4265 18.8976 38.7966 16.9641 36.9618 15.1292ZM15.1299 36.9611C16.9647 38.796 18.8982 40.4258 20.8716 41.8264C20.5584 41.9341 20.2482 42.0332 19.9414 42.1234C15.5892 43.4035 12.5287 42.7863 10.9167 41.1743C9.80561 40.0632 9.17044 38.3088 9.29923 35.8433C9.37219 34.4465 9.69159 32.8853 10.2646 31.2194C11.6652 33.1928 13.295 35.1263 15.1299 36.9611ZM30.8748 26C30.8748 28.6924 28.6921 30.875 25.9998 30.875C23.3074 30.875 21.1248 28.6924 21.1248 26C21.1248 23.3076 23.3074 21.125 25.9998 21.125C28.6921 21.125 30.8748 23.3076 30.8748 26Z" fill="#B6BAB8"/>
</svg>
