<svg width="48" height="48" viewBox="0 0 48 48" fill="none" xmlns="http://www.w3.org/2000/svg">
<g clip-path="url(#clip0_3119_2562)">
<path d="M24 6.914C23.172 6.914 22.5 6.242 22.5 5.414V1.5C22.5 0.672 23.172 0 24 0C24.828 0 25.5 0.672 25.5 1.5V5.414C25.5 6.242 24.828 6.914 24 6.914Z" fill="#C7C7C7"/>
<path d="M37.1421 12.358C36.7581 12.358 36.3741 12.212 36.0821 11.918C35.4961 11.332 35.4961 10.382 36.0821 9.796L38.8501 7.028C39.4361 6.442 40.3861 6.442 40.9721 7.028C41.5581 7.614 41.5581 8.564 40.9721 9.15L38.2041 11.918C37.9101 12.21 37.5261 12.358 37.1421 12.358Z" fill="#C7C7C7"/>
<path d="M46.4999 25.5H42.5859C41.7579 25.5 41.0859 24.828 41.0859 24C41.0859 23.172 41.7579 22.5 42.5859 22.5H46.4999C47.3279 22.5 47.9999 23.172 47.9999 24C47.9999 24.828 47.3279 25.5 46.4999 25.5Z" fill="#C7C7C7"/>
<path d="M39.9101 41.41C39.5261 41.41 39.1421 41.264 38.8501 40.97L36.0821 38.202C35.4961 37.616 35.4961 36.666 36.0821 36.08C36.6681 35.494 37.6181 35.494 38.2041 36.08L40.9721 38.848C41.5581 39.434 41.5581 40.384 40.9721 40.97C40.6781 41.264 40.2941 41.41 39.9101 41.41Z" fill="#C7C7C7"/>
<path d="M8.08934 41.41C7.70534 41.41 7.32134 41.264 7.02934 40.97C6.44334 40.384 6.44334 39.434 7.02934 38.848L9.79734 36.08C10.3833 35.494 11.3333 35.494 11.9193 36.08C12.5053 36.666 12.5053 37.616 11.9193 38.202L9.15134 40.97C8.85734 41.264 8.47334 41.41 8.08934 41.41Z" fill="#C7C7C7"/>
<path d="M5.414 25.5H1.5C0.672 25.5 0 24.828 0 24C0 23.172 0.672 22.5 1.5 22.5H5.414C6.242 22.5 6.914 23.172 6.914 24C6.914 24.828 6.242 25.5 5.414 25.5Z" fill="#C7C7C7"/>
<path d="M10.8573 12.358C10.4733 12.358 10.0893 12.212 9.79734 11.918L7.02934 9.15C6.44334 8.564 6.44334 7.614 7.02934 7.028C7.61534 6.442 8.56534 6.442 9.15134 7.028L11.9193 9.796C12.5053 10.382 12.5053 11.332 11.9193 11.918C11.6233 12.21 11.2413 12.358 10.8573 12.358Z" fill="#C7C7C7"/>
<path d="M30 42V44.5C30 46.42 28.42 48 26.5 48H21.5C19.82 48 18 46.72 18 43.92V42H30Z" fill="#C7C7C7"/>
<path d="M32.8206 13.12C29.5406 10.46 25.2206 9.42 21.0006 10.32C15.7006 11.42 11.4006 15.74 10.3006 21.04C9.18062 26.48 11.2206 31.88 15.5806 35.18C16.7606 36.06 17.5806 37.42 17.8606 39V39.02C17.9006 39 17.9606 39 18.0006 39H30.0006C30.0406 39 30.0606 39 30.1006 39.02V39C30.3806 37.48 31.2806 36.08 32.6606 35C36.0406 32.32 38.0006 28.32 38.0006 24C38.0006 19.76 36.1206 15.8 32.8206 13.12ZM31.5006 25C30.6806 25 30.0006 24.32 30.0006 23.5C30.0006 20.46 27.5406 18 24.5006 18C23.6806 18 23.0006 17.32 23.0006 16.5C23.0006 15.68 23.6806 15 24.5006 15C29.1806 15 33.0006 18.82 33.0006 23.5C33.0006 24.32 32.3206 25 31.5006 25Z" fill="#C7C7C7"/>
<path d="M17.8594 39H17.9994C17.9594 39 17.8994 39 17.8594 39.02V39Z" fill="#C7C7C7"/>
<path d="M30.1 39V39.02C30.06 39 30.04 39 30 39H30.1Z" fill="#C7C7C7"/>
</g>
<defs>
<clipPath id="clip0_3119_2562">
<rect width="48" height="48" fill="white"/>
</clipPath>
</defs>
</svg>
