<svg width="102" height="102" viewBox="0 0 102 102" fill="none" xmlns="http://www.w3.org/2000/svg">
<path d="M52.8431 93.2723C52.8431 94.6214 52.4483 95.5208 51.6586 95.9705C50.858 96.4202 49.8818 96.3104 48.7083 95.6304L7.35989 71.7536C6.18634 71.0846 5.19925 70.0537 4.40957 68.6937C3.61989 67.3228 3.2251 65.9736 3.2251 64.6246C3.2251 63.2755 3.61989 62.3872 4.40957 61.9265L4.65089 61.8059C5.3967 61.5097 6.30699 61.6524 7.35989 62.2666L48.7083 86.1433C49.8818 86.8123 50.858 87.8433 51.6586 89.2033C52.4483 90.5743 52.8431 91.9233 52.8431 93.2723Z" stroke="#1A6443" stroke-width="1.5" stroke-linecap="round" stroke-linejoin="round"/>
<path d="M72.3988 36.5473C72.1465 36.0757 71.8833 35.6041 71.6091 35.1325C67.8691 28.6944 63.4162 23.8247 58.2394 20.5235C57.8227 20.2493 57.4059 19.9861 56.9781 19.7449C51.6698 16.6849 47.0962 16.0267 43.2465 17.7925L42.3472 18.2423C41.6123 18.6591 40.9433 19.1525 40.3401 19.7228C38.4536 21.4777 37.2362 23.9344 36.6659 27.0822C36.4246 28.4422 36.304 29.9229 36.304 31.5352C36.304 33.1474 36.4356 34.8912 36.6988 36.5912C36.9291 38.1047 37.2691 39.6402 37.7298 41.1867C38.3878 43.5228 39.3091 45.881 40.4717 48.261C41.0311 49.4345 41.6672 50.6189 42.3472 51.8035C45.9336 57.9893 50.1781 62.7273 55.1027 66.0177C55.7169 66.4344 56.342 66.8184 56.9781 67.1913C62.6923 70.4926 67.573 70.9971 71.6091 68.6939C75.6233 66.4016 77.6414 61.9925 77.6523 55.4447V55.401C77.6523 49.292 75.8975 42.9964 72.3988 36.5473ZM67.2111 44.8718L66.9698 45.0144L59.1498 49.5551L56.9781 50.8164C56.1556 51.288 55.1904 51.2112 54.0827 50.5751C52.9749 49.9389 52.0207 48.908 51.1872 47.4822L48.9936 43.6983L46.7452 39.8157C46.3285 39.1028 46.1201 38.4228 46.1201 37.7977C46.1201 37.4247 46.1969 37.1178 46.3614 36.8765C46.4381 36.712 46.5807 36.5913 46.7452 36.4926C46.9536 36.372 47.184 36.3171 47.4362 36.3281C47.6775 36.3391 47.9298 36.4157 48.193 36.5583C48.7414 36.8325 49.224 37.326 49.6407 38.0389L54.0827 45.7054L63.8769 40.1228L64.3156 39.8706C64.6994 39.6622 65.1272 39.6841 65.6207 39.9364H65.6317C65.6317 39.9364 65.7194 39.9802 65.7633 40.0022C66.3117 40.3202 66.7943 40.8358 67.2111 41.5487C67.6278 42.2616 67.8362 42.9306 67.8362 43.5667C67.8362 44.2028 67.6278 44.6306 67.2111 44.8718Z" stroke="#1A6443" stroke-width="1.5" stroke-linecap="round" stroke-linejoin="round"/>
<path d="M74.7783 82.3047C74.7783 83.6538 74.3835 84.5532 73.5938 85.0029L73.3525 85.1234L51.6583 95.9706C52.448 95.521 52.8429 94.6215 52.8429 93.2725C52.8429 91.9234 52.448 90.5744 51.6583 89.2034C50.8577 87.8434 49.8816 86.8125 48.708 86.1434L7.35964 62.2668C6.30674 61.6526 5.39644 61.5099 4.65063 61.806L14.4777 56.8926L40.1312 71.699C41.3706 72.4119 42.3688 72.5216 43.1256 72.0061L54.9267 66.1055L70.6435 75.1757C71.8171 75.8447 72.7932 76.8757 73.5938 78.2357C74.3835 79.6067 74.7783 80.9557 74.7783 82.3047Z" stroke="#1A6443" stroke-width="1.5" stroke-linecap="round" stroke-linejoin="round"/>
<path d="M65.6206 39.9362L64.1838 40.6601L54.0825 45.7052L63.8767 40.1227L64.3154 39.8705C64.6993 39.6621 65.127 39.6839 65.6206 39.9362Z" stroke="#1A6443" stroke-width="1.5" stroke-linecap="round" stroke-linejoin="round"/>
<path d="M67.8353 43.5667C67.8353 44.2029 67.6269 44.6306 67.2101 44.8719L66.9688 45.0145L59.1488 49.5551L56.9772 50.8164C56.1546 51.288 55.1895 51.2112 54.0817 50.5751C52.974 49.939 52.0198 48.908 51.1862 47.4822L48.9927 43.6983L46.7443 39.8158C46.3275 39.1029 46.1191 38.4229 46.1191 37.7977C46.1191 37.4248 46.1959 37.1178 46.3604 36.8765L47.4353 36.3281C47.6766 36.3391 47.9288 36.4158 48.192 36.5583C48.7404 36.8325 49.223 37.3261 49.6398 38.039L54.0817 45.7054L64.183 40.6603L65.6198 39.9364H65.6308C65.6308 39.9364 65.7185 39.9803 65.7624 40.0022C66.3108 40.3203 66.7933 40.8359 67.2101 41.5488C67.6269 42.2617 67.8353 42.9306 67.8353 43.5667Z" stroke="#1A6443" stroke-width="1.5" stroke-linecap="round" stroke-linejoin="round"/>
<path d="M36.6983 36.591C36.9287 38.1046 37.2687 39.6401 37.7293 41.1865L32.6293 43.7421L29.6351 45.2337C30.4029 44.7511 30.7977 43.9065 30.8196 42.6891V42.6013C30.8196 41.2523 30.4248 39.9034 29.6351 38.5324C28.8454 37.1724 27.8583 36.1413 26.6848 35.4723L25.1603 34.5949L23.2958 33.5091L7.35965 24.3071C6.30674 23.693 5.39644 23.5505 4.65063 23.8466L26.3448 12.9994C27.1345 12.5498 28.1216 12.6594 29.2951 13.3394L40.3396 19.7226C38.4532 21.4775 37.2358 23.9342 36.6654 27.082C36.4242 28.442 36.3035 29.9227 36.3035 31.535C36.3035 33.1473 36.4351 34.891 36.6983 36.591Z" stroke="#1A6443" stroke-width="1.5" stroke-linecap="round" stroke-linejoin="round"/>
<path d="M30.8199 42.6013V42.6889C30.798 43.9063 30.4031 44.751 29.6354 45.2336C28.8457 45.7271 27.8586 45.6394 26.6851 44.9594L14.4889 37.9181L7.35989 33.7942C6.18634 33.1252 5.19925 32.1052 4.40957 30.7342C3.61989 29.3632 3.2251 28.0142 3.2251 26.6652C3.2251 25.3161 3.61989 24.4277 4.40957 23.9671L4.65089 23.8465C5.3967 23.5503 6.30699 23.6928 7.35989 24.307L23.296 33.5089L25.1605 34.5947L26.6851 35.4723C27.8586 36.1413 28.8457 37.1723 29.6354 38.5323C30.4251 39.9032 30.8199 41.2523 30.8199 42.6013Z" stroke="#1A6443" stroke-width="1.5" stroke-linecap="round" stroke-linejoin="round"/>
<path d="M55.1022 66.0178L43.1256 72.0063C43.8604 71.5018 44.2442 70.6462 44.2661 69.4288V69.341C44.2661 67.992 43.8603 66.6431 43.0706 65.2721C42.2809 63.9011 41.2938 62.881 40.1312 62.212L25.1603 53.5694L23.2848 52.4836L7.35965 43.2926C6.30674 42.6785 5.39644 42.5359 4.65063 42.832L14.4887 37.9185L26.6848 44.9599C27.8583 45.6399 28.8454 45.7276 29.6351 45.234L32.6293 43.7424L40.4713 48.2611C41.0306 49.4347 41.6667 50.6191 42.3467 51.8036C45.9332 57.9894 50.1777 62.7275 55.1022 66.0178Z" stroke="#1A6443" stroke-width="1.5" stroke-linecap="round" stroke-linejoin="round"/>
<path d="M44.2664 69.3409V69.4285C44.2444 70.6459 43.8606 71.5015 43.1257 72.0061C42.3689 72.5215 41.3709 72.4119 40.1315 71.699L14.478 56.8925L7.35989 52.7796C6.18634 52.0996 5.19925 51.0796 4.40957 49.7086C3.61989 48.3486 3.2251 46.9886 3.2251 45.6506C3.2251 44.3125 3.61989 43.4021 4.40957 42.9524L4.65089 42.8318C5.3967 42.5356 6.30699 42.6783 7.35989 43.2925L23.2851 52.4835L25.1605 53.5693L40.1315 62.2119C41.2941 62.8809 42.2812 63.9009 43.0709 65.2719C43.8606 66.6428 44.2664 67.9919 44.2664 69.3409Z" stroke="#1A6443" stroke-width="1.5" stroke-linecap="round" stroke-linejoin="round"/>
<path d="M99.5879 44.4329C99.5879 51.0026 97.5697 55.4336 93.5445 57.7258L92.6452 58.1754L71.6091 68.6936C75.6233 66.4013 77.6414 61.9923 77.6524 55.4445V55.4007C77.6524 49.2916 75.8974 42.9961 72.3987 36.5471C72.1465 36.0755 71.8833 35.6038 71.6091 35.1322C67.8691 28.6941 63.4162 23.8245 58.2394 20.5232C57.8226 20.249 57.4058 19.9858 56.9781 19.7445C51.6697 16.6845 47.0963 16.0265 43.2466 17.7923L64.2827 7.27423C68.3188 4.971 73.1884 5.47551 78.9136 8.7768C84.6278 12.0781 89.5084 17.2109 93.5445 24.1644C97.5697 31.118 99.5879 37.8742 99.5879 44.4329Z" stroke="#1A6443" stroke-width="1.5" stroke-linecap="round" stroke-linejoin="round"/>
</svg>
