<svg width="102" height="102" viewBox="0 0 102 102" fill="none" xmlns="http://www.w3.org/2000/svg">
<path d="M57.426 99.9088C57.6725 99.8238 57.902 99.7133 58.106 99.5688L57.426 99.9088Z" stroke="#1A6443" stroke-width="1.5" stroke-linecap="round" stroke-linejoin="round"/>
<path d="M71.1536 69.3089V76.5934C71.1536 77.6644 70.9752 78.5399 70.6182 79.2369C70.3122 79.8574 69.8701 80.3334 69.2836 80.6649C68.5951 81.0559 67.8387 81.1834 66.9972 81.0559H66.9887C66.3087 80.9454 65.5861 80.6649 64.8041 80.2144L42.1602 67.1414L25.3301 57.4259L20.3575 54.5529C18.6065 53.5499 17.1105 51.9689 15.8695 49.8269C14.6285 47.6764 14.0081 45.6024 14.0081 43.6049V36.3119C14.0081 35.2834 14.3141 34.5949 14.9176 34.2464L15.1046 34.1529C15.6826 33.9234 16.371 34.0339 17.1785 34.5014L39.4062 47.3364V39.6864C36.2187 37.2384 33.4136 34.1869 31.0081 30.5319C30.3026 29.4779 29.6395 28.3644 29.002 27.2084C28.9935 27.1914 28.9767 27.1659 28.9682 27.1489C26.1377 21.9639 24.4292 16.8044 23.8512 11.6704C23.7917 11.3389 23.8087 11.0499 23.8852 10.8289C23.9447 10.6674 24.0295 10.5484 24.157 10.4719L24.2762 10.4124C24.2762 10.4124 24.31 10.4039 24.327 10.3954C24.5395 10.3359 24.7437 10.3019 24.9562 10.3104C25.1687 10.3104 25.4066 10.4124 25.6701 10.6249C30.4896 14.2544 34.51 19.0059 37.74 24.8794C38.556 26.3669 39.2615 27.8374 39.8735 29.2909C41.6755 33.6089 42.5767 37.7994 42.5767 41.8794C42.5767 37.7994 43.4776 34.6459 45.2881 32.4189C45.8916 31.6624 46.6056 31.0164 47.4216 30.4724C47.8636 30.1749 48.331 29.9199 48.807 29.6989C50.269 29.0274 51.8672 28.7299 53.6182 28.7979C55.3862 28.8489 57.3072 29.2909 59.3812 30.1154C59.4152 30.1239 59.4491 30.1324 59.4831 30.1494C59.5851 30.1834 59.6787 30.2344 59.7722 30.2939C59.9252 30.3789 60.0697 30.5064 60.1972 30.6509C60.4097 30.8974 60.6222 31.1694 60.8347 31.4754C61.0472 31.7814 61.1917 32.0874 61.2682 32.4104C61.3532 32.7334 61.3615 33.0224 61.3105 33.2944C60.7325 37.7569 59.0242 40.9444 56.1937 42.8654C55.9047 43.0609 55.6157 43.2394 55.3097 43.3839L54.9102 43.5879C52.3347 44.7949 49.2747 44.7184 45.7557 43.3499V50.9999L67.9746 63.8349C68.8756 64.3534 69.632 65.1354 70.2355 66.1894C70.8305 67.2009 71.1366 68.2124 71.1451 69.2069C71.1536 69.2409 71.1536 69.2749 71.1536 69.3089Z" stroke="#1A6443" stroke-width="1.5" stroke-linecap="round" stroke-linejoin="round"/>
<path d="M78.3104 24.7944C77.7324 29.2569 76.0241 32.4444 73.1936 34.3654C72.7176 34.6884 72.2244 34.9604 71.7144 35.1729L71.6125 35.2239L62.7556 39.6609L55.3096 43.3839C55.6156 43.2394 55.9046 43.0609 56.1936 42.8654C59.0241 40.9444 60.7324 37.7569 61.3104 33.2944C61.3614 33.0224 61.3531 32.7334 61.2681 32.4104C61.1916 32.0874 61.0471 31.7814 60.8346 31.4754C60.6221 31.1694 60.4096 30.8974 60.1971 30.6509C60.0696 30.5064 59.9251 30.3789 59.7721 30.2939C59.6786 30.2344 59.585 30.1834 59.483 30.1494C59.449 30.1324 59.4151 30.1239 59.3811 30.1154C57.3071 29.2909 55.3861 28.8489 53.6181 28.7979C51.8671 28.7299 50.2689 29.0274 48.8069 29.6989L52.6149 27.7949L58.3354 24.9304L65.5096 21.3434C68.5356 19.8304 72.199 19.9324 76.483 21.6494C76.7465 21.7429 76.9846 21.9129 77.1971 22.1509C77.4096 22.3974 77.6221 22.6694 77.8346 22.9754C78.0471 23.2814 78.1916 23.5874 78.2681 23.9104C78.3531 24.2334 78.3614 24.5224 78.3104 24.7944Z" stroke="#1A6443" stroke-width="1.5" stroke-linecap="round" stroke-linejoin="round"/>
<path d="M58.3355 24.9303L52.615 27.7948L48.807 29.6988C48.331 29.9198 47.8635 30.1748 47.4215 30.4723C46.6055 31.0163 45.8915 31.6623 45.288 32.4188C43.4775 34.6458 42.5766 37.7993 42.5766 41.8793C42.5766 37.7993 41.6755 33.6088 39.8735 29.2908C39.2615 27.8373 38.556 26.3668 37.74 24.8793C34.51 19.0058 30.4895 14.2543 25.67 10.6248C25.4065 10.4123 25.1686 10.3103 24.9561 10.3103C24.7436 10.3018 24.5395 10.3358 24.327 10.3953C24.31 10.3953 24.2931 10.3953 24.2761 10.4123L41.1315 1.99737L41.327 1.89537C41.5395 1.83587 41.7436 1.80187 41.9561 1.81037C42.1686 1.81037 42.4065 1.91237 42.67 2.12487C47.4895 5.75438 51.51 10.5058 54.74 16.3793C56.3295 19.2778 57.5365 22.1338 58.3355 24.9303Z" stroke="#1A6443" stroke-width="1.5" stroke-linecap="round" stroke-linejoin="round"/>
<path d="M62.7556 39.6611V42.5001L45.8489 50.9576L45.7556 50.8981V43.3501C49.2746 44.7186 52.3346 44.7951 54.9101 43.5881L55.3096 43.3841L62.7556 39.6611Z" stroke="#1A6443" stroke-width="1.5" stroke-linecap="round" stroke-linejoin="round"/>
<path d="M39.4061 39.6865V47.3365L17.1784 34.5015C16.3709 34.034 15.6825 33.9235 15.1045 34.153L29.0019 27.2085C29.6394 28.3645 30.3025 29.478 31.008 30.532C33.4135 34.187 36.2186 37.2385 39.4061 39.6865Z" stroke="#1A6443" stroke-width="1.5" stroke-linecap="round" stroke-linejoin="round"/>
<path d="M79.9937 75.3101L76.6445 88.6806C76.2705 90.1086 75.5311 91.0181 74.4176 91.4091L58.0977 99.5691C58.8372 99.0931 59.3555 98.2941 59.6445 97.1806L62.4411 86.0371L63.2145 82.9431L66.9887 81.0561H66.9972C67.8387 81.1836 68.5951 81.0561 69.2836 80.6651L79.9937 75.3101Z" stroke="#1A6443" stroke-width="1.5" stroke-linecap="round" stroke-linejoin="round"/>
<path d="M63.2143 82.9432L62.4409 86.0372L59.6443 97.1807C59.3553 98.2942 58.837 99.0932 58.0975 99.5692L57.4174 99.9092C56.3124 100.3 55.0119 100.062 53.5329 99.2122L31.6284 86.5642C30.1409 85.7057 28.8488 84.4392 27.7353 82.7732C26.6218 81.0987 25.8824 79.3307 25.5169 77.4777L21.9385 59.1177L43.231 71.4087L63.2143 82.9432Z" stroke="#1A6443" stroke-width="1.5" stroke-linecap="round" stroke-linejoin="round"/>
<path d="M88.1535 60.809V68.0935C88.1535 70.0995 87.533 71.4595 86.2835 72.165L69.2835 80.665C69.87 80.3335 70.3121 79.8575 70.6181 79.2455C70.9751 78.54 71.1535 77.6645 71.1535 76.5935V69.309C71.1535 69.309 71.1535 69.241 71.145 69.207C71.1365 68.2125 70.8304 67.201 70.2354 66.1895C69.6319 65.1355 68.8755 64.3535 67.9745 63.835L45.7556 51L45.8489 50.9575L62.7556 42.5L84.9745 55.335C85.8755 55.8535 86.6319 56.6355 87.2354 57.6895C87.8474 58.735 88.1535 59.7805 88.1535 60.809Z" stroke="#1A6443" stroke-width="1.5" stroke-linecap="round" stroke-linejoin="round"/>
<path d="M66.9885 81.0563L63.2143 82.9433L43.231 71.4088L21.9385 59.1178L25.3299 57.4263L42.16 67.1418L64.8039 80.2148C65.5859 80.6653 66.3085 80.9458 66.9885 81.0563Z" stroke="#1A6443" stroke-width="1.5" stroke-linecap="round" stroke-linejoin="round"/>
</svg>
