<svg width="49" height="48" viewBox="0 0 49 48" fill="none" xmlns="http://www.w3.org/2000/svg">
<g clip-path="url(#clip0_3119_2631)">
<path d="M21.7565 24.755L26.2263 20.2852C25.2211 19.6436 24.0292 19.27 22.7508 19.27C19.1781 19.27 16.2715 22.1766 16.2715 25.7493C16.2715 29.322 19.1781 32.2286 22.7508 32.2286C26.3235 32.2286 29.2302 29.322 29.2302 25.7493C29.2302 24.471 28.8566 23.279 28.215 22.2738L23.7451 26.7436L21.7565 24.755Z" fill="#C7C7C7"/>
<path d="M45.0014 25.7493C45.0014 21.9278 44.0252 18.1908 42.1718 14.8835L36.6313 15.6427C38.7033 18.4806 39.9282 21.9743 39.9282 25.7493C39.9282 35.221 32.2225 42.9269 22.7506 42.9269C13.2788 42.9269 5.57309 35.221 5.57309 25.7493C5.57309 16.2775 13.279 8.57172 22.7507 8.57172C26.5257 8.57172 30.0193 9.79666 32.8573 11.8686L33.6164 6.32819C30.3092 4.47475 26.5722 3.49854 22.7507 3.49854C16.8073 3.49854 11.2197 5.81304 7.01712 10.0157C2.8145 14.2182 0.5 19.8059 0.5 25.7493C0.5 31.6926 2.8145 37.2803 7.01712 41.4828C11.2197 45.6856 16.8073 48 22.7507 48C28.6942 48 34.2818 45.6855 38.4843 41.4828C42.6869 37.2803 45.0014 31.6927 45.0014 25.7493Z" fill="#C7C7C7"/>
<path d="M22.7499 11.3843C14.829 11.3843 8.38477 17.8284 8.38477 25.7494C8.38477 33.6704 14.8289 40.1145 22.7499 40.1145C30.6709 40.1145 37.115 33.6704 37.115 25.7494C37.115 22.2942 35.8886 19.1203 33.8486 16.6394L30.2361 20.2519C31.3705 21.7924 32.0418 23.6938 32.0418 25.7494C32.0418 30.8729 27.8735 35.0412 22.75 35.0412C17.6265 35.0412 13.4581 30.8729 13.4581 25.7494C13.4581 20.6259 17.6265 16.4576 22.75 16.4576C24.8055 16.4576 26.7069 17.1289 28.2475 18.2633L31.86 14.6508C29.379 12.6106 26.205 11.3843 22.7499 11.3843Z" fill="#C7C7C7"/>
<path d="M42.7158 0L36.4653 6.25041L35.5469 12.9526L42.2491 12.0341L48.4995 5.78372L44.2805 4.21894L42.7158 0Z" fill="#C7C7C7"/>
</g>
<defs>
<clipPath id="clip0_3119_2631">
<rect width="48" height="48" fill="white" transform="translate(0.5)"/>
</clipPath>
</defs>
</svg>
